<?xml version="1.0" encoding="UTF-8"?>
<!DOCTYPE svg PUBLIC "-//W3C//DTD SVG 1.1//EN" "http://www.w3.org/Graphics/SVG/1.1/DTD/svg11.dtd">
<svg version="1.1" xmlns="http://www.w3.org/2000/svg" xmlns:xlink="http://www.w3.org/1999/xlink" x="0" y="0"  viewBox="0, 0, 96, 96">
  <g id="Layer_1">
    <path d="M9.392,25.709 C9.392,25.19 9.581,24.726 9.936,24.346 C10.294,23.965 10.726,23.776 11.242,23.776 C11.76,23.776 12.221,23.965 12.579,24.346 C12.934,24.726 13.123,25.162 13.123,25.709 C13.123,26.224 12.934,26.659 12.579,27.014 C12.221,27.37 11.76,27.558 11.274,27.558 C10.781,27.558 10.317,27.37 9.962,27.014 C9.558,26.634 9.392,26.198 9.392,25.709 z M14.781,25.709 C14.781,25.19 14.973,24.726 15.325,24.346 C15.68,23.965 16.115,23.776 16.634,23.776 L25.424,23.776 L19.219,17.568 C18.838,17.242 18.646,16.806 18.646,16.288 C18.646,15.773 18.838,15.338 19.219,14.954 C19.6,14.573 20.035,14.384 20.554,14.384 C21.069,14.384 21.504,14.573 21.885,14.954 L28.064,21.136 L28.064,12.397 C28.064,11.878 28.256,11.418 28.64,11.037 C29.018,10.653 29.453,10.464 29.997,10.464 C30.515,10.464 30.95,10.653 31.306,11.037 C31.658,11.418 31.85,11.853 31.85,12.397 L31.85,21.19 L38.083,14.928 C38.464,14.547 38.899,14.355 39.389,14.355 C39.878,14.355 40.346,14.547 40.723,14.928 C41.05,15.309 41.213,15.744 41.213,16.262 C41.213,16.778 41.05,17.216 40.723,17.542 L34.515,23.747 L43.309,23.747 C43.802,23.747 44.234,23.939 44.589,24.32 C44.944,24.701 45.133,25.136 45.133,25.68 C45.133,26.17 44.944,26.605 44.589,26.96 C44.234,27.315 43.802,27.504 43.309,27.504 L34.515,27.504 L40.752,33.738 C41.078,34.064 41.242,34.499 41.242,35.018 C41.242,35.536 41.078,35.971 40.752,36.352 C40.368,36.733 39.907,36.922 39.418,36.922 C38.928,36.922 38.464,36.733 38.109,36.352 L31.875,30.09 L31.875,38.909 C31.875,39.427 31.686,39.891 31.334,40.243 C30.979,40.598 30.544,40.787 30.029,40.787 C29.507,40.787 29.046,40.598 28.666,40.243 C28.285,39.891 28.096,39.427 28.096,38.909 L28.096,30.144 L21.914,36.323 C21.533,36.704 21.098,36.896 20.579,36.896 C20.061,36.896 19.626,36.704 19.245,36.323 C18.864,35.942 18.675,35.507 18.675,34.989 C18.675,34.474 18.864,34.064 19.245,33.712 L25.507,27.478 L16.688,27.478 C16.17,27.478 15.734,27.286 15.379,26.931 C14.944,26.634 14.781,26.198 14.781,25.709 z M14.81,38.883 C14.81,38.394 15.002,37.93 15.382,37.578 C15.709,37.194 16.144,37.005 16.662,37.005 C17.181,37.005 17.616,37.194 17.997,37.578 C18.378,37.958 18.57,38.394 18.57,38.883 C18.57,39.373 18.378,39.837 17.997,40.189 C17.616,40.57 17.181,40.762 16.662,40.762 C16.144,40.762 15.709,40.57 15.382,40.189 C15.002,39.837 14.81,39.402 14.81,38.883 z M14.81,12.451 C14.81,11.962 15.002,11.498 15.382,11.146 C15.709,10.762 16.144,10.573 16.662,10.573 C17.181,10.573 17.616,10.762 17.997,11.146 C18.378,11.526 18.57,11.962 18.57,12.451 C18.57,12.941 18.378,13.405 17.997,13.786 C17.616,14.166 17.181,14.355 16.662,14.355 C16.144,14.355 15.709,14.166 15.382,13.786 C15.002,13.405 14.81,12.941 14.81,12.451 z M28.01,7.008 C28.01,6.49 28.202,6.026 28.582,5.674 C28.963,5.318 29.402,5.13 29.946,5.13 C30.461,5.13 30.896,5.318 31.251,5.674 C31.606,6.026 31.795,6.49 31.795,7.008 C31.795,7.498 31.606,7.933 31.251,8.285 C30.896,8.64 30.461,8.829 29.946,8.829 C29.427,8.829 28.963,8.64 28.582,8.285 C28.202,7.933 28.01,7.498 28.01,7.008 z M41.267,38.883 C41.267,38.394 41.462,37.93 41.84,37.578 C42.166,37.194 42.602,37.005 43.12,37.005 C43.635,37.005 44.074,37.194 44.451,37.578 C44.835,37.958 45.024,38.394 45.024,38.883 C45.024,39.373 44.835,39.837 44.451,40.189 C44.074,40.57 43.635,40.762 43.12,40.762 C42.602,40.762 42.166,40.57 41.84,40.189 C41.462,39.837 41.267,39.402 41.267,38.883 z M41.267,12.451 C41.267,11.962 41.462,11.498 41.84,11.146 C42.166,10.762 42.602,10.573 43.12,10.573 C43.635,10.573 44.074,10.762 44.451,11.146 C44.835,11.526 45.024,11.962 45.024,12.451 C45.024,12.941 44.835,13.405 44.451,13.786 C44.074,14.166 43.635,14.355 43.12,14.355 C42.602,14.355 42.166,14.166 41.84,13.786 C41.462,13.405 41.267,12.941 41.267,12.451 z M46.714,25.709 C46.714,25.19 46.906,24.726 47.261,24.346 C47.61,23.965 48.077,23.776 48.592,23.776 C49.085,23.776 49.52,23.965 49.872,24.346 C50.227,24.726 50.416,25.162 50.416,25.709 C50.416,26.198 50.227,26.634 49.872,26.986 C49.52,27.341 49.085,27.533 48.592,27.533 C48.077,27.533 47.61,27.341 47.261,26.986 C46.906,26.634 46.714,26.198 46.714,25.709 z M49.968,43.283 C49.968,42.765 50.157,42.304 50.512,41.923 C50.867,41.542 51.299,41.35 51.814,41.35 L60.611,41.35 L54.403,35.146 C54.022,34.819 53.834,34.381 53.834,33.866 C53.834,33.347 54.022,32.912 54.403,32.531 C54.787,32.15 55.222,31.958 55.734,31.958 C56.256,31.958 56.688,32.15 57.069,32.531 L63.248,38.71 L63.248,29.971 C63.248,29.456 63.443,28.992 63.821,28.611 C64.202,28.23 64.637,28.038 65.181,28.038 C65.699,28.038 66.134,28.23 66.49,28.611 C66.845,28.992 67.034,29.427 67.034,29.971 L67.034,38.765 L73.267,32.502 C73.648,32.122 74.086,31.933 74.576,31.933 C75.066,31.933 75.526,32.122 75.91,32.502 C76.234,32.886 76.4,33.322 76.4,33.837 C76.4,34.355 76.234,34.79 75.91,35.117 L69.699,41.325 L78.493,41.325 C78.982,41.325 79.421,41.514 79.776,41.894 C80.125,42.275 80.32,42.71 80.32,43.258 C80.32,43.747 80.125,44.182 79.776,44.534 C79.421,44.89 78.982,45.082 78.493,45.082 L69.699,45.082 L75.933,51.315 C76.259,51.642 76.426,52.077 76.426,52.592 C76.426,53.11 76.259,53.546 75.933,53.926 C75.555,54.307 75.091,54.499 74.602,54.499 C74.112,54.499 73.648,54.307 73.293,53.926 L67.059,47.667 L67.059,56.486 C67.059,57.002 66.87,57.466 66.515,57.821 C66.166,58.173 65.725,58.365 65.21,58.365 C64.691,58.365 64.234,58.173 63.846,57.821 C63.466,57.466 63.277,57.002 63.277,56.486 L63.277,47.722 L57.101,53.901 C56.72,54.282 56.282,54.47 55.766,54.47 C55.245,54.47 54.81,54.282 54.432,53.901 C54.048,53.52 53.856,53.085 53.856,52.566 C53.856,52.048 54.048,51.642 54.432,51.286 L60.691,45.053 L51.869,45.053 C51.357,45.053 50.918,44.861 50.563,44.509 C50.128,44.208 49.968,43.773 49.968,43.283 z M63.197,24.582 C63.197,24.064 63.389,23.603 63.766,23.248 C64.147,22.896 64.586,22.704 65.126,22.704 C65.645,22.704 66.08,22.896 66.435,23.248 C66.79,23.603 66.979,24.064 66.979,24.582 C66.979,25.072 66.79,25.507 66.435,25.862 C66.08,26.214 65.645,26.406 65.126,26.406 C64.611,26.406 64.147,26.214 63.766,25.862 C63.389,25.507 63.197,25.072 63.197,24.582 z M76.454,30.026 C76.454,29.536 76.643,29.075 77.024,28.72 C77.354,28.339 77.789,28.147 78.301,28.147 C78.822,28.147 79.254,28.339 79.635,28.72 C80.016,29.101 80.211,29.536 80.211,30.026 C80.211,30.515 80.016,30.979 79.635,31.36 C79.254,31.741 78.822,31.933 78.301,31.933 C77.789,31.933 77.354,31.741 77.024,31.36 C76.643,30.979 76.454,30.515 76.454,30.026 z M81.898,43.283 C81.898,42.765 82.09,42.304 82.445,41.923 C82.797,41.542 83.261,41.35 83.776,41.35 C84.266,41.35 84.704,41.542 85.056,41.923 C85.411,42.304 85.6,42.739 85.6,43.283 C85.6,43.773 85.411,44.208 85.056,44.563 C84.704,44.918 84.266,45.107 83.776,45.107 C83.261,45.107 82.797,44.918 82.445,44.563 C82.09,44.208 81.898,43.773 81.898,43.283 z M9.392,59.414 C9.392,59.904 9.558,60.339 9.962,60.72 C10.317,61.075 10.781,61.267 11.274,61.267 C11.76,61.267 12.221,61.075 12.579,60.72 C12.934,60.368 13.123,59.933 13.123,59.414 C13.123,58.87 12.934,58.435 12.579,58.054 C12.221,57.674 11.76,57.482 11.242,57.482 C10.726,57.482 10.294,57.674 9.936,58.054 C9.581,58.435 9.392,58.896 9.392,59.414 z M14.781,59.443 C14.781,58.925 14.973,58.461 15.325,58.08 C15.68,57.699 16.115,57.51 16.634,57.51 L25.424,57.51 L19.219,51.302 C18.838,50.976 18.646,50.541 18.646,50.022 C18.646,49.507 18.838,49.072 19.219,48.688 C19.6,48.307 20.035,48.118 20.554,48.118 C21.069,48.118 21.504,48.307 21.885,48.688 L28.064,54.867 L28.064,46.131 C28.064,45.613 28.256,45.152 28.64,44.768 C29.018,44.387 29.453,44.198 29.997,44.198 C30.515,44.198 30.95,44.387 31.306,44.768 C31.658,45.152 31.85,45.587 31.85,46.131 L31.85,54.922 L38.083,48.662 C38.464,48.282 38.899,48.09 39.389,48.09 C39.878,48.09 40.346,48.282 40.723,48.662 C41.05,49.043 41.213,49.478 41.213,49.997 C41.213,50.512 41.05,50.947 40.723,51.277 L34.515,57.482 L43.309,57.482 C43.802,57.482 44.234,57.674 44.589,58.054 C44.944,58.435 45.133,58.87 45.133,59.414 C45.133,59.904 44.944,60.339 44.589,60.694 C44.234,61.046 43.802,61.238 43.309,61.238 L34.515,61.238 L25.507,61.21 L16.688,61.21 C16.17,61.21 15.734,61.021 15.379,60.666 C14.944,60.368 14.781,59.933 14.781,59.443 z M46.714,59.414 C46.714,58.896 46.906,58.435 47.261,58.054 C47.61,57.674 48.077,57.482 48.592,57.482 C49.085,57.482 49.52,57.674 49.872,58.054 C50.227,58.435 50.416,58.87 50.416,59.414 C50.416,59.904 50.227,60.339 49.872,60.694 C49.52,61.046 49.085,61.238 48.592,61.238 C48.077,61.238 47.61,61.046 47.261,60.694 C46.906,60.339 46.714,59.904 46.714,59.414 z M9.229,69.024 C9.229,68.342 9.472,67.77 9.965,67.251 C10.451,66.787 11.027,66.544 11.709,66.544 L79.002,66.544 C79.789,66.544 80.445,66.272 80.989,65.754 C81.533,65.235 81.811,64.579 81.811,63.789 C81.811,62.998 81.533,62.342 80.989,61.798 C80.445,61.251 79.789,60.979 79.002,60.979 C78.234,60.979 77.61,61.251 77.088,61.824 C76.602,62.262 76.026,62.48 75.37,62.48 C74.688,62.48 74.118,62.262 73.654,61.824 C73.19,61.389 72.944,60.816 72.944,60.106 C72.944,59.315 73.19,58.717 73.68,58.278 C75.123,56.835 76.899,56.096 79.002,56.096 C81.123,56.096 82.954,56.861 84.48,58.362 C86.01,59.862 86.774,61.69 86.774,63.789 C86.774,65.888 86.01,67.69 84.48,69.162 C82.954,70.662 81.123,71.398 79.002,71.398 L11.709,71.398 C11.027,71.398 10.451,71.181 9.99,70.688 C9.472,70.198 9.229,69.651 9.229,69.024 z M9.229,77.971 C9.229,77.29 9.472,76.717 9.965,76.253 C10.451,75.789 11.027,75.542 11.709,75.542 L64.378,75.542 C66.48,75.542 68.31,76.307 69.834,77.834 C71.363,79.363 72.125,81.162 72.125,83.29 C72.125,85.418 71.389,87.19 69.862,88.662 C68.333,90.134 66.509,90.87 64.378,90.87 C62.365,90.87 60.563,90.109 59.034,88.608 C58.518,88.144 58.269,87.571 58.269,86.89 C58.269,86.262 58.518,85.69 59.008,85.226 C59.501,84.762 60.074,84.515 60.755,84.515 C61.408,84.515 61.955,84.736 62.39,85.226 C62.909,85.744 63.59,86.016 64.378,86.016 C65.2,86.016 65.856,85.744 66.4,85.226 C66.944,84.707 67.219,84.054 67.219,83.261 C67.219,82.47 66.944,81.789 66.4,81.245 C65.856,80.698 65.2,80.426 64.41,80.426 L11.709,80.426 C11.002,80.426 10.429,80.179 9.99,79.661 C9.472,79.197 9.229,78.624 9.229,77.971 z" fill="#000000"/>
  </g>
</svg>
