<?xml version="1.0" encoding="UTF-8"?>
<!DOCTYPE svg PUBLIC "-//W3C//DTD SVG 1.1//EN" "http://www.w3.org/Graphics/SVG/1.1/DTD/svg11.dtd">
<svg version="1.1" xmlns="http://www.w3.org/2000/svg" xmlns:xlink="http://www.w3.org/1999/xlink" x="0" y="0"  viewBox="0, 0, 96, 96">
  <g id="Layer_1">
    <path d="M89.596,46.254 C88.306,45.181 86.372,44.749 84.651,45.181 C81.643,46.041 78.632,46.47 75.84,46.47 C57.78,46.47 43.163,31.853 43.163,13.796 C43.163,12.72 43.379,11.859 43.379,11.001 C43.595,9.28 42.95,7.345 41.444,6.272 C40.155,5.195 38.22,4.766 36.499,5.195 C17.581,10.569 4.47,27.769 4.47,47.331 C4.47,71.407 24.032,90.969 48.108,90.969 C70.678,90.969 89.812,73.341 91.53,50.984 C91.746,49.265 91.101,47.331 89.596,46.254 z M48.108,79.789 C30.051,79.789 15.431,65.172 15.431,47.331 C15.431,35.293 22.098,24.329 32.414,18.738 C34.993,41.525 55.417,59.153 79.064,57.219 C74.763,70.33 62.296,79.789 48.108,79.789 z" fill="#000000"/>
  </g>
</svg>
