<?xml version="1.0" encoding="UTF-8"?>
<!DOCTYPE svg PUBLIC "-//W3C//DTD SVG 1.1//EN" "http://www.w3.org/Graphics/SVG/1.1/DTD/svg11.dtd">
<svg version="1.1" xmlns="http://www.w3.org/2000/svg" xmlns:xlink="http://www.w3.org/1999/xlink" x="0" y="0"  viewBox="0, 0, 96, 96">
  <g id="Layer_1">
    <path d="M5.702,46 C5.702,41.261 7.133,37.094 10.032,33.418 C12.934,29.741 16.65,27.373 21.226,26.23 C22.493,20.675 25.35,16.099 29.802,12.506 C34.256,8.909 39.36,7.155 45.12,7.155 C50.758,7.155 55.741,8.909 60.15,12.381 C64.563,15.853 67.424,20.346 68.73,25.821 L70.035,25.821 C73.67,25.821 77.062,26.72 80.166,28.515 C83.27,30.314 85.763,32.765 87.558,35.869 C89.357,38.973 90.298,42.365 90.298,46 C90.298,51.389 88.416,56.086 84.618,59.968 C80.861,63.888 76.246,65.933 70.813,66.096 C70.282,66.096 69.997,65.85 69.997,65.402 L69.997,59.968 C69.997,59.478 70.282,59.232 70.813,59.232 C74.285,59.069 77.267,57.68 79.718,55.066 C82.166,52.451 83.392,49.43 83.392,45.958 C83.392,42.323 82.086,39.219 79.43,36.563 C76.778,33.907 73.632,32.602 69.955,32.602 L63.379,32.602 C62.89,32.602 62.643,32.355 62.643,31.907 L62.317,29.536 C61.869,25.126 59.949,21.408 56.64,18.429 C53.29,15.446 49.45,13.933 44.998,13.933 C40.506,13.933 36.624,15.446 33.315,18.467 C30.006,21.491 28.128,25.206 27.718,29.702 L27.475,31.744 C27.475,32.234 27.19,32.518 26.659,32.518 L24.493,32.806 C21.104,33.091 18.243,34.48 15.917,37.053 C13.587,39.626 12.445,42.566 12.445,46 C12.445,49.472 13.667,52.493 16.118,55.107 C18.57,57.722 21.552,59.069 25.024,59.274 C25.472,59.274 25.718,59.52 25.718,60.01 L25.718,65.44 C25.718,65.891 25.472,66.134 25.024,66.134 C19.552,65.971 14.934,63.93 11.136,60.01 C7.584,56.086 5.702,51.389 5.702,46 z M28.17,77.45 C28.17,76.512 28.496,75.693 29.19,74.998 C29.843,74.387 30.621,74.061 31.52,74.061 C32.458,74.061 33.274,74.387 33.93,74.998 C34.582,75.613 34.909,76.429 34.909,77.408 C34.909,78.39 34.582,79.165 33.93,79.821 C33.274,80.474 32.499,80.758 31.52,80.758 C30.579,80.758 29.763,80.432 29.107,79.821 C28.496,79.206 28.17,78.39 28.17,77.45 z M31.683,62.624 C31.683,61.725 32.01,60.909 32.662,60.253 C33.315,59.6 34.093,59.274 35.072,59.274 C36.013,59.274 36.829,59.6 37.482,60.253 C38.134,60.909 38.461,61.725 38.461,62.624 C38.461,63.603 38.134,64.419 37.482,65.075 C36.829,65.77 36.051,66.096 35.072,66.096 C34.131,66.096 33.315,65.77 32.662,65.075 C32.01,64.419 31.683,63.603 31.683,62.624 z M39.443,85.456 C39.443,84.515 39.77,83.699 40.464,82.963 C41.117,82.31 41.894,81.984 42.794,81.984 C43.773,81.984 44.589,82.31 45.283,83.005 C45.978,83.699 46.304,84.515 46.304,85.456 C46.304,86.397 45.978,87.213 45.283,87.866 C44.589,88.518 43.773,88.845 42.794,88.845 C41.853,88.845 41.075,88.518 40.422,87.866 C39.811,87.171 39.443,86.397 39.443,85.456 z M42.995,70.506 C42.995,69.526 43.322,68.71 43.978,67.974 C44.63,67.322 45.446,66.992 46.346,66.992 C47.286,66.992 48.102,67.322 48.797,68.016 C49.491,68.71 49.818,69.526 49.818,70.506 C49.818,71.446 49.491,72.262 48.797,72.957 C48.102,73.651 47.286,73.978 46.346,73.978 C45.405,73.978 44.63,73.651 43.978,72.957 C43.322,72.262 42.995,71.446 42.995,70.506 z M44.71,55.718 C44.71,54.781 45.04,53.965 45.734,53.27 C46.467,52.614 47.245,52.288 48.061,52.288 C49.04,52.288 49.859,52.614 50.554,53.309 C51.248,54.003 51.574,54.781 51.574,55.76 C51.574,56.701 51.248,57.517 50.554,58.17 C49.859,58.826 49.04,59.152 48.061,59.152 C47.123,59.152 46.346,58.826 45.693,58.17 C45.04,57.475 44.71,56.659 44.71,55.718 z M54.394,77.45 C54.394,76.512 54.72,75.693 55.373,74.998 C56.026,74.387 56.845,74.061 57.824,74.061 C58.803,74.061 59.581,74.387 60.234,74.998 C60.886,75.654 61.174,76.429 61.174,77.408 C61.174,78.39 60.845,79.165 60.234,79.821 C59.581,80.474 58.803,80.758 57.824,80.758 C56.845,80.758 56.026,80.432 55.373,79.779 C54.72,79.165 54.394,78.39 54.394,77.45 z M57.866,62.624 C57.866,61.725 58.192,60.947 58.886,60.253 C59.581,59.558 60.397,59.232 61.338,59.232 C62.275,59.232 63.091,59.558 63.747,60.214 C64.4,60.867 64.726,61.683 64.726,62.582 C64.726,63.562 64.4,64.381 63.747,65.034 C63.091,65.728 62.317,66.054 61.338,66.054 C60.355,66.054 59.539,65.728 58.886,65.034 C58.23,64.381 57.866,63.562 57.866,62.624 z" fill="#000000"/>
  </g>
</svg>
