<?xml version="1.0" encoding="UTF-8"?>
<!DOCTYPE svg PUBLIC "-//W3C//DTD SVG 1.1//EN" "http://www.w3.org/Graphics/SVG/1.1/DTD/svg11.dtd">
<svg version="1.1" xmlns="http://www.w3.org/2000/svg" xmlns:xlink="http://www.w3.org/1999/xlink" x="0" y="0"  viewBox="0, 0, 96, 96">
  <g id="Layer_1">
    <path d="M30.456,9.384 C27.787,8.621 24.991,10.273 24.228,12.943 L21.431,23.24 C20.668,25.909 22.321,28.707 24.991,29.47 C25.371,29.596 25.88,29.596 26.262,29.596 C28.55,29.596 30.584,28.071 31.219,25.783 L34.017,15.486 C34.779,12.817 33.126,10.019 30.456,9.384 z M81.307,9.384 C83.977,10.019 85.629,12.817 84.866,15.486 L82.069,25.783 C81.434,28.071 79.4,29.596 77.111,29.596 C76.73,29.596 76.222,29.596 75.84,29.47 C73.171,28.707 71.518,25.909 72.281,23.24 L75.077,12.943 C75.84,10.273 78.638,8.621 81.307,9.384 z M50.67,28.453 C53.467,29.088 54.992,31.885 54.229,34.555 L51.433,44.852 C50.797,47.14 48.763,48.666 46.475,48.666 C46.093,48.666 45.584,48.666 45.203,48.538 C42.533,47.775 40.881,44.979 41.644,42.309 L44.441,32.012 C45.203,29.342 48,27.69 50.67,28.453 z M20.16,47.521 C22.829,48.157 24.482,50.954 23.719,53.623 L20.923,63.92 C20.287,66.208 18.253,67.734 15.964,67.734 C15.583,67.734 15.074,67.734 14.693,67.607 C12.023,66.844 10.371,64.048 11.134,61.378 L13.931,51.08 C14.693,48.411 17.49,46.758 20.16,47.521 z M71.009,47.521 C73.679,48.157 75.332,50.954 74.569,53.623 L71.772,63.92 C71.137,66.208 69.103,67.734 66.815,67.734 C66.433,67.734 65.925,67.734 65.544,67.607 C62.874,66.844 61.221,64.048 61.983,61.378 L64.781,51.08 C65.544,48.411 68.34,46.758 71.009,47.521 z M40.499,66.59 C43.169,67.225 44.821,70.022 44.059,72.692 L41.262,82.989 C40.627,85.278 38.593,86.803 36.305,86.803 C35.923,86.803 35.415,86.803 35.034,86.675 C32.364,85.913 30.711,83.116 31.473,80.447 L34.271,70.15 C35.034,67.48 37.83,65.828 40.499,66.59 z" fill="#000000"/>
  </g>
</svg>
