<?xml version="1.0" encoding="UTF-8"?>
<!DOCTYPE svg PUBLIC "-//W3C//DTD SVG 1.1//EN" "http://www.w3.org/Graphics/SVG/1.1/DTD/svg11.dtd">
<svg version="1.1" xmlns="http://www.w3.org/2000/svg" xmlns:xlink="http://www.w3.org/1999/xlink" x="0" y="0"  viewBox="0, 0, 96, 96">
  <g id="Layer_1">
    <path d="M19.235,30.093 C19.235,29.728 19.37,29.402 19.619,29.136 C19.866,28.87 20.173,28.736 20.531,28.736 C20.896,28.736 21.222,28.87 21.469,29.136 C21.718,29.402 21.85,29.709 21.85,30.093 C21.85,30.451 21.718,30.758 21.469,31.005 C21.222,31.254 20.896,31.389 20.554,31.389 C20.208,31.389 19.885,31.254 19.635,31.005 C19.35,30.739 19.235,30.435 19.235,30.093 z M23.014,30.093 C23.014,29.728 23.149,29.402 23.395,29.136 C23.645,28.87 23.949,28.736 24.314,28.736 L30.477,28.736 L26.125,24.384 C25.859,24.154 25.725,23.85 25.725,23.485 C25.725,23.123 25.859,22.816 26.125,22.55 C26.394,22.285 26.701,22.15 27.059,22.15 C27.424,22.15 27.728,22.285 27.997,22.55 L32.33,26.883 L32.33,20.755 C32.33,20.397 32.464,20.07 32.733,19.802 C32.995,19.536 33.302,19.402 33.686,19.402 C34.045,19.402 34.352,19.536 34.598,19.802 C34.848,20.07 34.982,20.374 34.982,20.755 L34.982,26.922 L39.354,22.531 C39.619,22.262 39.926,22.131 40.269,22.131 C40.614,22.131 40.938,22.262 41.206,22.531 C41.434,22.8 41.549,23.104 41.549,23.466 C41.549,23.83 41.434,24.134 41.206,24.365 L36.854,28.717 L43.018,28.717 C43.363,28.717 43.667,28.848 43.917,29.117 C44.163,29.386 44.298,29.69 44.298,30.07 C44.298,30.416 44.163,30.72 43.917,30.97 C43.667,31.216 43.363,31.35 43.018,31.35 L36.854,31.35 L41.222,35.718 C41.453,35.952 41.568,36.256 41.568,36.621 C41.568,36.979 41.453,37.286 41.222,37.555 C40.957,37.821 40.63,37.955 40.288,37.955 C39.946,37.955 39.619,37.821 39.373,37.555 L35.002,33.162 L35.002,39.347 C35.002,39.712 34.867,40.035 34.621,40.285 C34.371,40.531 34.067,40.666 33.702,40.666 C33.341,40.666 33.018,40.531 32.749,40.285 C32.483,40.035 32.349,39.712 32.349,39.347 L32.349,33.203 L28.013,37.533 C27.75,37.802 27.443,37.933 27.082,37.933 C26.717,37.933 26.413,37.802 26.147,37.533 C25.878,37.267 25.744,36.963 25.744,36.598 C25.744,36.237 25.878,35.952 26.147,35.702 L30.534,31.331 L24.349,31.331 C23.99,31.331 23.683,31.197 23.437,30.947 C23.13,30.739 23.014,30.435 23.014,30.093 z M23.034,39.331 C23.034,38.982 23.168,38.662 23.437,38.413 C23.664,38.144 23.968,38.013 24.333,38.013 C24.694,38.013 24.998,38.144 25.267,38.413 C25.536,38.682 25.667,38.982 25.667,39.331 C25.667,39.674 25.536,39.997 25.267,40.243 C24.998,40.512 24.694,40.643 24.333,40.643 C23.968,40.643 23.664,40.512 23.437,40.243 C23.168,39.997 23.034,39.69 23.034,39.331 z M23.034,20.797 C23.034,20.451 23.168,20.128 23.437,19.878 C23.664,19.61 23.968,19.478 24.333,19.478 C24.694,19.478 24.998,19.61 25.267,19.878 C25.536,20.147 25.667,20.451 25.667,20.797 C25.667,21.139 25.536,21.462 25.267,21.731 C24.998,21.997 24.694,22.131 24.333,22.131 C23.968,22.131 23.664,21.997 23.437,21.731 C23.168,21.462 23.034,21.139 23.034,20.797 z M32.291,43.149 C32.291,42.8 32.426,42.499 32.691,42.246 C32.96,42 33.264,41.869 33.645,41.869 C34.01,41.869 34.314,42 34.563,42.246 C34.81,42.499 34.947,42.8 34.947,43.149 C34.947,43.507 34.81,43.834 34.563,44.08 C34.314,44.33 34.01,44.461 33.645,44.461 C33.286,44.461 32.96,44.33 32.691,44.08 C32.426,43.834 32.291,43.526 32.291,43.149 z M32.291,16.979 C32.291,16.614 32.426,16.288 32.691,16.042 C32.96,15.792 33.264,15.661 33.645,15.661 C34.01,15.661 34.314,15.792 34.563,16.042 C34.81,16.288 34.947,16.614 34.947,16.979 C34.947,17.322 34.81,17.629 34.563,17.875 C34.314,18.122 34.01,18.256 33.645,18.256 C33.286,18.256 32.96,18.122 32.691,17.875 C32.426,17.629 32.291,17.322 32.291,16.979 z M41.587,39.331 C41.587,38.982 41.722,38.662 41.987,38.413 C42.218,38.144 42.522,38.013 42.883,38.013 C43.248,38.013 43.552,38.144 43.821,38.413 C44.086,38.682 44.221,38.982 44.221,39.331 C44.221,39.674 44.086,39.997 43.821,40.243 C43.552,40.512 43.248,40.643 42.883,40.643 C42.522,40.643 42.218,40.512 41.987,40.243 C41.722,39.997 41.587,39.69 41.587,39.331 z M41.587,20.797 C41.587,20.451 41.722,20.128 41.987,19.878 C42.218,19.61 42.522,19.478 42.883,19.478 C43.248,19.478 43.552,19.61 43.821,19.878 C44.086,20.147 44.221,20.451 44.221,20.797 C44.221,21.139 44.086,21.462 43.821,21.731 C43.552,21.997 43.248,22.131 42.883,22.131 C42.522,22.131 42.218,21.997 41.987,21.731 C41.722,21.462 41.587,21.139 41.587,20.797 z M45.405,30.093 C45.405,29.728 45.539,29.402 45.786,29.136 C46.035,28.87 46.358,28.736 46.72,28.736 C47.066,28.736 47.37,28.87 47.619,29.136 C47.866,29.402 48,29.709 48,30.093 C48,30.435 47.866,30.739 47.619,30.989 C47.37,31.235 47.066,31.37 46.72,31.37 C46.358,31.37 46.035,31.235 45.786,30.989 C45.539,30.739 45.405,30.435 45.405,30.093 z M74.17,51.491 C74.17,51.837 74.304,52.141 74.55,52.387 C74.8,52.64 75.123,52.771 75.485,52.771 C75.83,52.771 76.134,52.64 76.381,52.387 C76.634,52.141 76.765,51.837 76.765,51.491 C76.765,51.11 76.634,50.806 76.381,50.538 C76.134,50.272 75.83,50.138 75.485,50.138 C75.123,50.138 74.8,50.272 74.55,50.538 C74.304,50.806 74.17,51.133 74.17,51.491 z M70.352,42.195 C70.352,42.541 70.486,42.864 70.755,43.133 C70.982,43.398 71.286,43.533 71.651,43.533 C72.013,43.533 72.317,43.398 72.586,43.133 C72.851,42.864 72.986,42.541 72.986,42.195 C72.986,41.853 72.851,41.546 72.586,41.283 C72.317,41.014 72.013,40.88 71.651,40.88 C71.286,40.88 70.982,41.014 70.755,41.283 C70.486,41.53 70.352,41.853 70.352,42.195 z M70.352,60.73 C70.352,61.094 70.486,61.398 70.755,61.648 C70.982,61.914 71.286,62.048 71.651,62.048 C72.013,62.048 72.317,61.914 72.586,61.648 C72.851,61.398 72.986,61.075 72.986,60.73 C72.986,60.387 72.851,60.08 72.586,59.814 C72.317,59.549 72.013,59.414 71.651,59.414 C71.286,59.414 70.982,59.549 70.755,59.814 C70.486,60.064 70.352,60.387 70.352,60.73 z M61.056,38.378 C61.056,38.723 61.19,39.027 61.459,39.277 C61.722,39.526 62.048,39.658 62.413,39.658 C62.771,39.658 63.078,39.526 63.325,39.277 C63.574,39.027 63.709,38.723 63.709,38.378 C63.709,38.019 63.574,37.693 63.325,37.443 C63.078,37.197 62.771,37.062 62.413,37.062 C62.029,37.062 61.722,37.197 61.459,37.443 C61.19,37.693 61.056,38.019 61.056,38.378 z M61.056,64.547 C61.056,64.931 61.19,65.235 61.459,65.485 C61.722,65.731 62.048,65.866 62.413,65.866 C62.771,65.866 63.078,65.731 63.325,65.485 C63.574,65.235 63.709,64.912 63.709,64.547 C63.709,64.205 63.574,63.898 63.325,63.651 C63.078,63.402 62.771,63.27 62.413,63.27 C62.029,63.27 61.722,63.402 61.459,63.651 C61.19,63.898 61.056,64.205 61.056,64.547 z M51.798,42.195 C51.798,42.541 51.933,42.864 52.198,43.133 C52.429,43.398 52.733,43.533 53.098,43.533 C53.459,43.533 53.766,43.398 54.032,43.133 C54.298,42.864 54.435,42.541 54.435,42.195 C54.435,41.853 54.298,41.546 54.032,41.283 C53.766,41.014 53.459,40.88 53.098,40.88 C52.733,40.88 52.429,41.014 52.198,41.283 C51.933,41.53 51.798,41.853 51.798,42.195 z M51.798,60.73 C51.798,61.094 51.933,61.398 52.198,61.648 C52.429,61.914 52.733,62.048 53.098,62.048 C53.459,62.048 53.766,61.914 54.032,61.648 C54.298,61.398 54.435,61.075 54.435,60.73 C54.435,60.387 54.298,60.08 54.032,59.814 C53.766,59.549 53.459,59.414 53.098,59.414 C52.733,59.414 52.429,59.549 52.198,59.814 C51.933,60.064 51.798,60.387 51.798,60.73 z M51.779,51.491 C51.779,51.837 51.894,52.141 52.198,52.352 C52.448,52.598 52.752,52.733 53.117,52.733 L59.302,52.733 L54.909,57.104 C54.643,57.354 54.509,57.638 54.509,58.003 C54.509,58.365 54.643,58.669 54.909,58.938 C55.178,59.203 55.485,59.338 55.843,59.338 C56.208,59.338 56.512,59.203 56.781,58.938 L61.11,54.602 L61.11,60.749 C61.11,61.114 61.248,61.437 61.517,61.683 C61.779,61.933 62.106,62.067 62.47,62.067 C62.829,62.067 63.136,61.933 63.382,61.683 C63.632,61.437 63.766,61.114 63.766,60.749 L63.766,54.566 L68.138,58.957 C68.387,59.222 68.71,59.357 69.053,59.357 C69.398,59.357 69.722,59.222 69.99,58.957 C70.218,58.688 70.333,58.384 70.333,58.019 C70.333,57.658 70.218,57.354 69.99,57.123 L65.619,52.752 L71.782,52.752 C72.125,52.752 72.432,52.618 72.678,52.371 C72.928,52.122 73.062,51.818 73.062,51.475 C73.062,51.091 72.928,50.784 72.678,50.522 C72.432,50.253 72.125,50.118 71.782,50.118 L65.619,50.118 L69.968,45.766 C70.202,45.539 70.314,45.232 70.314,44.867 C70.314,44.506 70.202,44.202 69.968,43.936 C69.702,43.667 69.379,43.533 69.034,43.533 C68.691,43.533 68.387,43.667 68.118,43.936 L63.747,48.323 L63.747,42.16 C63.747,41.779 63.616,41.472 63.366,41.203 C63.12,40.934 62.813,40.803 62.451,40.803 C62.067,40.803 61.763,40.934 61.494,41.203 C61.226,41.472 61.094,41.795 61.094,42.16 L61.094,48.285 L56.762,43.952 C56.493,43.686 56.189,43.552 55.827,43.552 C55.462,43.552 55.158,43.686 54.89,43.952 C54.624,44.221 54.49,44.525 54.49,44.89 C54.49,45.251 54.624,45.558 54.89,45.786 L59.245,50.138 L53.075,50.138 C52.717,50.138 52.41,50.272 52.163,50.538 C51.914,50.806 51.779,51.133 51.779,51.491 z M48,51.491 C48,51.837 48.115,52.141 48.403,52.41 C48.65,52.656 48.973,52.794 49.315,52.794 C49.661,52.794 49.984,52.656 50.234,52.41 C50.48,52.16 50.618,51.856 50.618,51.491 C50.618,51.11 50.48,50.806 50.234,50.538 C49.984,50.272 49.661,50.138 49.299,50.138 C48.934,50.138 48.63,50.272 48.381,50.538 C48.134,50.806 48,51.133 48,51.491 z M45.405,65.965 C45.405,66.31 45.539,66.614 45.786,66.864 C46.035,67.11 46.358,67.242 46.72,67.242 C47.066,67.242 47.37,67.11 47.619,66.864 C47.866,66.614 48,66.31 48,65.965 C48,65.584 47.866,65.28 47.619,65.011 C47.37,64.742 47.066,64.611 46.72,64.611 C46.358,64.611 46.035,64.742 45.786,65.011 C45.539,65.28 45.405,65.603 45.405,65.965 z M41.587,56.669 C41.587,57.014 41.722,57.338 41.987,57.603 C42.218,57.872 42.522,58.006 42.883,58.006 C43.248,58.006 43.552,57.872 43.821,57.603 C44.086,57.338 44.221,57.014 44.221,56.669 C44.221,56.326 44.086,56.022 43.821,55.754 C43.552,55.485 43.248,55.354 42.883,55.354 C42.522,55.354 42.218,55.485 41.987,55.754 C41.722,56 41.587,56.326 41.587,56.669 z M41.587,75.203 C41.587,75.568 41.722,75.872 41.987,76.122 C42.218,76.387 42.522,76.522 42.883,76.522 C43.248,76.522 43.552,76.387 43.821,76.122 C44.086,75.872 44.221,75.546 44.221,75.203 C44.221,74.861 44.086,74.557 43.821,74.288 C43.552,74.019 43.248,73.885 42.883,73.885 C42.522,73.885 42.218,74.019 41.987,74.288 C41.722,74.534 41.587,74.861 41.587,75.203 z M32.291,52.851 C32.291,53.197 32.426,53.501 32.691,53.75 C32.96,53.997 33.286,54.131 33.645,54.131 C34.01,54.131 34.314,53.997 34.563,53.75 C34.81,53.501 34.947,53.197 34.947,52.851 C34.947,52.49 34.81,52.166 34.563,51.92 C34.314,51.667 34.01,51.536 33.645,51.536 C33.264,51.536 32.96,51.667 32.691,51.92 C32.426,52.166 32.291,52.49 32.291,52.851 z M32.291,79.021 C32.291,79.402 32.426,79.709 32.691,79.955 C32.96,80.205 33.286,80.339 33.645,80.339 C34.01,80.339 34.314,80.205 34.563,79.955 C34.81,79.709 34.947,79.386 34.947,79.021 C34.947,78.678 34.81,78.371 34.563,78.125 C34.314,77.878 34.01,77.741 33.645,77.741 C33.264,77.741 32.96,77.878 32.691,78.125 C32.426,78.371 32.291,78.678 32.291,79.021 z M23.034,56.669 C23.034,57.014 23.168,57.338 23.437,57.603 C23.664,57.872 23.968,58.006 24.333,58.006 C24.694,58.006 24.998,57.872 25.267,57.603 C25.536,57.338 25.667,57.014 25.667,56.669 C25.667,56.326 25.536,56.022 25.267,55.754 C24.998,55.485 24.694,55.354 24.333,55.354 C23.968,55.354 23.664,55.485 23.437,55.754 C23.168,56 23.034,56.326 23.034,56.669 z M23.034,75.203 C23.034,75.568 23.168,75.872 23.437,76.122 C23.664,76.387 23.968,76.522 24.333,76.522 C24.694,76.522 24.998,76.387 25.267,76.122 C25.536,75.872 25.667,75.546 25.667,75.203 C25.667,74.861 25.536,74.557 25.267,74.288 C24.998,74.019 24.694,73.885 24.333,73.885 C23.968,73.885 23.664,74.019 23.437,74.288 C23.168,74.534 23.034,74.861 23.034,75.203 z M23.014,65.965 C23.014,66.31 23.13,66.614 23.437,66.826 C23.683,67.072 23.99,67.206 24.349,67.206 L30.534,67.206 L26.147,71.578 C25.878,71.824 25.744,72.109 25.744,72.474 C25.744,72.838 25.878,73.142 26.147,73.411 C26.413,73.677 26.717,73.811 27.082,73.811 C27.443,73.811 27.75,73.677 28.013,73.411 L32.349,69.078 L32.349,75.226 C32.349,75.584 32.483,75.91 32.749,76.157 C33.018,76.406 33.341,76.538 33.702,76.538 C34.067,76.538 34.371,76.406 34.621,76.157 C34.867,75.91 35.002,75.584 35.002,75.226 L35.002,69.04 L39.373,73.427 C39.619,73.696 39.946,73.827 40.288,73.827 C40.63,73.827 40.957,73.696 41.222,73.427 C41.453,73.162 41.568,72.858 41.568,72.493 C41.568,72.131 41.453,71.824 41.222,71.597 L36.854,67.226 L43.018,67.226 C43.363,67.226 43.667,67.091 43.917,66.842 C44.163,66.595 44.298,66.288 44.298,65.946 C44.298,65.565 44.163,65.261 43.917,64.992 C43.667,64.726 43.363,64.592 43.018,64.592 L36.854,64.592 L41.206,60.24 C41.434,60.01 41.549,59.702 41.549,59.344 C41.549,58.979 41.434,58.675 41.206,58.406 C40.938,58.141 40.614,58.006 40.269,58.006 C39.926,58.006 39.619,58.141 39.354,58.406 L34.982,62.797 L34.982,56.634 C34.982,56.25 34.848,55.942 34.598,55.677 C34.352,55.411 34.045,55.277 33.686,55.277 C33.302,55.277 32.995,55.411 32.733,55.677 C32.464,55.942 32.33,56.269 32.33,56.634 L32.33,62.758 L27.997,58.426 C27.728,58.157 27.424,58.026 27.059,58.026 C26.701,58.026 26.394,58.157 26.125,58.426 C25.859,58.694 25.725,58.998 25.725,59.36 C25.725,59.725 25.859,60.029 26.125,60.256 L30.477,64.611 L24.314,64.611 C23.949,64.611 23.645,64.742 23.395,65.011 C23.149,65.28 23.014,65.603 23.014,65.965 z M19.235,65.965 C19.235,66.31 19.35,66.614 19.635,66.883 C19.885,67.13 20.208,67.264 20.554,67.264 C20.896,67.264 21.222,67.13 21.469,66.883 C21.718,66.634 21.85,66.33 21.85,65.965 C21.85,65.584 21.718,65.28 21.469,65.011 C21.222,64.742 20.896,64.611 20.531,64.611 C20.173,64.611 19.866,64.742 19.619,65.011 C19.37,65.28 19.235,65.603 19.235,65.965 z" fill="#000000"/>
  </g>
</svg>
