<?xml version="1.0" encoding="UTF-8"?>
<!DOCTYPE svg PUBLIC "-//W3C//DTD SVG 1.1//EN" "http://www.w3.org/Graphics/SVG/1.1/DTD/svg11.dtd">
<svg version="1.1" xmlns="http://www.w3.org/2000/svg" xmlns:xlink="http://www.w3.org/1999/xlink" x="0" y="0"  viewBox="0, 0, 96, 96">
  <g id="Layer_1">
    <path d="M84.459,38.014 C84.459,37.409 84.459,36.804 84.459,36.199 C84.459,20.617 71.751,8.062 56.321,8.062 C46.79,8.062 38.167,12.751 33.022,20.617 C31.813,20.314 30.45,20.165 29.091,20.165 C14.868,20.165 3.373,31.66 3.373,45.883 C3.373,45.883 3.373,45.883 3.373,46.033 C3.373,46.033 3.373,46.186 3.373,46.186 C3.373,60.406 14.868,71.904 29.091,71.904 C31.357,71.904 33.325,69.937 33.325,67.667 C33.325,65.397 31.51,63.43 29.091,63.43 C19.71,63.43 12.146,56.019 11.843,46.79 C11.843,46.488 11.993,46.335 11.993,46.033 C11.993,41.344 13.96,36.957 16.988,33.93 C20.165,30.905 24.399,28.938 29.091,28.938 C29.998,28.938 30.753,28.938 31.66,29.091 C34.385,29.696 36.804,31.208 38.771,32.57 C40.739,33.78 43.311,33.325 44.67,31.357 C45.883,29.393 45.428,26.821 43.461,25.459 C42.706,25.003 41.799,24.399 40.888,23.794 C44.521,19.105 50.117,16.383 56.321,16.383 C67.062,16.383 75.835,25.156 75.835,35.897 C75.835,36.957 75.686,38.014 75.533,39.227 C75.23,41.041 76.138,43.009 77.955,43.763 C81.584,45.428 83.854,49.06 83.854,52.991 C83.854,58.591 79.315,63.127 73.718,63.127 C71.449,63.127 69.481,65.095 69.481,67.364 C69.481,69.634 71.299,71.601 73.718,71.601 C84.007,71.601 92.478,63.28 92.627,53.447 C92.627,47.242 89.45,41.493 84.459,38.014 z M49.362,83.705 C49.362,81.363 47.467,79.467 45.125,79.467 C42.784,79.467 40.888,81.363 40.888,83.705 C40.888,86.043 42.784,87.938 45.125,87.938 C47.467,87.938 49.362,86.043 49.362,83.705 z M64.945,77.198 C64.945,74.856 63.049,72.961 60.708,72.961 C58.367,72.961 56.471,74.856 56.471,77.198 C56.471,79.539 58.367,81.435 60.708,81.435 C63.049,81.435 64.945,79.539 64.945,77.198 z M45.125,50.875 C47.395,50.875 49.362,52.842 49.362,55.112 L49.362,70.541 C49.362,72.961 47.545,74.928 45.125,74.928 C42.706,74.928 40.888,72.961 40.888,70.694 L40.888,55.112 C40.888,52.689 42.856,50.875 45.125,50.875 z M60.708,43.158 C62.978,43.158 64.945,45.125 64.945,47.395 L64.945,62.825 C64.945,65.247 62.978,67.062 60.708,67.062 C58.289,67.062 56.471,65.095 56.471,62.825 L56.471,47.395 C56.471,44.976 58.438,43.158 60.708,43.158 z" fill="#000000"/>
  </g>
</svg>
