<?xml version="1.0" encoding="UTF-8"?>
<!DOCTYPE svg PUBLIC "-//W3C//DTD SVG 1.1//EN" "http://www.w3.org/Graphics/SVG/1.1/DTD/svg11.dtd">
<svg version="1.1" xmlns="http://www.w3.org/2000/svg" xmlns:xlink="http://www.w3.org/1999/xlink" x="0" y="0"  viewBox="0, 0, 96, 96">
  <g id="Layer_1">
    <path d="M2.94,72.888 C2.94,73.591 3.184,74.204 3.704,74.696 C4.228,75.187 4.87,75.434 5.638,75.434 L63.05,75.434 C63.789,75.434 64.402,75.187 64.922,74.696 C65.446,74.204 65.69,73.623 65.69,72.888 C65.69,72.149 65.446,71.535 64.922,71.044 C64.402,70.524 63.789,70.276 63.05,70.276 L5.638,70.276 C4.87,70.276 4.228,70.524 3.704,71.044 C3.184,71.568 2.94,72.149 2.94,72.888 z M10.979,63.249 C10.979,63.956 11.223,64.569 11.746,65.032 C12.267,65.584 12.88,65.86 13.587,65.86 L71.028,65.86 C71.735,65.86 72.348,65.613 72.839,65.093 C73.331,64.569 73.578,63.956 73.578,63.249 C73.578,62.546 73.331,61.932 72.871,61.441 C72.38,60.95 71.796,60.702 71.06,60.702 L13.615,60.702 C12.88,60.702 12.267,60.95 11.775,61.441 C11.255,61.961 10.979,62.546 10.979,63.249 z M11.377,55.885 C11.377,56.161 11.531,56.286 11.868,56.286 L16.255,56.286 C16.471,56.286 16.686,56.132 16.901,55.795 C17.637,54.199 18.709,52.911 20.151,51.896 C21.597,50.884 23.19,50.303 24.94,50.178 L26.597,49.962 C26.934,49.962 27.117,49.779 27.117,49.41 L27.333,47.846 C27.67,44.531 29.051,41.769 31.537,39.531 C34.023,37.321 36.939,36.187 40.314,36.187 C43.629,36.187 46.542,37.292 49.028,39.499 C51.514,41.708 52.924,44.441 53.264,47.724 L53.476,49.503 C53.476,49.84 53.662,50.027 54.06,50.027 L59,50.027 C60.966,50.027 62.774,50.547 64.402,51.62 C66.027,52.663 67.225,54.077 68.022,55.824 C68.237,56.161 68.42,56.315 68.635,56.315 L73.055,56.315 C73.453,56.315 73.607,56.1 73.453,55.609 L72.839,53.922 C75.171,51.038 76.308,47.663 76.308,43.767 C76.308,41.586 75.878,39.531 75.049,37.536 C74.22,35.542 73.087,33.852 71.645,32.41 C70.231,30.968 68.513,29.835 66.519,28.974 C64.524,28.116 62.469,27.747 60.259,27.747 C55.535,27.747 51.607,29.465 48.536,32.902 C45.928,31.614 43.198,30.968 40.314,30.968 C36.017,30.968 32.182,32.32 28.836,35.021 C25.492,37.719 23.344,41.156 22.393,45.36 C16.93,46.802 13.249,50.21 11.406,55.641 C11.377,55.673 11.377,55.763 11.377,55.885 z M16.349,82.307 C16.349,83.043 16.625,83.656 17.177,84.148 C17.669,84.668 18.25,84.944 18.985,84.944 L76.491,84.944 C77.198,84.944 77.811,84.7 78.331,84.18 C78.855,83.656 79.099,83.043 79.099,82.307 C79.099,81.601 78.855,81.016 78.331,80.528 C77.811,80.066 77.198,79.822 76.491,79.822 L18.985,79.822 C18.25,79.822 17.637,80.066 17.116,80.528 C16.593,81.016 16.349,81.601 16.349,82.307 z M36.509,22.56 C36.509,23.299 36.753,23.88 37.215,24.371 L39.21,26.337 C39.73,26.889 40.314,27.166 40.989,27.166 C41.663,27.166 42.277,26.918 42.829,26.398 C43.353,25.875 43.629,25.261 43.629,24.526 C43.629,23.79 43.382,23.145 42.861,22.592 L40.896,20.72 C40.404,20.199 39.791,19.923 39.055,19.923 C38.32,19.923 37.706,20.167 37.215,20.691 C36.753,21.182 36.509,21.825 36.509,22.56 z M52.834,36.001 C54.889,33.917 57.375,32.902 60.288,32.902 C63.297,32.902 65.873,33.978 67.993,36.094 C70.109,38.211 71.182,40.79 71.182,43.767 C71.182,45.761 70.691,47.602 69.679,49.288 C66.763,46.375 63.204,44.933 59.032,44.933 L57.988,44.933 C57.099,41.31 55.381,38.333 52.834,36.001 z M57.741,19.952 C57.741,20.659 57.988,21.272 58.48,21.764 C58.971,22.255 59.553,22.499 60.288,22.499 C61.056,22.499 61.701,22.255 62.221,21.764 C62.745,21.272 62.989,20.691 62.989,19.952 L62.989,13.664 C62.989,12.957 62.713,12.344 62.193,11.82 C61.64,11.3 60.995,11.056 60.259,11.056 C59.553,11.056 58.939,11.3 58.448,11.82 C57.956,12.344 57.712,12.957 57.712,13.664 L57.712,19.952 z M74.59,26.918 C74.59,27.593 74.834,28.238 75.325,28.759 C76.462,29.863 77.718,29.863 79.099,28.759 L83.489,24.371 C83.978,23.819 84.225,23.177 84.225,22.409 C84.225,21.703 83.978,21.089 83.489,20.598 C82.998,20.106 82.385,19.862 81.678,19.862 C80.942,19.862 80.326,20.106 79.838,20.598 L75.357,25.107 C74.834,25.659 74.59,26.276 74.59,26.918 z M77.076,63.127 C77.076,63.866 77.352,64.479 77.872,64.971 L79.838,66.965 C80.326,67.453 80.942,67.701 81.617,67.701 C82.259,67.701 82.873,67.453 83.489,66.965 C83.978,66.442 84.225,65.767 84.225,65 C84.225,64.325 83.978,63.741 83.489,63.281 L81.495,61.255 C80.942,60.767 80.326,60.519 79.651,60.519 C78.916,60.519 78.302,60.767 77.811,61.287 C77.32,61.778 77.076,62.392 77.076,63.127 z M81.617,43.767 C81.617,44.502 81.893,45.116 82.413,45.607 C82.873,46.128 83.489,46.375 84.225,46.375 L90.513,46.375 C91.22,46.375 91.833,46.128 92.325,45.607 C92.816,45.084 93.06,44.47 93.06,43.767 C93.06,43.028 92.816,42.415 92.325,41.923 C91.833,41.432 91.252,41.188 90.513,41.188 L84.225,41.188 C83.489,41.188 82.873,41.432 82.385,41.956 C81.861,42.447 81.617,43.06 81.617,43.767 z" fill="#000000"/>
  </g>
</svg>
