<?xml version="1.0" encoding="UTF-8"?>
<!DOCTYPE svg PUBLIC "-//W3C//DTD SVG 1.1//EN" "http://www.w3.org/Graphics/SVG/1.1/DTD/svg11.dtd">
<svg version="1.1" xmlns="http://www.w3.org/2000/svg" xmlns:xlink="http://www.w3.org/1999/xlink" x="0" y="0"  viewBox="0, 0, 96, 96">
  <g id="Layer_1">
    <path d="M69.586,24.475 L68.21,24.475 C67.708,22.472 66.958,20.22 65.707,17.842 C61.577,10.084 54.195,5.83 45.059,5.83 C35.8,5.83 28.416,10.084 24.411,17.842 C23.16,20.345 22.41,22.848 21.909,24.85 C12.149,26.601 5.391,34.361 5.391,44.497 C5.391,51.003 8.52,57.01 13.65,60.638 C15.902,62.265 19.031,61.765 20.658,59.513 C22.285,57.26 21.784,54.131 19.531,52.505 C17.029,50.753 15.528,47.75 15.528,44.497 C15.528,38.49 19.907,34.485 26.414,34.485 C29.167,34.485 31.294,32.358 31.419,29.605 C31.419,28.228 32.171,15.714 45.059,15.714 C50.566,15.714 54.445,17.842 56.823,22.097 C58.824,25.726 59.075,29.605 59.075,29.605 C59.199,32.233 61.452,34.361 64.079,34.361 L69.711,34.361 C76.218,34.361 80.598,38.364 80.598,44.371 C80.598,49.377 77.344,53.13 72.464,54.131 C69.711,54.632 67.96,57.26 68.46,60.013 C68.961,62.391 70.962,64.017 73.34,64.017 C73.715,64.017 73.965,64.017 74.341,63.893 C83.977,62.015 90.609,54.007 90.609,44.245 C90.484,32.984 81.724,24.475 69.586,24.475 z M34.423,45.498 C36.801,46.123 38.176,48.5 37.551,50.878 L30.544,76.781 C30.043,78.783 28.166,80.034 26.289,80.034 C25.914,80.034 25.538,80.034 25.163,79.91 C22.785,79.284 21.409,76.907 22.035,74.529 L29.042,48.626 C29.667,46.248 32.045,44.872 34.423,45.498 z M46.561,55.634 C48.813,56.384 50.19,58.761 49.689,61.014 L42.682,86.917 C42.181,88.919 40.304,90.17 38.427,90.17 C38.052,90.17 37.676,90.17 37.301,90.046 C34.923,89.42 33.547,87.042 34.173,84.665 L41.18,58.761 C41.805,56.384 44.183,55.008 46.561,55.634 z M64.079,45.498 C66.457,46.123 67.834,48.5 67.208,50.878 L60.2,76.781 C59.7,78.783 57.824,80.034 55.946,80.034 C55.57,80.034 55.196,80.034 54.82,79.91 C52.442,79.284 51.066,76.907 51.691,74.529 L58.699,48.626 C59.325,46.248 61.703,44.872 64.079,45.498 z" fill="#000000"/>
  </g>
</svg>
