<?xml version="1.0" encoding="UTF-8"?>
<!DOCTYPE svg PUBLIC "-//W3C//DTD SVG 1.1//EN" "http://www.w3.org/Graphics/SVG/1.1/DTD/svg11.dtd">
<svg version="1.1" xmlns="http://www.w3.org/2000/svg" xmlns:xlink="http://www.w3.org/1999/xlink" x="0" y="0"  viewBox="0, 0, 96, 96">
  <g id="Layer_1">
    <path d="M3.786,28.49 C3.786,27.888 4.01,27.35 4.419,26.912 C4.829,26.467 5.334,26.246 5.936,26.246 C6.534,26.246 7.072,26.467 7.485,26.912 C7.894,27.35 8.115,27.859 8.115,28.49 C8.115,29.091 7.894,29.594 7.485,30.006 C7.072,30.416 6.534,30.637 5.965,30.637 C5.398,30.637 4.861,30.416 4.448,30.006 C3.974,29.565 3.786,29.056 3.786,28.49 z M10.042,28.49 C10.042,27.888 10.259,27.35 10.672,26.912 C11.082,26.467 11.59,26.246 12.189,26.246 L22.39,26.246 L15.19,19.043 C14.746,18.666 14.525,18.16 14.525,17.562 C14.525,16.96 14.746,16.454 15.19,16.013 C15.632,15.568 16.138,15.35 16.736,15.35 C17.338,15.35 17.843,15.568 18.285,16.013 L25.453,23.184 L25.453,13.043 C25.453,12.442 25.677,11.907 26.118,11.462 C26.563,11.024 27.066,10.8 27.696,10.8 C28.298,10.8 28.803,11.024 29.213,11.462 C29.622,11.907 29.846,12.413 29.846,13.043 L29.846,23.245 L37.082,15.981 C37.52,15.539 38.029,15.318 38.595,15.318 C39.162,15.318 39.699,15.539 40.144,15.981 C40.522,16.422 40.71,16.928 40.71,17.53 C40.71,18.128 40.522,18.634 40.144,19.014 L32.941,26.218 L43.146,26.218 C43.712,26.218 44.221,26.438 44.63,26.877 C45.04,27.322 45.261,27.827 45.261,28.458 C45.261,29.027 45.04,29.533 44.63,29.942 C44.221,30.352 43.712,30.576 43.146,30.576 L32.941,30.576 L40.173,37.808 C40.554,38.186 40.746,38.694 40.746,39.293 C40.746,39.891 40.554,40.4 40.173,40.842 C39.734,41.283 39.197,41.504 38.63,41.504 C38.058,41.504 37.52,41.283 37.11,40.842 L29.878,33.578 L29.878,43.811 C29.878,44.413 29.658,44.947 29.245,45.357 C28.835,45.766 28.33,45.99 27.731,45.99 C27.13,45.99 26.592,45.766 26.15,45.357 C25.709,44.947 25.488,44.413 25.488,43.811 L25.488,33.638 L18.317,40.81 C17.875,41.251 17.37,41.472 16.768,41.472 C16.17,41.472 15.664,41.251 15.219,40.81 C14.781,40.365 14.557,39.862 14.557,39.261 C14.557,38.659 14.781,38.186 15.219,37.776 L22.486,30.544 L12.253,30.544 C11.651,30.544 11.146,30.323 10.733,29.914 C10.23,29.565 10.042,29.056 10.042,28.49 z M10.074,43.776 C10.074,43.21 10.294,42.672 10.733,42.262 C11.114,41.821 11.619,41.597 12.221,41.597 C12.819,41.597 13.325,41.821 13.77,42.262 C14.208,42.707 14.432,43.21 14.432,43.776 C14.432,44.349 14.208,44.886 13.77,45.296 C13.325,45.738 12.819,45.958 12.221,45.958 C11.619,45.958 11.114,45.738 10.733,45.296 C10.294,44.886 10.074,44.378 10.074,43.776 z M10.074,13.107 C10.074,12.538 10.294,12 10.733,11.59 C11.114,11.146 11.619,10.925 12.221,10.925 C12.819,10.925 13.325,11.146 13.77,11.59 C14.208,12.032 14.432,12.538 14.432,13.107 C14.432,13.677 14.208,14.211 13.77,14.656 C13.325,15.094 12.819,15.318 12.221,15.318 C11.619,15.318 11.114,15.094 10.733,14.656 C10.294,14.211 10.074,13.677 10.074,13.107 z M25.392,6.79 C25.392,6.189 25.616,5.651 26.054,5.242 C26.499,4.832 27.002,4.611 27.635,4.611 C28.234,4.611 28.742,4.832 29.152,5.242 C29.565,5.651 29.782,6.189 29.782,6.79 C29.782,7.357 29.565,7.862 29.152,8.272 C28.742,8.685 28.234,8.906 27.635,8.906 C27.034,8.906 26.499,8.685 26.054,8.272 C25.616,7.862 25.392,7.357 25.392,6.79 z M40.774,43.776 C40.774,43.21 40.995,42.672 41.44,42.262 C41.818,41.821 42.323,41.597 42.925,41.597 C43.523,41.597 44.029,41.821 44.47,42.262 C44.915,42.707 45.136,43.21 45.136,43.776 C45.136,44.349 44.915,44.886 44.47,45.296 C44.029,45.738 43.523,45.958 42.925,45.958 C42.323,45.958 41.818,45.738 41.44,45.296 C40.995,44.886 40.774,44.378 40.774,43.776 z M40.774,13.107 C40.774,12.538 40.995,12 41.44,11.59 C41.818,11.146 42.323,10.925 42.925,10.925 C43.523,10.925 44.029,11.146 44.47,11.59 C44.915,12.032 45.136,12.538 45.136,13.107 C45.136,13.677 44.915,14.211 44.47,14.656 C44.029,15.094 43.523,15.318 42.925,15.318 C42.323,15.318 41.818,15.094 41.44,14.656 C40.995,14.211 40.774,13.677 40.774,13.107 z M47.094,28.49 C47.094,27.888 47.315,27.35 47.725,26.912 C48.134,26.467 48.672,26.246 49.274,26.246 C49.84,26.246 50.349,26.467 50.758,26.912 C51.168,27.35 51.389,27.859 51.389,28.49 C51.389,29.056 51.168,29.565 50.758,29.974 C50.349,30.387 49.84,30.605 49.274,30.605 C48.672,30.605 48.134,30.387 47.725,29.974 C47.315,29.565 47.094,29.056 47.094,28.49 z M50.87,48.883 C50.87,48.285 51.088,47.75 51.501,47.306 C51.91,46.864 52.413,46.64 53.014,46.64 L63.219,46.64 L56.016,39.443 C55.574,39.062 55.35,38.557 55.35,37.955 C55.35,37.357 55.574,36.851 56.016,36.406 C56.461,35.968 56.963,35.744 57.565,35.744 C58.166,35.744 58.669,35.968 59.114,36.406 L66.282,43.578 L66.282,33.44 C66.282,32.838 66.502,32.301 66.947,31.859 C67.389,31.418 67.891,31.197 68.525,31.197 C69.126,31.197 69.632,31.418 70.042,31.859 C70.451,32.301 70.672,32.806 70.672,33.44 L70.672,43.642 L77.907,36.378 C78.349,35.933 78.854,35.712 79.424,35.712 C79.99,35.712 80.528,35.933 80.97,36.378 C81.35,36.819 81.539,37.325 81.539,37.923 C81.539,38.525 81.35,39.03 80.97,39.408 L73.77,46.611 L83.971,46.611 C84.541,46.611 85.046,46.832 85.456,47.277 C85.866,47.715 86.086,48.221 86.086,48.854 C86.086,49.421 85.866,49.926 85.456,50.339 C85.046,50.752 84.541,50.97 83.971,50.97 L73.77,50.97 L81.005,58.205 C81.379,58.582 81.571,59.088 81.571,59.69 C81.571,60.291 81.379,60.794 81.005,61.235 C80.56,61.68 80.022,61.898 79.456,61.898 C78.886,61.898 78.349,61.68 77.939,61.235 L70.707,53.971 L70.707,64.205 C70.707,64.806 70.483,65.344 70.07,65.754 C69.661,66.163 69.158,66.384 68.557,66.384 C67.955,66.384 67.421,66.163 66.976,65.754 C66.538,65.344 66.314,64.806 66.314,64.205 L66.314,54.035 L59.142,61.203 C58.704,61.645 58.195,61.869 57.594,61.869 C56.998,61.869 56.49,61.645 56.048,61.203 C55.606,60.762 55.386,60.256 55.386,59.654 C55.386,59.056 55.606,58.582 56.048,58.17 L63.312,50.938 L53.078,50.938 C52.477,50.938 51.974,50.717 51.562,50.307 C51.056,49.958 50.87,49.456 50.87,48.883 z M66.221,70.49 C66.221,69.923 66.442,69.414 66.883,69.005 C67.325,68.595 67.83,68.374 68.464,68.374 C69.062,68.374 69.568,68.595 69.978,69.005 C70.387,69.414 70.608,69.923 70.608,70.49 C70.608,71.091 70.387,71.629 69.978,72.038 C69.568,72.451 69.062,72.669 68.464,72.669 C67.862,72.669 67.325,72.451 66.883,72.038 C66.442,71.629 66.221,71.12 66.221,70.49 z M66.221,27.184 C66.221,26.586 66.442,26.048 66.883,25.635 C67.325,25.226 67.83,25.005 68.464,25.005 C69.062,25.005 69.568,25.226 69.978,25.635 C70.387,26.048 70.608,26.586 70.608,27.184 C70.608,27.754 70.387,28.259 69.978,28.669 C69.568,29.082 69.062,29.302 68.464,29.302 C67.862,29.302 67.325,29.082 66.883,28.669 C66.442,28.259 66.221,27.754 66.221,27.184 z M81.603,64.176 C81.603,63.603 81.824,63.066 82.266,62.656 C82.646,62.214 83.149,61.997 83.75,61.997 C84.352,61.997 84.854,62.214 85.299,62.656 C85.741,63.101 85.965,63.603 85.965,64.176 C85.965,64.742 85.741,65.28 85.299,65.69 C84.854,66.131 84.352,66.355 83.75,66.355 C83.149,66.355 82.646,66.131 82.266,65.69 C81.824,65.28 81.603,64.774 81.603,64.176 z M81.603,33.501 C81.603,32.934 81.824,32.397 82.266,31.984 C82.646,31.546 83.149,31.322 83.75,31.322 C84.352,31.322 84.854,31.546 85.299,31.984 C85.741,32.429 85.965,32.934 85.965,33.501 C85.965,34.07 85.741,34.608 85.299,35.05 C84.854,35.494 84.352,35.712 83.75,35.712 C83.149,35.712 82.646,35.494 82.266,35.05 C81.824,34.608 81.603,34.07 81.603,33.501 z M87.92,48.883 C87.92,48.285 88.144,47.75 88.554,47.306 C88.963,46.864 89.501,46.64 90.099,46.64 C90.669,46.64 91.174,46.864 91.584,47.306 C91.994,47.75 92.214,48.253 92.214,48.883 C92.214,49.456 91.994,49.958 91.584,50.371 C91.174,50.781 90.669,51.002 90.099,51.002 C89.501,51.002 88.963,50.781 88.554,50.371 C88.144,49.958 87.92,49.456 87.92,48.883 z M3.786,67.603 C3.786,68.17 3.974,68.678 4.448,69.12 C4.861,69.53 5.398,69.754 5.965,69.754 C6.534,69.754 7.072,69.53 7.485,69.12 C7.894,68.707 8.115,68.205 8.115,67.603 C8.115,66.973 7.894,66.464 7.485,66.026 C7.072,65.581 6.534,65.36 5.936,65.36 C5.334,65.36 4.829,65.581 4.419,66.026 C4.01,66.464 3.786,67.002 3.786,67.603 z M10.042,67.603 C10.042,67.002 10.259,66.464 10.672,66.026 C11.082,65.581 11.59,65.36 12.189,65.36 L22.39,65.36 L15.19,58.16 C14.746,57.779 14.525,57.277 14.525,56.675 C14.525,56.074 14.746,55.571 15.19,55.126 C15.632,54.685 16.138,54.461 16.736,54.461 C17.338,54.461 17.843,54.685 18.285,55.126 L25.453,62.298 L25.453,52.157 C25.453,51.558 25.677,51.021 26.118,50.576 C26.563,50.138 27.066,49.917 27.696,49.917 C28.298,49.917 28.803,50.138 29.213,50.576 C29.622,51.021 29.846,51.523 29.846,52.157 L29.846,62.358 L37.082,55.098 C37.52,54.653 38.029,54.432 38.595,54.432 C39.162,54.432 39.699,54.653 40.144,55.098 C40.522,55.536 40.71,56.042 40.71,56.643 C40.71,57.242 40.522,57.75 40.144,58.128 L32.941,65.331 L43.146,65.331 C43.712,65.331 44.221,65.552 44.63,65.99 C45.04,66.435 45.261,66.938 45.261,67.574 C45.261,68.141 45.04,68.643 44.63,69.056 C44.221,69.466 43.712,69.69 43.146,69.69 L32.941,69.69 L40.173,76.922 C40.554,77.299 40.746,77.808 40.746,78.41 C40.746,79.005 40.554,79.514 40.173,79.952 C39.734,80.397 39.197,80.618 38.63,80.618 C38.058,80.618 37.52,80.397 37.11,79.952 L29.878,72.691 L29.878,82.925 C29.878,83.526 29.658,84.061 29.245,84.474 C28.835,84.883 28.33,85.104 27.731,85.104 C27.13,85.104 26.592,84.883 26.15,84.474 C25.709,84.061 25.488,83.526 25.488,82.925 L25.488,72.755 L18.317,79.923 C17.875,80.365 17.37,80.589 16.768,80.589 C16.17,80.589 15.664,80.365 15.219,79.923 C14.781,79.478 14.557,78.976 14.557,78.374 C14.557,77.773 14.781,77.299 15.219,76.89 L22.486,69.658 L12.253,69.658 C11.651,69.658 11.146,69.437 10.733,69.024 C10.23,68.678 10.042,68.17 10.042,67.603 z M10.074,82.89 C10.074,82.323 10.294,81.786 10.733,81.376 C11.114,80.934 11.619,80.71 12.221,80.71 C12.819,80.71 13.325,80.934 13.77,81.376 C14.208,81.821 14.432,82.323 14.432,82.89 C14.432,83.462 14.208,84 13.77,84.41 C13.325,84.851 12.819,85.069 12.221,85.069 C11.619,85.069 11.114,84.851 10.733,84.41 C10.294,84 10.074,83.491 10.074,82.89 z M25.392,89.21 C25.392,88.643 25.616,88.134 26.054,87.725 C26.499,87.312 27.002,87.094 27.635,87.094 C28.234,87.094 28.742,87.312 29.152,87.725 C29.565,88.134 29.782,88.643 29.782,89.21 C29.782,89.811 29.565,90.349 29.152,90.758 C28.742,91.168 28.234,91.389 27.635,91.389 C27.034,91.389 26.499,91.168 26.054,90.758 C25.616,90.349 25.392,89.84 25.392,89.21 z M40.774,82.89 C40.774,82.323 40.995,81.786 41.44,81.376 C41.818,80.934 42.323,80.71 42.925,80.71 C43.523,80.71 44.029,80.934 44.47,81.376 C44.915,81.821 45.136,82.323 45.136,82.89 C45.136,83.462 44.915,84 44.47,84.41 C44.029,84.851 43.523,85.069 42.925,85.069 C42.323,85.069 41.818,84.851 41.44,84.41 C40.995,84 40.774,83.491 40.774,82.89 z M47.094,67.603 C47.094,67.002 47.315,66.464 47.725,66.026 C48.134,65.581 48.672,65.36 49.274,65.36 C49.84,65.36 50.349,65.581 50.758,66.026 C51.168,66.464 51.389,66.973 51.389,67.603 C51.389,68.17 51.168,68.678 50.758,69.088 C50.349,69.501 49.84,69.718 49.274,69.718 C48.672,69.718 48.134,69.501 47.725,69.088 C47.315,68.678 47.094,68.17 47.094,67.603 z" fill="#000000"/>
  </g>
</svg>
