<?xml version="1.0" encoding="UTF-8"?>
<!DOCTYPE svg PUBLIC "-//W3C//DTD SVG 1.1//EN" "http://www.w3.org/Graphics/SVG/1.1/DTD/svg11.dtd">
<svg version="1.1" xmlns="http://www.w3.org/2000/svg" xmlns:xlink="http://www.w3.org/1999/xlink" x="0" y="0"  viewBox="0, 0, 96, 96">
  <g id="Layer_1">
    <path d="M48.018,25.237 C51.701,25.237 54.713,22.225 54.713,18.543 L54.713,11.848 C54.713,8.165 51.701,5.152 48.018,5.152 C44.336,5.152 41.323,8.165 41.323,11.848 L41.323,18.543 C41.323,22.392 44.336,25.237 48.018,25.237 z M48.018,39.631 C50.194,39.631 52.37,40.469 53.876,42.142 C55.55,43.648 56.387,45.824 56.387,48 C56.387,50.176 55.383,52.352 53.876,53.858 C52.37,55.531 50.194,56.369 48.018,56.369 C45.843,56.369 43.666,55.365 42.16,53.858 C40.487,52.352 39.649,50.176 39.649,48 C39.649,45.824 40.653,43.648 42.16,42.142 C43.666,40.469 45.843,39.631 48.018,39.631 z M48.018,70.763 C51.701,70.763 54.713,73.608 54.713,77.457 L54.713,84.152 C54.713,87.835 51.701,90.848 48.018,90.848 C44.336,90.848 41.323,87.835 41.323,84.152 L41.323,77.457 C41.323,73.775 44.336,70.763 48.018,70.763 z M73.459,39.967 C71.116,39.967 68.94,38.795 67.601,36.618 C65.76,33.439 66.931,29.255 70.112,27.413 L75.97,24.065 C79.149,22.225 83.333,23.397 85.175,26.576 C87.016,29.757 85.844,33.941 82.664,35.782 L76.806,39.129 C75.802,39.631 74.63,39.967 73.459,39.967 z M19.231,56.871 C22.41,55.029 26.594,56.201 28.436,59.382 C30.277,62.561 29.105,66.745 25.925,68.587 L20.067,71.935 C19.063,72.437 17.891,72.771 16.72,72.771 C14.377,72.771 12.033,71.599 10.862,69.424 C9.021,66.243 10.192,62.059 13.372,60.218 L19.231,56.871 z M82.664,60.218 C85.844,62.059 87.016,66.243 85.175,69.424 C83.835,71.599 81.66,72.771 79.317,72.771 C78.145,72.771 76.973,72.603 75.97,71.935 L70.112,68.587 C66.931,66.745 65.76,62.561 67.601,59.382 C69.442,56.201 73.626,55.029 76.806,56.871 L82.664,60.218 z M25.925,27.58 C29.105,29.421 30.277,33.439 28.436,36.786 C27.096,38.962 24.921,40.133 22.578,40.133 C21.406,40.133 20.235,39.967 19.231,39.297 L13.372,35.949 C10.025,34.108 9.021,30.091 10.862,26.744 C12.703,23.397 16.887,22.392 20.067,24.233 L25.925,27.58 z" fill="#000000"/>
  </g>
</svg>
