<?xml version="1.0" encoding="UTF-8"?>
<!DOCTYPE svg PUBLIC "-//W3C//DTD SVG 1.1//EN" "http://www.w3.org/Graphics/SVG/1.1/DTD/svg11.dtd">
<svg version="1.1" xmlns="http://www.w3.org/2000/svg" xmlns:xlink="http://www.w3.org/1999/xlink" x="0" y="0"  viewBox="0, 0, 96, 96">
  <g id="Layer_1_Copy">
    <path d="M36.732,74.37 C35.947,74.37 35.262,74.763 34.771,75.351 C33.888,76.528 30.847,80.745 30.847,83.689 C30.847,87.514 33.79,89.869 36.732,89.869 C39.577,89.869 42.618,87.514 42.618,83.689 C42.618,80.647 39.675,76.528 38.694,75.351 C38.204,74.665 37.517,74.37 36.732,74.37 z M28.885,63.09 C29.572,63.973 31.828,67.111 31.828,69.466 C31.828,72.506 29.572,74.272 27.316,74.272 C25.059,74.272 22.804,72.408 22.804,69.466 C22.804,67.21 25.059,63.973 25.746,63.09 C26.531,62.109 28.101,62.109 28.885,63.09 z M42.716,57.303 C44.384,57.303 46.443,62.109 46.443,63.384 C46.443,65.836 44.58,67.308 42.716,67.308 L42.716,67.308 C40.852,67.308 38.989,65.836 38.989,63.384 C38.989,61.422 40.95,58.675 41.538,57.891 C41.833,57.499 42.225,57.303 42.716,57.303 z M54.781,42.784 C64.296,42.784 71.162,49.357 71.26,58.382 C71.26,67.308 64.198,74.076 54.879,74.076 L52.721,74.076 C50.564,74.076 48.798,72.31 48.798,70.152 C48.798,67.994 50.564,66.228 52.721,66.228 L54.879,66.228 C60.765,66.228 63.413,62.207 63.413,58.382 C63.413,53.672 59.98,50.534 54.879,50.534 L50.465,50.534 C48.405,50.534 46.639,48.866 46.541,46.807 C46.541,46.807 46.345,43.765 44.776,40.921 C42.912,37.586 39.872,35.919 35.555,35.919 C25.452,35.919 24.863,45.728 24.863,46.807 C24.765,48.964 23.098,50.632 20.94,50.632 C15.839,50.632 12.406,53.771 12.406,58.48 C12.406,61.324 13.779,63.777 16.133,65.149 C17.997,66.228 18.684,68.681 17.605,70.544 C16.526,72.408 14.073,73.095 12.21,72.016 C7.305,69.172 4.46,64.168 4.46,58.48 C4.46,50.534 9.659,44.452 17.409,43.079 C17.801,41.51 18.39,39.548 19.37,37.586 C22.509,31.504 28.297,28.169 35.555,28.169 C42.716,28.169 48.503,31.504 51.741,37.586 C52.721,39.45 53.31,41.216 53.702,42.784 L54.781,42.784 z M91.07,40.076 C91.659,40.959 91.659,42.137 91.266,43.118 C89.108,47.237 85.871,50.572 81.947,52.828 C80.084,53.908 78.122,54.692 76.062,55.28 C75.767,55.378 75.572,55.378 75.278,55.378 C74.002,55.378 72.825,54.496 72.433,53.221 C71.942,51.651 72.923,49.983 74.493,49.591 C75.963,49.199 77.533,48.513 78.907,47.728 C80.378,46.747 81.849,45.668 83.026,44.392 C76.552,43.216 70.667,39.193 67.234,33.308 C63.899,27.422 63.31,20.36 65.566,14.082 C63.899,14.475 62.231,15.162 60.661,16.045 C56.542,18.398 53.502,22.322 52.226,26.933 C51.736,28.501 50.166,29.384 48.596,28.992 C47.027,28.6 46.144,26.933 46.537,25.363 C48.205,19.281 52.226,14.082 57.719,10.943 C61.741,8.589 66.253,7.51 70.765,7.706 C71.844,7.804 72.825,8.393 73.316,9.374 C73.806,10.257 73.708,11.433 73.119,12.316 C69.49,17.711 69.196,24.774 72.433,30.366 C75.669,36.055 81.947,39.291 88.421,38.801 C89.402,38.703 90.482,39.193 91.07,40.076 z" fill="#000000"/>
  </g>
</svg>
