<?xml version="1.0" encoding="UTF-8"?>
<!DOCTYPE svg PUBLIC "-//W3C//DTD SVG 1.1//EN" "http://www.w3.org/Graphics/SVG/1.1/DTD/svg11.dtd">
<svg version="1.1" xmlns="http://www.w3.org/2000/svg" xmlns:xlink="http://www.w3.org/1999/xlink" x="0" y="0"  viewBox="0, 0, 96, 96">
  <g id="Layer_1">
    <path d="M23.565,70.73 C23.565,70.666 23.629,70.442 23.693,70.022 L28.781,50.992 C29.008,50.25 29.456,49.702 30.102,49.35 C30.746,48.963 31.421,48.899 32.131,49.123 C32.87,49.286 33.45,49.67 33.837,50.349 C34.224,51.024 34.32,51.731 34.096,52.506 L29.008,71.44 C28.621,72.822 27.782,73.501 26.528,73.501 C26.301,73.501 26.013,73.437 25.658,73.37 C24.95,73.178 24.435,72.822 24.08,72.307 C23.725,71.792 23.565,71.277 23.565,70.73 z M31.968,80.65 C31.968,81.261 32.131,81.808 32.451,82.323 C32.774,82.838 33.322,83.162 34.128,83.29 C34.48,83.354 34.771,83.418 34.963,83.418 C35.478,83.418 35.962,83.226 36.413,82.87 C36.864,82.483 37.152,81.968 37.283,81.325 L45.011,52.57 C45.203,51.827 45.139,51.12 44.784,50.509 C44.432,49.898 43.885,49.446 43.174,49.219 C42.435,48.995 41.725,49.059 41.082,49.446 C40.438,49.802 39.987,50.349 39.795,51.088 L32.067,79.843 C32,80.326 31.968,80.618 31.968,80.65 z M57.651,34.243 C67.606,34.243 74.79,41.222 74.688,50.56 C74.688,57.642 70.48,63.696 63.808,65.952 C63.402,66.054 62.886,66.157 62.477,66.157 C60.73,66.157 59.19,65.13 58.576,63.386 C57.859,61.232 58.986,58.87 61.142,58.154 C64.528,56.922 66.582,54.048 66.582,50.458 C66.582,45.53 62.989,42.246 57.651,42.246 L53.034,42.246 C50.88,42.246 49.034,40.502 48.928,38.346 C48.928,38.346 48.723,35.165 47.085,32.189 C45.133,28.701 41.952,26.957 37.437,26.957 C26.864,26.957 26.25,37.219 26.25,38.346 C26.147,40.605 24.406,42.349 22.144,42.349 C16.81,42.349 13.219,45.632 13.219,50.56 C13.219,52.816 14.038,54.867 15.578,56.406 C17.222,58.051 17.222,60.618 15.683,62.259 C14.038,63.901 11.472,63.901 9.83,62.362 C6.752,59.283 5.008,55.178 5.008,50.662 C5.008,42.349 10.445,36.09 18.554,34.55 C18.963,32.909 19.581,30.858 20.605,28.806 C23.891,22.442 29.942,18.95 37.539,18.95 C45.03,18.95 51.085,22.442 54.47,28.806 C55.498,30.752 56.112,32.602 56.525,34.243 L57.651,34.243 z M48.013,52.397 C48.045,52.266 48.122,52.163 48.234,52.09 C48.346,52.019 48.47,52 48.598,52.032 L50.79,52.598 L49.642,50.65 C49.568,50.544 49.549,50.426 49.584,50.294 C49.616,50.163 49.69,50.07 49.811,50 C49.93,49.93 50.051,49.91 50.179,49.942 C50.307,49.974 50.403,50.051 50.474,50.17 L51.619,52.109 L52.182,49.93 C52.214,49.802 52.291,49.696 52.41,49.626 C52.531,49.555 52.653,49.536 52.787,49.571 C52.915,49.606 53.011,49.68 53.078,49.802 C53.142,49.917 53.162,50.038 53.126,50.173 L52.557,52.368 L54.515,51.206 C54.637,51.136 54.758,51.117 54.88,51.146 C55.002,51.178 55.104,51.254 55.178,51.376 C55.232,51.491 55.245,51.61 55.213,51.738 C55.181,51.872 55.107,51.968 55.008,52.029 L53.059,53.174 L55.254,53.741 C55.376,53.773 55.472,53.846 55.533,53.968 C55.597,54.086 55.616,54.205 55.581,54.339 C55.552,54.464 55.475,54.56 55.366,54.627 C55.254,54.691 55.136,54.71 55.011,54.678 L52.819,54.112 L53.971,56.07 C54.032,56.173 54.045,56.291 54.01,56.419 C53.978,56.55 53.91,56.646 53.805,56.72 C53.686,56.79 53.555,56.81 53.434,56.778 C53.312,56.746 53.21,56.669 53.146,56.55 L51.99,54.589 L51.424,56.787 C51.392,56.915 51.315,57.021 51.203,57.085 C51.094,57.152 50.97,57.171 50.842,57.139 C50.714,57.104 50.611,57.027 50.541,56.912 C50.464,56.8 50.448,56.672 50.48,56.544 L51.046,54.358 L49.107,55.504 C48.989,55.574 48.867,55.594 48.736,55.558 C48.608,55.526 48.512,55.45 48.442,55.328 C48.371,55.21 48.352,55.091 48.384,54.963 C48.416,54.832 48.493,54.742 48.611,54.678 L50.573,53.526 L48.371,52.96 C48.243,52.928 48.147,52.848 48.083,52.739 C47.994,52.637 47.981,52.518 48.013,52.397 z M45.853,60.752 C45.885,60.624 45.968,60.518 46.08,60.448 C46.192,60.374 46.31,60.355 46.442,60.39 L48.634,60.954 L47.488,59.008 C47.411,58.902 47.389,58.781 47.424,58.653 C47.459,58.525 47.536,58.426 47.654,58.355 C47.773,58.285 47.891,58.266 48.022,58.301 C48.154,58.333 48.246,58.41 48.317,58.531 L49.459,60.467 L50.026,58.288 C50.058,58.16 50.134,58.058 50.256,57.984 C50.374,57.914 50.493,57.894 50.63,57.93 C50.762,57.962 50.854,58.042 50.918,58.157 C50.982,58.275 51.002,58.394 50.966,58.534 L50.4,60.726 L52.358,59.565 C52.48,59.491 52.602,59.472 52.723,59.504 C52.845,59.536 52.947,59.616 53.018,59.734 C53.078,59.85 53.091,59.968 53.053,60.099 C53.021,60.227 52.954,60.326 52.851,60.384 L50.902,61.533 L53.098,62.099 C53.219,62.134 53.315,62.208 53.379,62.326 C53.44,62.442 53.459,62.563 53.427,62.701 C53.395,62.822 53.318,62.918 53.21,62.982 C53.098,63.05 52.976,63.069 52.854,63.037 L50.662,62.47 L51.814,64.426 C51.875,64.528 51.888,64.646 51.853,64.778 C51.821,64.906 51.754,65.005 51.648,65.078 C51.526,65.149 51.398,65.165 51.277,65.136 C51.155,65.104 51.053,65.027 50.986,64.909 L49.837,62.947 L49.267,65.146 C49.235,65.277 49.158,65.379 49.05,65.443 C48.934,65.507 48.816,65.53 48.685,65.494 C48.557,65.462 48.451,65.386 48.381,65.274 C48.307,65.158 48.291,65.03 48.323,64.902 L48.886,62.717 L46.95,63.859 C46.829,63.93 46.71,63.949 46.582,63.917 C46.454,63.885 46.355,63.808 46.285,63.69 C46.214,63.568 46.195,63.446 46.227,63.318 C46.259,63.19 46.333,63.098 46.454,63.037 L48.416,61.885 L46.214,61.318 C46.086,61.283 45.99,61.21 45.926,61.098 C45.834,60.992 45.821,60.874 45.853,60.752 z M43.546,69.706 C43.578,69.578 43.654,69.475 43.766,69.402 C43.882,69.331 44.003,69.312 44.131,69.344 L46.323,69.91 L45.174,67.962 C45.101,67.856 45.082,67.734 45.114,67.603 C45.149,67.475 45.222,67.379 45.341,67.312 C45.462,67.238 45.584,67.219 45.712,67.254 C45.84,67.286 45.939,67.363 46.01,67.482 L47.152,69.421 L47.715,67.238 C47.747,67.11 47.824,67.008 47.946,66.938 C48.064,66.867 48.186,66.848 48.32,66.883 C48.448,66.915 48.547,66.992 48.611,67.11 C48.675,67.226 48.694,67.35 48.659,67.485 L48.093,69.677 L50.051,68.518 C50.17,68.448 50.291,68.429 50.413,68.458 C50.538,68.49 50.64,68.566 50.707,68.685 C50.765,68.803 50.778,68.922 50.746,69.05 C50.71,69.178 50.643,69.277 50.541,69.341 L48.592,70.486 L50.787,71.053 C50.906,71.085 51.002,71.158 51.069,71.277 C51.133,71.398 51.152,71.517 51.117,71.651 C51.085,71.773 51.008,71.872 50.896,71.936 C50.787,72.003 50.666,72.022 50.544,71.99 L48.349,71.424 L49.507,73.379 C49.565,73.485 49.578,73.603 49.546,73.731 C49.514,73.859 49.44,73.958 49.334,74.032 C49.216,74.102 49.091,74.122 48.97,74.09 C48.845,74.058 48.742,73.981 48.678,73.859 L47.526,71.901 L46.96,74.099 C46.928,74.227 46.848,74.33 46.736,74.394 C46.627,74.464 46.506,74.483 46.374,74.448 C46.246,74.413 46.144,74.336 46.07,74.224 C46,74.112 45.984,73.984 46.016,73.853 L46.579,71.667 L44.64,72.813 C44.522,72.88 44.4,72.906 44.269,72.867 C44.141,72.835 44.045,72.758 43.974,72.64 C43.904,72.522 43.885,72.403 43.92,72.269 C43.952,72.141 44.026,72.054 44.144,71.99 L46.106,70.838 L43.907,70.269 C43.776,70.237 43.68,70.16 43.616,70.051 C43.526,69.949 43.514,69.83 43.546,69.706 z M90.634,37.306 C91.085,37.978 91.085,38.88 90.784,39.629 C89.136,42.778 86.662,45.325 83.664,47.046 C82.24,47.872 80.742,48.47 79.168,48.918 C78.947,48.995 78.797,48.995 78.57,48.995 C77.597,48.995 76.701,48.32 76.4,47.347 C76.022,46.147 76.774,44.874 77.971,44.573 C79.094,44.275 80.294,43.75 81.344,43.152 C82.467,42.4 83.59,41.574 84.49,40.605 C79.546,39.706 75.05,36.634 72.426,32.138 C69.878,27.642 69.43,22.246 71.155,17.45 C69.878,17.75 68.608,18.275 67.405,18.95 C64.259,20.749 61.939,23.747 60.966,27.267 C60.589,28.467 59.392,29.139 58.192,28.842 C56.992,28.541 56.32,27.267 56.618,26.067 C57.894,21.421 60.966,17.45 65.158,15.056 C68.23,13.254 71.68,12.432 75.123,12.582 C75.949,12.656 76.701,13.107 77.072,13.856 C77.446,14.531 77.373,15.43 76.922,16.106 C74.154,20.224 73.926,25.616 76.4,29.891 C78.87,34.234 83.664,36.707 88.611,36.333 C89.36,36.256 90.186,36.634 90.634,37.306 z" fill="#000000"/>
  </g>
</svg>
