<?xml version="1.0" encoding="UTF-8"?>
<!DOCTYPE svg PUBLIC "-//W3C//DTD SVG 1.1//EN" "http://www.w3.org/Graphics/SVG/1.1/DTD/svg11.dtd">
<svg version="1.1" xmlns="http://www.w3.org/2000/svg" xmlns:xlink="http://www.w3.org/1999/xlink" x="0" y="0"  viewBox="0, 0, 96, 96">
  <g id="Layer_1">
    <path d="M76.033,37.039 C76.033,28.697 69.243,21.907 60.901,21.907 C57.894,21.907 54.887,22.779 52.462,24.525 C51.104,25.399 50.814,27.242 51.686,28.6 C52.559,29.957 54.402,30.248 55.76,29.376 C57.312,28.308 59.155,27.824 60.998,27.824 C66.14,27.824 70.31,31.994 70.31,37.136 C70.31,38.688 69.923,40.143 69.243,41.403 C68.467,42.859 69.049,44.605 70.504,45.284 C70.795,45.478 71.281,45.575 71.766,45.575 C72.832,45.575 73.803,44.993 74.384,44.023 C75.452,41.889 76.033,39.463 76.033,37.039 z M60.901,17.348 C59.252,17.348 57.991,15.99 57.991,14.437 L57.991,8.908 C57.991,7.259 59.252,5.998 60.901,5.998 C62.55,5.998 63.812,7.259 63.812,8.908 L63.812,14.437 C63.812,16.087 62.55,17.348 60.901,17.348 z M89.032,34.129 C90.681,34.129 91.942,35.487 91.942,37.039 C91.942,38.688 90.681,39.949 89.032,39.949 L83.503,39.949 C81.853,39.949 80.593,38.688 80.593,37.039 C80.593,35.39 81.853,34.129 83.503,34.129 L89.032,34.129 z M76.907,23.944 C76.13,23.944 75.355,23.653 74.869,23.071 C73.706,22.004 73.706,20.16 74.869,18.996 L78.75,15.116 C79.816,13.953 81.659,13.953 82.824,15.116 C83.987,16.184 83.987,18.027 82.824,19.191 L78.944,23.071 C78.361,23.653 77.683,23.944 76.907,23.944 z M78.944,51.007 L82.824,54.887 C83.987,55.954 83.987,57.797 82.824,58.961 C82.241,59.543 81.563,59.834 80.787,59.834 C80.107,59.834 79.332,59.543 78.75,58.961 L74.869,55.081 C73.706,54.014 73.706,52.171 74.869,51.007 C75.936,49.843 77.779,49.843 78.944,51.007 z M42.762,23.071 L38.882,19.191 C37.717,18.124 37.717,16.281 38.882,15.116 C39.949,13.953 41.792,13.953 42.956,15.116 L46.836,18.996 C48,20.064 48,21.907 46.836,23.071 C46.254,23.653 45.575,23.944 44.799,23.944 C44.12,23.944 43.343,23.653 42.762,23.071 z M53.82,42.374 C63.229,42.374 70.02,48.97 69.923,57.797 C69.923,64.49 65.946,70.213 59.64,72.347 C59.252,72.444 58.767,72.541 58.38,72.541 C56.73,72.541 55.275,71.572 54.694,69.923 C54.014,67.886 55.081,65.655 57.118,64.975 C60.32,63.812 62.26,61.095 62.26,57.7 C62.26,53.044 58.864,49.94 53.82,49.94 L49.455,49.94 C47.418,49.94 45.672,48.291 45.575,46.254 C45.575,46.254 45.381,43.246 43.829,40.434 C41.986,37.136 38.979,35.487 34.711,35.487 C24.719,35.487 24.137,45.186 24.137,46.254 C24.04,48.388 22.391,50.037 20.257,50.037 C15.213,50.037 11.819,53.141 11.819,57.797 C11.819,59.931 12.594,61.871 14.05,63.326 C15.602,64.878 15.602,67.303 14.147,68.855 C12.594,70.407 10.17,70.407 8.618,68.952 C5.707,66.043 4.058,62.163 4.058,57.894 C4.058,50.037 9.199,44.12 16.862,42.665 C17.25,41.113 17.833,39.173 18.802,37.233 C21.907,31.219 27.63,27.92 34.808,27.92 C41.889,27.92 47.612,31.219 50.814,37.233 C51.783,39.076 52.365,40.822 52.754,42.374 L53.82,42.374 z M35.196,63.423 C33.547,63.423 32.286,62.163 32.286,60.513 L32.286,57.797 C32.286,56.148 33.547,54.887 35.196,54.887 C36.845,54.887 38.106,56.148 38.106,57.797 L38.106,60.513 C38.106,62.163 36.845,63.423 35.196,63.423 z M35.196,68.564 C36.166,68.564 37.233,69.049 37.912,69.729 C38.688,70.407 39.076,71.475 39.076,72.444 C39.076,73.415 38.688,74.384 37.912,75.161 C37.233,75.936 36.263,76.324 35.196,76.324 C34.226,76.324 33.159,75.84 32.48,75.161 C31.703,74.481 31.316,73.512 31.316,72.444 C31.316,71.475 31.703,70.504 32.48,69.729 C33.159,68.952 34.226,68.564 35.196,68.564 z M35.196,81.466 C36.748,81.466 38.106,82.727 38.106,84.376 L38.106,87.092 C38.106,88.741 36.845,90.002 35.196,90.002 C33.547,90.002 32.286,88.741 32.286,87.092 L32.286,84.376 C32.286,82.727 33.547,81.466 35.196,81.466 z M45.478,69.438 C44.508,69.438 43.538,68.855 42.956,67.983 C42.18,66.624 42.665,64.781 44.023,64.006 L46.448,62.647 C47.806,61.871 49.649,62.357 50.425,63.714 C51.201,65.072 50.716,66.915 49.358,67.692 L46.933,69.049 C46.448,69.34 45.963,69.438 45.478,69.438 z M23.362,75.936 C24.817,75.064 26.562,75.549 27.339,77.004 C28.114,78.361 27.63,80.204 26.271,80.981 L23.847,82.338 C23.362,82.63 22.876,82.727 22.391,82.727 C21.422,82.727 20.451,82.241 19.87,81.272 C19.093,79.913 19.579,78.07 20.936,77.295 L23.362,75.936 z M49.358,77.295 C50.716,78.07 51.201,79.816 50.425,81.272 C49.843,82.241 48.873,82.727 47.903,82.727 C47.418,82.727 46.933,82.63 46.448,82.338 L44.023,80.981 C42.665,80.204 42.18,78.361 42.956,77.004 C43.732,75.646 45.575,75.161 46.933,75.936 L49.358,77.295 z M21.033,67.692 C19.579,66.818 19.191,65.072 19.967,63.714 C20.742,62.357 22.585,61.871 23.944,62.647 L26.368,64.006 C27.727,64.781 28.211,66.624 27.436,67.983 C26.854,68.952 25.884,69.438 24.914,69.438 C24.428,69.438 23.944,69.34 23.459,69.049 L21.033,67.692 z" fill="#000000"/>
  </g>
</svg>
