<?xml version="1.0" encoding="UTF-8"?>
<!DOCTYPE svg PUBLIC "-//W3C//DTD SVG 1.1//EN" "http://www.w3.org/Graphics/SVG/1.1/DTD/svg11.dtd">
<svg version="1.1" xmlns="http://www.w3.org/2000/svg" xmlns:xlink="http://www.w3.org/1999/xlink" x="0" y="0"  viewBox="0, 0, 96, 96">
  <g id="Layer_1">
    <path d="M54.863,41.261 L53.787,41.261 C53.396,39.697 52.809,37.936 51.832,36.078 C48.604,30.015 42.835,26.69 35.696,26.69 C28.459,26.69 22.69,30.015 19.561,36.078 C18.583,38.034 17.995,39.99 17.605,41.554 C9.88,43.022 4.697,48.986 4.697,56.908 C4.697,61.211 6.358,65.123 9.292,68.056 C10.857,69.523 13.302,69.523 14.866,67.959 C16.334,66.394 16.334,63.949 14.768,62.384 C13.302,60.917 12.519,58.962 12.519,56.81 C12.519,52.116 15.942,48.986 21.027,48.986 C23.178,48.986 24.841,47.324 24.939,45.173 C24.939,44.097 25.525,34.318 35.598,34.318 C39.901,34.318 42.932,35.98 44.791,39.305 C46.355,42.141 46.551,45.173 46.551,45.173 C46.649,47.227 48.409,48.889 50.462,48.889 L54.863,48.889 C59.948,48.889 63.371,52.018 63.371,56.712 C63.371,60.135 61.415,62.873 58.188,64.047 C56.135,64.731 55.059,66.981 55.743,69.034 C56.33,70.696 57.797,71.674 59.459,71.674 C59.85,71.674 60.34,71.577 60.731,71.479 C67.087,69.328 71.097,63.557 71.097,56.81 C71.194,47.911 64.348,41.261 54.863,41.261 z M36.088,62.482 C34.425,62.482 33.154,61.211 33.154,59.548 L33.154,56.81 C33.154,55.147 34.425,53.876 36.088,53.876 C37.749,53.876 39.021,55.147 39.021,56.81 L39.021,59.548 C39.021,61.211 37.749,62.482 36.088,62.482 z M36.088,67.665 C37.065,67.665 38.14,68.154 38.825,68.838 C39.608,69.523 39.999,70.599 39.999,71.577 C39.999,72.555 39.608,73.533 38.825,74.315 C38.14,75.097 37.163,75.489 36.088,75.489 C35.11,75.489 34.034,74.999 33.349,74.315 C32.566,73.63 32.176,72.652 32.176,71.577 C32.176,70.599 32.566,69.621 33.349,68.838 C34.034,68.056 35.11,67.665 36.088,67.665 z M36.088,80.672 C37.652,80.672 39.021,81.943 39.021,83.604 L39.021,86.343 C39.021,88.006 37.749,89.277 36.088,89.277 C34.425,89.277 33.154,88.006 33.154,86.343 L33.154,83.604 C33.154,81.943 34.425,80.672 36.088,80.672 z M46.453,68.545 C45.476,68.545 44.498,67.959 43.91,67.078 C43.128,65.709 43.617,63.851 44.986,63.069 L47.431,61.7 C48.8,60.917 50.658,61.406 51.44,62.776 C52.223,64.145 51.733,66.003 50.365,66.784 L47.92,68.154 C47.431,68.447 46.942,68.545 46.453,68.545 z M24.156,75.097 C25.624,74.216 27.383,74.706 28.166,76.172 C28.949,77.542 28.459,79.399 27.09,80.182 L24.646,81.551 C24.156,81.845 23.668,81.943 23.178,81.943 C22.2,81.943 21.223,81.453 20.636,80.475 C19.854,79.106 20.343,77.248 21.712,76.466 L24.156,75.097 z M50.365,76.466 C51.733,77.248 52.223,79.009 51.44,80.475 C50.854,81.453 49.876,81.943 48.898,81.943 C48.409,81.943 47.92,81.845 47.431,81.551 L44.986,80.182 C43.617,79.399 43.128,77.542 43.91,76.172 C44.693,74.804 46.551,74.315 47.92,75.097 L50.365,76.466 z M21.81,66.784 C20.343,65.905 19.951,64.145 20.734,62.776 C21.517,61.406 23.374,60.917 24.744,61.7 L27.188,63.069 C28.557,63.851 29.046,65.709 28.264,67.078 C27.678,68.056 26.7,68.545 25.722,68.545 C25.232,68.545 24.744,68.447 24.254,68.154 L21.81,66.784 z M90.836,38.994 C91.423,39.875 91.423,41.048 91.031,42.026 C88.88,46.133 85.653,49.458 81.741,51.707 C79.883,52.783 77.928,53.565 75.874,54.152 C75.58,54.249 75.384,54.249 75.091,54.249 C73.82,54.249 72.647,53.37 72.255,52.098 C71.767,50.534 72.745,48.871 74.309,48.48 C75.776,48.089 77.34,47.404 78.709,46.622 C80.177,45.644 81.643,44.568 82.816,43.297 C76.362,42.124 70.495,38.114 67.072,32.247 C63.747,26.379 63.161,19.338 65.41,13.079 C63.747,13.471 62.085,14.155 60.52,15.035 C56.413,17.382 53.381,21.294 52.11,25.89 C51.622,27.455 50.057,28.335 48.492,27.944 C46.927,27.553 46.047,25.89 46.439,24.326 C48.101,18.262 52.11,13.079 57.586,9.95 C61.596,7.603 66.094,6.528 70.593,6.723 C71.669,6.821 72.647,7.408 73.135,8.386 C73.625,9.266 73.527,10.44 72.94,11.32 C69.321,16.698 69.028,23.739 72.255,29.313 C75.482,34.985 81.741,38.212 88.196,37.723 C89.173,37.626 90.248,38.114 90.836,38.994 z" fill="#000000"/>
  </g>
</svg>
