<?xml version="1.0" encoding="UTF-8"?>
<!DOCTYPE svg PUBLIC "-//W3C//DTD SVG 1.1//EN" "http://www.w3.org/Graphics/SVG/1.1/DTD/svg11.dtd">
<svg version="1.1" xmlns="http://www.w3.org/2000/svg" xmlns:xlink="http://www.w3.org/1999/xlink" x="0" y="0"  viewBox="0, 0, 96, 96">
  <g id="Layer_1">
    <path d="M76.183,37.566 C76.183,29.179 69.356,22.353 60.969,22.353 C57.947,22.353 54.924,23.23 52.486,24.985 C51.121,25.863 50.828,27.717 51.706,29.082 C52.584,30.447 54.436,30.739 55.801,29.861 C57.362,28.788 59.214,28.301 61.068,28.301 C66.236,28.301 70.429,32.494 70.429,37.663 C70.429,39.223 70.039,40.686 69.356,41.954 C68.577,43.416 69.161,45.172 70.624,45.854 C71.015,46.049 71.502,46.148 71.989,46.148 C73.062,46.148 74.037,45.562 74.623,44.587 C75.597,42.442 76.183,40.004 76.183,37.566 z M60.969,17.671 C59.312,17.671 58.044,16.404 58.044,14.746 L58.044,9.188 C58.044,7.53 59.312,6.262 60.969,6.262 C62.628,6.262 63.896,7.53 63.896,9.188 L63.896,14.746 C63.896,16.404 62.628,17.671 60.969,17.671 z M89.25,34.64 C90.908,34.64 92.176,35.908 92.176,37.566 C92.176,39.223 90.908,40.491 89.25,40.491 L83.692,40.491 C82.034,40.491 80.767,39.223 80.767,37.566 C80.767,35.908 82.034,34.64 83.692,34.64 L89.25,34.64 z M77.061,24.401 C76.28,24.401 75.5,24.108 75.013,23.523 C73.842,22.45 73.842,20.598 75.013,19.427 L78.913,15.527 C79.986,14.356 81.838,14.356 83.009,15.527 C84.179,16.6 84.179,18.452 83.009,19.622 L79.108,23.523 C78.523,24.108 77.84,24.401 77.061,24.401 z M79.108,51.608 L83.009,55.509 C84.179,56.582 84.179,58.434 83.009,59.604 C82.424,60.19 81.741,60.482 80.961,60.482 C80.278,60.482 79.499,60.19 78.913,59.604 L75.013,55.704 C73.842,54.631 73.842,52.779 75.013,51.608 C76.085,50.438 77.938,50.438 79.108,51.608 z M42.734,23.523 L38.834,19.622 C37.663,18.549 37.663,16.697 38.834,15.527 C39.906,14.356 41.759,14.356 42.929,15.527 L46.83,19.427 C48,20.5 48,22.352 46.83,23.523 C46.245,24.108 45.562,24.401 44.782,24.401 C44.099,24.401 43.319,24.108 42.734,23.523 z M35.908,74.33 C36.688,74.33 37.37,74.623 37.858,75.305 C38.834,76.475 41.759,80.571 41.759,83.594 C41.759,87.397 38.735,89.738 35.908,89.738 C32.982,89.738 30.056,87.397 30.056,83.594 C30.056,80.668 33.08,76.475 33.958,75.305 C34.445,74.72 35.128,74.33 35.908,74.33 z M28.106,63.115 C28.788,63.993 31.032,67.113 31.032,69.454 C31.032,72.477 28.788,74.232 26.546,74.232 C24.303,74.232 22.06,72.38 22.06,69.454 C22.06,67.212 24.303,63.993 24.985,63.115 C25.766,62.14 27.326,62.14 28.106,63.115 z M41.856,57.362 C43.514,57.362 45.562,62.14 45.562,63.407 C45.562,65.845 43.71,67.309 41.856,67.309 L41.856,67.309 C40.004,67.309 38.151,65.845 38.151,63.407 C38.151,61.458 40.101,58.727 40.686,57.947 C40.978,57.557 41.369,57.362 41.856,57.362 z M53.851,42.929 C63.31,42.929 70.137,49.463 70.234,58.434 C70.234,67.309 63.213,74.037 53.949,74.037 L51.803,74.037 C49.657,74.037 47.903,72.282 47.903,70.137 C47.903,67.991 49.657,66.236 51.803,66.236 L53.949,66.236 C59.8,66.236 62.433,62.238 62.433,58.434 C62.433,53.754 59.02,50.633 53.949,50.633 L49.56,50.633 C47.513,50.633 45.757,48.975 45.659,46.927 C45.659,46.927 45.465,43.905 43.905,41.076 C42.051,37.761 39.029,36.102 34.737,36.102 C24.693,36.102 24.108,45.854 24.108,46.927 C24.011,49.073 22.352,50.73 20.207,50.73 C15.136,50.73 11.724,53.851 11.724,58.532 C11.724,61.36 13.089,63.798 15.429,65.163 C17.282,66.236 17.965,68.674 16.892,70.526 C15.819,72.38 13.381,73.062 11.528,71.989 C6.652,69.161 3.824,64.188 3.824,58.532 C3.824,50.633 8.992,44.587 16.697,43.221 C17.087,41.661 17.671,39.711 18.647,37.761 C21.768,31.715 27.521,28.399 34.737,28.399 C41.856,28.399 47.61,31.715 50.828,37.761 C51.803,39.613 52.389,41.369 52.779,42.929 L53.851,42.929 z" fill="#000000"/>
  </g>
</svg>
