<?xml version="1.0" encoding="UTF-8"?>
<!DOCTYPE svg PUBLIC "-//W3C//DTD SVG 1.1//EN" "http://www.w3.org/Graphics/SVG/1.1/DTD/svg11.dtd">
<svg version="1.1" xmlns="http://www.w3.org/2000/svg" xmlns:xlink="http://www.w3.org/1999/xlink" x="0" y="0"  viewBox="0, 0, 96, 96">
  <g id="Layer_1">
    <path d="M4.723,56.389 C4.723,60.656 6.199,64.345 9.182,67.425 C12.166,70.505 15.791,72.141 20.122,72.333 C20.475,72.333 20.667,72.141 20.667,71.788 L20.667,67.489 C20.667,67.136 20.475,66.944 20.122,66.944 C17.363,66.815 15.021,65.692 13.096,63.639 C11.171,61.586 10.209,59.148 10.209,56.389 C10.209,53.758 11.107,51.449 12.936,49.46 C14.764,47.471 17.01,46.348 19.673,46.027 L21.373,45.867 C21.79,45.867 22.015,45.674 22.015,45.321 L22.239,43.589 C22.592,40.124 24.036,37.205 26.634,34.863 C29.233,32.521 32.28,31.334 35.777,31.334 C39.274,31.334 42.322,32.521 44.952,34.863 C47.583,37.205 49.059,40.124 49.444,43.589 L49.668,45.418 C49.668,45.802 49.861,46.027 50.214,46.027 L55.411,46.027 C58.266,46.027 60.704,47.054 62.789,49.107 C64.874,51.16 65.901,53.566 65.901,56.389 C65.901,59.18 64.939,61.586 63.014,63.639 C61.089,65.692 58.747,66.783 56.02,66.944 C55.635,66.944 55.411,67.136 55.411,67.489 L55.411,71.788 C55.411,72.141 55.603,72.333 56.02,72.333 C60.287,72.205 63.912,70.569 66.895,67.489 C69.879,64.377 71.355,60.688 71.355,56.421 C71.355,54.111 70.906,51.962 70.007,49.973 C72.51,46.861 73.761,43.332 73.761,39.354 C73.761,36.307 72.991,33.484 71.483,30.885 C69.975,28.286 67.922,26.233 65.324,24.726 C62.725,23.218 59.934,22.48 56.918,22.48 C51.914,22.48 47.775,24.341 44.471,28.062 C41.841,26.65 38.953,25.945 35.777,25.945 C31.254,25.945 27.212,27.356 23.715,30.179 C20.218,33.002 17.973,36.595 16.978,40.958 C13.417,41.792 10.498,43.653 8.188,46.54 C5.878,49.428 4.723,52.7 4.723,56.389 z M22.047,78.396 C22.047,78.942 22.207,79.455 22.56,79.968 C22.913,80.482 23.426,80.835 24.132,81.027 C24.485,81.091 24.774,81.155 24.998,81.155 C26.249,81.155 27.083,80.482 27.468,79.102 L32.537,60.239 C32.762,59.469 32.665,58.763 32.28,58.089 C31.896,57.416 31.318,57.031 30.58,56.87 C29.874,56.646 29.201,56.71 28.559,57.095 C27.918,57.448 27.468,57.993 27.244,58.731 L22.175,77.691 C22.111,78.108 22.047,78.332 22.047,78.396 z M30.42,88.277 C30.42,88.887 30.58,89.432 30.901,89.945 C31.222,90.459 31.767,90.78 32.569,90.908 C32.922,90.972 33.211,91.036 33.403,91.036 C33.917,91.036 34.398,90.844 34.847,90.491 C35.296,90.106 35.585,89.593 35.713,88.951 L43.412,60.303 C43.605,59.565 43.541,58.859 43.188,58.25 C42.835,57.64 42.29,57.191 41.584,56.967 C40.846,56.742 40.14,56.806 39.499,57.191 C38.857,57.544 38.408,58.089 38.215,58.827 L30.516,87.475 C30.452,87.956 30.42,88.245 30.42,88.277 z M31.767,16.962 C31.767,17.732 32.024,18.374 32.569,18.919 L34.654,21.036 C35.264,21.517 35.938,21.742 36.643,21.742 C37.317,21.742 37.959,21.485 38.504,21.004 C39.05,20.491 39.338,19.881 39.338,19.111 C39.338,18.341 39.082,17.636 38.568,17.058 L36.515,14.973 C35.938,14.428 35.296,14.171 34.59,14.171 C33.82,14.171 33.147,14.46 32.601,15.005 C32.056,15.55 31.767,16.224 31.767,16.962 z M48.962,31.174 C51.24,29.024 53.871,27.966 56.918,27.966 C60.062,27.966 62.757,29.088 64.939,31.302 C67.152,33.516 68.243,36.21 68.243,39.386 C68.243,41.375 67.698,43.364 66.575,45.321 C63.463,42.209 59.742,40.67 55.379,40.67 L54.32,40.67 C53.454,36.884 51.657,33.74 48.962,31.174 z M54.159,14.331 C54.159,15.069 54.416,15.711 54.961,16.224 C55.507,16.737 56.148,16.994 56.918,16.994 C57.656,16.994 58.298,16.737 58.811,16.256 C59.324,15.743 59.581,15.133 59.581,14.363 L59.581,7.755 C59.581,6.921 59.324,6.247 58.843,5.734 C58.33,5.22 57.72,4.964 56.95,4.964 C56.148,4.964 55.475,5.22 54.961,5.766 C54.448,6.311 54.192,6.953 54.192,7.755 L54.192,14.331 z M71.9,21.646 C71.9,22.416 72.189,23.057 72.766,23.539 C73.215,24.052 73.793,24.308 74.531,24.373 C75.269,24.437 75.942,24.148 76.52,23.539 L81.139,18.951 C81.717,18.406 81.973,17.732 81.973,16.93 C81.973,16.16 81.717,15.486 81.171,14.973 C80.626,14.46 79.984,14.203 79.214,14.203 C78.541,14.203 77.931,14.46 77.354,15.005 L72.766,19.625 C72.189,20.17 71.9,20.844 71.9,21.646 z M74.499,59.661 C74.499,60.431 74.755,61.105 75.269,61.682 L77.354,63.703 C77.931,64.153 78.573,64.377 79.279,64.377 L79.343,64.441 C80.081,64.441 80.69,64.185 81.203,63.671 C81.717,63.158 81.973,62.484 81.973,61.714 C81.973,60.945 81.685,60.335 81.139,59.854 L79.15,57.736 C78.573,57.223 77.899,56.967 77.161,56.967 C76.423,56.967 75.782,57.223 75.269,57.769 C74.755,58.314 74.499,58.891 74.499,59.661 z M79.182,39.354 C79.182,40.124 79.471,40.734 80.016,41.247 C80.594,41.824 81.236,42.081 82.005,42.081 L88.518,42.081 C89.288,42.081 89.929,41.824 90.475,41.279 C91.02,40.734 91.277,40.092 91.277,39.354 C91.277,38.584 91.02,37.943 90.475,37.397 C89.929,36.852 89.288,36.563 88.518,36.563 L82.005,36.563 C81.236,36.563 80.594,36.852 80.016,37.397 C79.439,37.943 79.182,38.584 79.182,39.354 z M45.543,61.015 C45.584,60.845 45.687,60.71 45.835,60.614 C45.979,60.521 46.139,60.495 46.309,60.54 L49.177,61.281 L47.673,58.731 C47.577,58.593 47.551,58.439 47.599,58.269 C47.641,58.096 47.737,57.974 47.897,57.881 C48.051,57.788 48.209,57.765 48.375,57.807 C48.545,57.849 48.67,57.948 48.764,58.105 L50.258,60.64 L50.996,57.788 C51.038,57.621 51.141,57.486 51.295,57.393 C51.455,57.3 51.612,57.275 51.789,57.323 C51.956,57.368 52.084,57.464 52.167,57.621 C52.251,57.772 52.276,57.932 52.231,58.109 L51.49,60.977 L54.05,59.462 C54.204,59.369 54.365,59.344 54.525,59.382 C54.686,59.424 54.82,59.523 54.913,59.681 C54.984,59.831 55,59.989 54.958,60.155 C54.917,60.329 54.824,60.454 54.695,60.534 L52.145,62.035 L55.013,62.776 C55.173,62.818 55.302,62.914 55.379,63.071 C55.465,63.225 55.491,63.383 55.443,63.559 C55.404,63.72 55.305,63.845 55.16,63.934 C55.013,64.018 54.859,64.044 54.698,64.002 L51.83,63.261 L53.338,65.821 C53.418,65.956 53.434,66.11 53.39,66.28 C53.345,66.446 53.258,66.575 53.12,66.671 C52.963,66.764 52.793,66.79 52.636,66.748 C52.475,66.703 52.341,66.604 52.254,66.446 L50.746,63.883 L50.005,66.758 C49.963,66.928 49.864,67.062 49.716,67.146 C49.572,67.236 49.412,67.261 49.245,67.22 C49.075,67.171 48.94,67.072 48.847,66.924 C48.751,66.777 48.731,66.607 48.773,66.44 L49.511,63.585 L46.973,65.08 C46.819,65.173 46.662,65.195 46.489,65.15 C46.322,65.109 46.194,65.006 46.107,64.852 C46.014,64.695 45.989,64.541 46.03,64.371 C46.072,64.204 46.171,64.085 46.325,64.002 L48.892,62.494 L46.014,61.753 C45.844,61.711 45.719,61.609 45.636,61.464 C45.517,61.329 45.501,61.176 45.543,61.015 z M42.72,71.942 C42.764,71.775 42.867,71.64 43.015,71.547 C43.162,71.451 43.319,71.425 43.486,71.47 L46.354,72.208 L44.856,69.664 C44.76,69.526 44.731,69.366 44.776,69.199 C44.818,69.029 44.92,68.904 45.074,68.811 C45.231,68.718 45.385,68.692 45.555,68.737 C45.729,68.782 45.851,68.881 45.944,69.038 L47.439,71.573 L48.173,68.721 C48.218,68.554 48.318,68.419 48.478,68.326 C48.635,68.233 48.789,68.208 48.966,68.256 C49.139,68.297 49.261,68.397 49.344,68.548 C49.431,68.705 49.453,68.862 49.408,69.042 L48.667,71.91 L51.227,70.389 C51.388,70.296 51.545,70.27 51.702,70.312 C51.863,70.357 51.997,70.456 52.09,70.614 C52.167,70.764 52.183,70.918 52.138,71.088 C52.097,71.255 52.007,71.387 51.872,71.464 L49.325,72.965 L52.193,73.706 C52.353,73.751 52.478,73.847 52.562,74.001 C52.642,74.155 52.668,74.316 52.626,74.492 C52.584,74.653 52.482,74.778 52.341,74.861 C52.193,74.951 52.036,74.977 51.875,74.932 L49.007,74.191 L50.515,76.747 C50.595,76.882 50.611,77.039 50.566,77.206 C50.525,77.376 50.435,77.508 50.297,77.604 C50.14,77.697 49.973,77.716 49.813,77.678 C49.652,77.636 49.517,77.537 49.434,77.379 L47.929,74.816 L47.185,77.691 C47.143,77.861 47.041,77.995 46.9,78.079 C46.752,78.162 46.595,78.194 46.422,78.146 C46.255,78.104 46.12,78.002 46.027,77.857 C45.931,77.71 45.908,77.54 45.95,77.373 L46.688,74.511 L44.154,76.006 C43.996,76.099 43.842,76.125 43.672,76.083 C43.506,76.042 43.377,75.939 43.284,75.785 C43.191,75.628 43.169,75.467 43.21,75.301 C43.252,75.131 43.348,75.012 43.506,74.932 L46.072,73.427 L43.191,72.683 C43.024,72.638 42.899,72.542 42.813,72.394 C42.697,72.259 42.678,72.102 42.72,71.942 z M39.701,83.654 C39.742,83.488 39.845,83.353 39.993,83.253 C40.14,83.164 40.301,83.138 40.467,83.18 L43.335,83.921 L41.831,81.373 C41.735,81.232 41.709,81.078 41.754,80.905 C41.799,80.735 41.895,80.61 42.052,80.52 C42.206,80.43 42.367,80.405 42.537,80.446 C42.703,80.488 42.832,80.588 42.922,80.745 L44.417,83.279 L45.154,80.43 C45.196,80.26 45.299,80.126 45.453,80.033 C45.61,79.939 45.77,79.914 45.947,79.962 C46.117,80.004 46.242,80.106 46.325,80.26 C46.409,80.411 46.434,80.571 46.39,80.748 L45.648,83.616 L48.209,82.102 C48.363,82.009 48.523,81.983 48.683,82.022 C48.844,82.063 48.978,82.163 49.068,82.32 C49.142,82.471 49.161,82.628 49.116,82.795 C49.071,82.965 48.982,83.096 48.847,83.173 L46.3,84.675 L49.174,85.416 C49.328,85.457 49.453,85.554 49.54,85.711 C49.623,85.865 49.649,86.022 49.601,86.198 C49.559,86.359 49.463,86.484 49.315,86.571 C49.174,86.657 49.014,86.683 48.853,86.641 L45.985,85.9 L47.496,88.46 C47.573,88.595 47.589,88.752 47.548,88.919 C47.506,89.089 47.413,89.214 47.275,89.31 C47.118,89.403 46.954,89.429 46.794,89.387 C46.633,89.346 46.499,89.243 46.415,89.089 L44.907,86.522 L44.166,89.4 C44.125,89.567 44.022,89.702 43.874,89.785 C43.733,89.875 43.573,89.901 43.403,89.852 C43.236,89.811 43.101,89.711 43.002,89.564 C42.912,89.416 42.89,89.246 42.931,89.079 L43.669,86.221 L41.135,87.719 C40.978,87.806 40.817,87.838 40.65,87.79 C40.48,87.748 40.355,87.648 40.262,87.491 C40.169,87.334 40.143,87.18 40.192,87.007 C40.233,86.84 40.33,86.725 40.484,86.641 L43.05,85.133 L40.172,84.392 C40.006,84.351 39.877,84.248 39.794,84.107 C39.675,83.972 39.659,83.815 39.701,83.654 z" fill="#000000"/>
  </g>
</svg>
