<?xml version="1.0" encoding="UTF-8"?>
<!DOCTYPE svg PUBLIC "-//W3C//DTD SVG 1.1//EN" "http://www.w3.org/Graphics/SVG/1.1/DTD/svg11.dtd">
<svg version="1.1" xmlns="http://www.w3.org/2000/svg" xmlns:xlink="http://www.w3.org/1999/xlink" x="0" y="0"  viewBox="0, 0, 96, 96">
  <g id="Layer_1">
    <path d="M87.795,59.262 L78.825,59.262 C79.947,56.322 80.787,53.238 81.069,50.016 C81.207,48.753 80.649,47.493 79.668,46.653 C78.687,45.951 77.424,45.672 76.164,45.951 C74.061,46.512 72.099,46.794 69.999,46.794 C64.674,46.794 59.769,44.97 55.848,41.889 L69.717,41.889 C71.82,41.889 73.641,40.068 73.503,37.965 C73.503,35.862 71.82,34.041 69.579,34.041 L49.401,34.041 C47.859,30.96 46.878,27.456 46.878,23.673 C46.878,22.971 47.019,22.413 47.019,21.711 C47.16,20.451 46.599,19.188 45.618,18.348 C44.637,17.649 43.377,17.367 42.114,17.649 C33.429,20.169 26.421,26.196 22.497,34.041 L18.435,34.041 C16.332,34.041 14.511,35.724 14.511,37.965 C14.511,40.068 16.194,41.889 18.435,41.889 L19.977,41.889 C19.695,43.569 19.416,45.39 19.416,47.214 L8.205,47.214 C6.105,47.214 4.284,49.035 4.284,51.135 C4.284,53.238 5.964,55.059 8.205,55.059 L20.397,55.059 C23.76,68.511 35.949,78.459 50.382,78.459 C59.91,78.459 68.457,73.977 74.202,67.11 L87.795,67.11 C89.895,67.11 91.716,65.289 91.716,63.186 C91.716,61.086 90.036,59.262 87.795,59.262 z M39.174,27.315 C39.453,29.697 40.014,31.941 40.713,34.041 L31.467,34.041 C33.567,31.239 36.09,28.998 39.174,27.315 z M50.241,70.614 C40.152,70.614 31.605,64.167 28.383,55.059 L45.477,55.059 C47.58,55.059 49.401,53.238 49.401,51.135 C49.401,49.035 47.721,47.214 45.477,47.214 L27.123,47.214 C27.123,45.39 27.402,43.569 27.822,41.889 L44.916,41.889 C50.943,50.295 61.032,55.479 72.24,54.639 C71.679,56.322 70.98,57.861 70.14,59.262 L45.477,59.262 C43.377,59.262 41.556,60.945 41.556,63.186 C41.556,65.289 43.236,67.11 45.477,67.11 L62.433,67.11 C58.788,69.351 54.585,70.614 50.241,70.614 z" fill="#000000"/>
  </g>
</svg>
