<?xml version="1.0" encoding="UTF-8"?>
<!DOCTYPE svg PUBLIC "-//W3C//DTD SVG 1.1//EN" "http://www.w3.org/Graphics/SVG/1.1/DTD/svg11.dtd">
<svg version="1.1" xmlns="http://www.w3.org/2000/svg" xmlns:xlink="http://www.w3.org/1999/xlink" x="0" y="0"  viewBox="0, 0, 96, 96">
  <g id="Layer_1">
    <path d="M3.34,52.63 C3.34,53.64 3.678,54.466 4.39,55.142 C5.103,55.815 6.003,56.116 7.09,56.116 L13.423,56.116 C14.436,56.116 15.296,55.778 16.009,55.102 C16.721,54.43 17.096,53.603 17.096,52.63 C17.096,51.543 16.758,50.643 16.046,49.967 C15.336,49.295 14.473,48.92 13.46,48.92 L7.09,48.92 C6.003,48.92 5.103,49.254 4.39,49.967 C3.678,50.606 3.34,51.506 3.34,52.63 z M9.974,75.793 C9.974,79.429 11.285,82.577 13.948,85.24 C16.608,87.9 19.719,89.211 23.355,89.211 L49.067,89.211 C52.704,89.211 55.815,87.9 58.401,85.277 C60.987,82.651 62.298,79.503 62.298,75.793 C62.298,73.993 62.037,72.458 61.512,71.183 C64.623,69.196 67.098,66.536 68.895,63.238 C70.695,59.939 71.631,56.377 71.631,52.593 C71.631,49.556 71.033,46.632 69.832,43.858 C68.634,41.085 67.021,38.687 65.034,36.7 C63.047,34.712 60.649,33.1 57.875,31.902 C55.102,30.701 52.215,30.103 49.181,30.103 C45.096,30.103 41.309,31.116 37.86,33.14 C34.411,35.164 31.678,37.9 29.691,41.309 C27.704,44.758 26.73,48.505 26.73,52.593 L26.73,53.868 C22.98,56.002 20.508,59.113 19.307,63.198 C16.46,64.098 14.209,65.673 12.523,67.958 C10.837,70.246 9.974,72.869 9.974,75.793 z M15.821,22.719 C15.821,23.77 16.159,24.63 16.795,25.232 L22.83,31.564 C24.593,32.913 26.356,32.913 28.115,31.564 C28.828,30.852 29.166,29.992 29.166,28.942 C29.166,27.928 28.828,27.068 28.115,26.316 L21.93,20.134 C21.144,19.421 20.244,19.046 19.307,19.046 C18.257,19.046 17.397,19.384 16.758,20.097 C16.122,20.806 15.821,21.669 15.821,22.719 z M17.397,75.793 C17.397,74.217 17.882,72.869 18.896,71.745 C19.906,70.621 21.181,69.982 22.719,69.835 L25.041,69.534 C25.53,69.534 25.794,69.233 25.794,68.671 L26.128,66.573 C26.393,64.399 27.292,62.599 28.865,61.174 C30.44,59.712 32.277,59.003 34.411,59.003 C36.586,59.003 38.499,59.712 40.072,61.174 C41.684,62.636 42.621,64.436 42.885,66.573 L43.183,69.009 C43.407,69.571 43.708,69.872 44.083,69.872 L49.03,69.872 C50.643,69.872 52.028,70.47 53.229,71.631 C54.43,72.795 54.992,74.18 54.992,75.83 C54.992,77.516 54.39,78.941 53.229,80.142 C52.068,81.339 50.643,81.942 49.03,81.942 L23.355,81.942 C21.669,81.942 20.244,81.339 19.12,80.142 C17.959,78.941 17.397,77.479 17.397,75.793 z M33.963,51.844 C34.224,47.756 35.8,44.31 38.723,41.497 C41.61,38.723 45.133,37.298 49.181,37.298 C53.342,37.298 56.902,38.8 59.826,41.761 C62.75,44.722 64.211,48.358 64.211,52.593 C64.211,55.216 63.572,57.651 62.298,59.899 C61.023,62.151 59.3,63.95 57.126,65.335 C54.915,63.499 52.366,62.599 49.519,62.599 C48.432,59.3 46.481,56.715 43.745,54.764 C41.008,52.817 37.897,51.844 34.451,51.844 L33.963,51.844 z M45.545,19.046 C45.545,20.057 45.919,20.956 46.632,21.669 C47.344,22.382 48.207,22.756 49.218,22.756 C50.268,22.756 51.131,22.382 51.84,21.669 C52.553,20.956 52.928,20.097 52.928,19.046 L52.928,10.275 C52.928,9.301 52.553,8.475 51.84,7.803 C51.131,7.127 50.268,6.789 49.218,6.789 C48.207,6.789 47.344,7.127 46.632,7.803 C45.919,8.475 45.545,9.301 45.545,10.275 L45.545,19.046 z M69.233,76.131 C69.233,77.141 69.571,78.004 70.246,78.754 L76.392,84.825 C77.967,86.401 79.727,86.401 81.677,84.825 C82.353,84.19 82.651,83.363 82.651,82.276 C82.651,81.266 82.313,80.44 81.677,79.767 L75.341,73.508 C74.669,72.869 73.806,72.568 72.795,72.568 C71.745,72.568 70.919,72.906 70.246,73.582 C69.571,74.257 69.233,75.117 69.233,76.131 z M69.233,28.865 C69.233,29.915 69.571,30.815 70.246,31.564 C70.919,32.24 71.782,32.578 72.795,32.578 C73.806,32.578 74.669,32.24 75.341,31.564 L81.677,25.232 C82.353,24.593 82.651,23.77 82.651,22.719 C82.651,21.669 82.276,20.806 81.564,20.134 C80.851,19.458 79.991,19.083 78.941,19.083 C77.967,19.083 77.104,19.458 76.392,20.17 L70.246,26.279 C69.571,26.955 69.233,27.818 69.233,28.865 z M78.904,52.63 C78.904,53.64 79.242,54.466 79.954,55.142 C80.664,55.815 81.564,56.116 82.651,56.116 L88.987,56.116 C89.997,56.116 90.86,55.778 91.573,55.102 C92.285,54.43 92.66,53.603 92.66,52.63 C92.66,51.543 92.322,50.643 91.61,49.967 C90.897,49.295 90.037,48.92 89.024,48.92 L82.688,48.92 C81.604,48.92 80.704,49.254 79.991,49.967 C79.279,50.606 78.904,51.506 78.904,52.63 z" fill="#000000"/>
  </g>
</svg>
