<?xml version="1.0" encoding="UTF-8"?>
<!DOCTYPE svg PUBLIC "-//W3C//DTD SVG 1.1//EN" "http://www.w3.org/Graphics/SVG/1.1/DTD/svg11.dtd">
<svg version="1.1" xmlns="http://www.w3.org/2000/svg" xmlns:xlink="http://www.w3.org/1999/xlink" x="0" y="0"  viewBox="0, 0, 96, 96">
  <g id="Layer_1">
    <path d="M53.681,51.4 L52.656,51.4 C52.284,49.91 51.724,48.233 50.793,46.463 C47.718,40.686 42.222,37.52 35.421,37.52 C28.527,37.52 23.03,40.686 20.049,46.463 C19.117,48.326 18.559,50.19 18.186,51.68 C10.919,52.984 5.889,58.76 5.889,66.306 C5.889,73.853 11.292,79.815 18.745,80.932 C19.117,81.026 19.584,81.119 19.956,81.119 L53.681,81.119 C62.531,81.119 69.239,74.69 69.239,66.213 C69.239,57.642 62.717,51.4 53.681,51.4 z M53.681,73.759 L21.446,73.759 C15.857,73.759 13.342,69.94 13.342,66.306 C13.342,61.835 16.603,58.853 21.446,58.853 C23.496,58.853 25.08,57.27 25.173,55.22 C25.173,54.195 25.732,44.879 35.327,44.879 C39.427,44.879 42.315,46.463 44.085,49.63 C45.576,52.332 45.761,55.22 45.761,55.22 C45.855,57.176 47.532,58.76 49.488,58.76 L53.681,58.76 C58.525,58.76 61.786,61.741 61.786,66.213 C61.786,69.846 59.27,73.759 53.681,73.759 z M79.206,41.432 C85.635,41.432 90.293,45.904 90.106,51.959 C90.106,57.922 85.355,62.487 79.113,62.487 L75.76,62.487 C74.176,62.487 72.965,61.276 72.965,59.692 C72.965,58.108 74.176,56.896 75.76,56.896 L79.113,56.896 C82.84,56.896 84.517,54.382 84.517,51.959 C84.517,48.978 82.374,47.022 79.113,47.022 L76.225,47.022 C74.735,47.022 73.524,45.81 73.431,44.32 C73.431,43.202 72.779,37.333 66.443,37.333 C60.202,37.333 59.643,43.109 59.55,44.32 C59.457,45.81 58.246,47.022 56.755,47.022 C56.755,47.022 56.662,47.022 56.662,47.022 C55.078,46.929 53.96,45.625 53.96,44.134 C53.96,43.761 54.053,40.966 55.544,38.078 C57.034,35.097 59.457,33.141 62.531,32.209 C61.319,25.408 55.45,20.471 48.37,20.471 C41.663,20.471 35.98,25.036 34.396,31.557 C34.023,33.048 32.533,33.979 31.042,33.607 C29.551,33.233 28.621,31.743 28.993,30.252 C31.135,21.216 39.147,14.881 48.464,14.881 C58.525,14.881 66.723,22.147 68.214,31.836 C72.22,32.303 75.48,34.539 77.344,38.078 C77.996,39.289 78.368,40.408 78.648,41.432 L79.206,41.432 z" fill="#000000"/>
  </g>
</svg>
