<?xml version="1.0" encoding="UTF-8"?>
<!DOCTYPE svg PUBLIC "-//W3C//DTD SVG 1.1//EN" "http://www.w3.org/Graphics/SVG/1.1/DTD/svg11.dtd">
<svg version="1.1" xmlns="http://www.w3.org/2000/svg" xmlns:xlink="http://www.w3.org/1999/xlink" x="0" y="0"  viewBox="0, 0, 96, 96">
  <g id="Layer_1">
    <path d="M53.884,55.203 L52.823,55.203 C52.437,53.659 51.858,51.921 50.893,50.088 C47.708,44.103 42.013,40.821 34.967,40.821 C27.824,40.821 22.13,44.103 19.041,50.088 C18.075,52.017 17.496,53.948 17.11,55.492 C9.582,56.844 4.37,62.828 4.37,70.647 C4.37,78.561 9.968,84.642 17.689,85.897 C18.075,85.993 18.559,86.09 18.945,86.09 L53.884,86.09 C63.054,86.09 70.004,79.43 70.004,70.647 C70.004,61.67 63.247,55.203 53.884,55.203 z M53.884,78.368 L20.489,78.368 C14.697,78.368 12.092,74.411 12.092,70.647 C12.092,66.013 15.47,62.924 20.489,62.924 C22.516,62.924 24.253,61.284 24.349,59.16 C24.349,59.16 24.446,56.168 25.991,53.369 C27.728,50.088 30.72,48.446 34.87,48.446 C39.117,48.446 42.109,50.088 43.944,53.369 C45.487,56.168 45.68,59.16 45.68,59.16 C45.777,61.187 47.515,62.828 49.541,62.828 L53.884,62.828 C58.904,62.828 62.282,65.917 62.282,70.549 C62.282,74.315 59.676,78.368 53.884,78.368 z M80.332,44.875 C86.992,44.875 91.818,49.509 91.625,55.878 C91.625,62.056 86.703,66.785 80.235,66.785 L76.761,66.785 C75.119,66.785 73.865,65.531 73.865,63.89 C73.865,62.249 75.119,60.994 76.761,60.994 L80.235,60.994 C84.096,60.994 85.833,58.388 85.833,55.878 C85.833,52.789 83.614,50.763 80.235,50.763 L77.243,50.763 C75.699,50.763 74.444,49.509 74.347,47.964 C74.347,46.806 73.672,40.725 67.108,40.725 C60.641,40.725 60.062,46.709 59.966,47.964 C59.869,49.605 58.518,50.763 56.973,50.763 C55.333,50.667 54.175,49.316 54.175,47.771 C54.175,47.385 54.271,44.489 55.815,41.497 C56.008,41.207 56.105,40.918 56.298,40.628 C51.665,39.277 47.708,36.188 45.198,31.845 C42.495,27.115 42.013,21.517 43.558,16.401 C42.495,16.691 41.434,17.173 40.469,17.753 C34.87,20.937 32.071,27.597 33.616,33.872 C34.002,35.417 33.037,36.96 31.492,37.346 C29.948,37.732 28.403,36.767 28.017,35.224 C25.798,26.44 29.755,17.173 37.573,12.637 C40.951,10.707 44.716,9.741 48.576,9.934 C49.638,10.031 50.604,10.611 51.086,11.575 C51.569,12.444 51.472,13.602 50.893,14.471 C47.997,18.718 47.708,24.412 50.313,28.853 C52.823,33.196 57.359,35.802 62.379,35.609 C63.826,35.127 65.371,34.837 67.108,34.837 C72.128,34.837 76.182,37.153 78.401,41.4 C79.077,42.656 79.463,43.813 79.753,44.875 L80.332,44.875 z" fill="#000000"/>
  </g>
</svg>
