<?xml version="1.0" encoding="UTF-8"?>
<!DOCTYPE svg PUBLIC "-//W3C//DTD SVG 1.1//EN" "http://www.w3.org/Graphics/SVG/1.1/DTD/svg11.dtd">
<svg version="1.1" xmlns="http://www.w3.org/2000/svg" xmlns:xlink="http://www.w3.org/1999/xlink" x="0" y="0"  viewBox="0, 0, 96, 96">
  <g id="Layer_1">
    <path d="M53.772,50.672 L52.722,50.672 C52.34,49.146 51.767,47.427 50.814,45.614 C47.663,39.697 42.032,36.452 35.065,36.452 C28.004,36.452 22.372,39.697 19.318,45.614 C18.363,47.523 17.791,49.432 17.41,50.959 C9.965,52.295 4.812,58.212 4.812,65.943 C4.812,73.673 10.347,79.781 17.982,81.022 C18.363,81.118 18.841,81.213 19.223,81.213 L53.772,81.213 C62.839,81.213 69.71,74.628 69.71,65.943 C69.71,57.066 63.029,50.672 53.772,50.672 z M53.772,73.578 L20.75,73.578 C15.023,73.578 12.446,69.664 12.446,65.943 C12.446,61.362 15.787,58.308 20.75,58.308 C22.754,58.308 24.472,56.685 24.568,54.585 C24.568,54.585 24.663,51.627 26.19,48.859 C27.908,45.614 30.867,43.991 34.97,43.991 C39.169,43.991 42.128,45.614 43.942,48.859 C45.468,51.627 45.659,54.585 45.659,54.585 C45.755,56.589 47.473,58.212 49.477,58.212 L53.772,58.212 C58.734,58.212 62.075,61.266 62.075,65.848 C62.075,69.569 59.498,73.578 53.772,73.578 z M75.532,45.423 C75.532,47.809 74.959,50.195 74.004,52.295 C73.433,53.249 72.478,53.822 71.428,53.822 C70.95,53.822 70.473,53.726 70.092,53.535 C68.66,52.868 68.087,51.149 68.851,49.717 C69.519,48.477 69.901,47.045 69.901,45.519 C69.901,40.46 65.797,36.357 60.738,36.357 C58.925,36.357 57.112,36.833 55.585,37.883 C54.248,38.743 52.435,38.456 51.576,37.12 C50.718,35.784 51.003,33.97 52.34,33.112 C54.726,31.394 57.684,30.534 60.644,30.534 C68.851,30.534 75.532,37.215 75.532,45.423 z M60.644,25.954 C59.116,25.954 57.78,24.713 57.78,23.091 L57.78,17.65 C57.78,16.028 59.021,14.787 60.644,14.787 C62.266,14.787 63.507,16.028 63.507,17.65 L63.507,23.091 C63.507,24.713 62.266,25.954 60.644,25.954 z M88.416,42.56 C89.944,42.56 91.279,43.8 91.184,45.423 C91.184,47.045 89.944,48.286 88.321,48.286 L82.881,48.286 C81.258,48.286 80.018,47.045 80.018,45.423 C80.018,43.8 81.258,42.56 82.881,42.56 L88.416,42.56 z M76.391,32.539 C75.627,32.539 74.959,32.253 74.386,31.68 C73.242,30.63 73.242,28.817 74.386,27.671 L78.204,23.854 C79.254,22.709 81.067,22.709 82.213,23.854 C83.358,24.904 83.358,26.718 82.213,27.862 L78.395,31.68 C77.822,32.253 77.154,32.539 76.391,32.539 z M78.395,59.167 L82.213,62.984 C83.358,64.034 83.358,65.848 82.213,66.992 C81.64,67.565 80.972,67.851 80.209,67.851 C79.541,67.851 78.777,67.565 78.204,66.992 L74.386,63.174 C73.242,62.125 73.242,60.311 74.386,59.167 C75.436,58.021 77.249,58.021 78.395,59.167 z M42.892,31.68 L39.074,27.862 C37.928,26.812 37.928,24.999 39.074,23.854 C40.124,22.709 41.937,22.709 43.083,23.854 L46.9,27.671 C48.045,28.721 48.045,30.534 46.9,31.68 C46.328,32.253 45.659,32.539 44.895,32.539 C44.228,32.539 43.464,32.253 42.892,31.68 z" fill="#000000"/>
  </g>
</svg>
