<?xml version="1.0" encoding="UTF-8"?>
<!DOCTYPE svg PUBLIC "-//W3C//DTD SVG 1.1//EN" "http://www.w3.org/Graphics/SVG/1.1/DTD/svg11.dtd">
<svg version="1.1" xmlns="http://www.w3.org/2000/svg" xmlns:xlink="http://www.w3.org/1999/xlink" x="0" y="0"  viewBox="0, 0, 96, 96">
  <g id="Layer_1">
    <path d="M53.876,50.738 L52.8,50.738 C52.41,49.173 51.823,47.413 50.845,45.556 C47.619,39.495 41.852,36.172 34.716,36.172 C27.482,36.172 21.715,39.495 18.586,45.556 C17.609,47.512 17.023,49.466 16.631,51.031 C9.006,52.399 3.728,58.46 3.728,66.378 C3.728,74.296 9.397,80.552 17.218,81.823 C17.609,81.921 18.098,82.019 18.489,82.019 L53.876,82.019 C63.163,82.019 70.2,75.273 70.2,66.378 C70.2,57.287 63.358,50.738 53.876,50.738 z M53.876,74.199 L20.052,74.199 C14.187,74.199 11.548,70.19 11.548,66.378 C11.548,61.686 14.97,58.558 20.052,58.558 C22.203,58.558 23.865,56.895 23.963,54.745 C23.963,53.669 24.55,43.894 34.618,43.894 C38.919,43.894 41.95,45.556 43.807,48.88 C45.371,51.714 45.566,54.745 45.566,54.745 C45.664,56.798 47.424,58.46 49.477,58.46 L53.876,58.46 C58.959,58.46 62.38,61.588 62.38,66.28 C62.38,70.093 59.74,74.199 53.876,74.199 z M91.804,46.24 C92.391,47.12 92.391,48.293 92,49.271 C89.85,53.376 86.624,56.7 82.713,58.948 C80.856,60.024 78.9,60.806 76.847,61.393 C76.554,61.49 76.359,61.49 76.066,61.49 C74.795,61.49 73.623,60.611 73.231,59.34 C72.743,57.775 73.72,56.114 75.284,55.722 C76.75,55.332 78.314,54.647 79.683,53.865 C81.15,52.888 82.616,51.813 83.788,50.541 C77.337,49.368 71.471,45.361 68.05,39.495 C64.726,33.631 64.14,26.592 66.388,20.335 C64.726,20.727 63.065,21.411 61.5,22.291 C57.394,24.637 54.364,28.547 53.093,33.141 C52.605,34.706 51.04,35.585 49.477,35.194 C47.912,34.804 47.033,33.141 47.424,31.578 C49.086,25.517 53.093,20.335 58.567,17.207 C62.576,14.861 67.072,13.786 71.57,13.981 C72.645,14.079 73.623,14.666 74.111,15.644 C74.599,16.524 74.501,17.696 73.916,18.575 C70.298,23.953 70.005,30.991 73.231,36.562 C76.457,42.233 82.713,45.459 89.165,44.969 C90.143,44.872 91.218,45.361 91.804,46.24 z" fill="#000000"/>
  </g>
</svg>
