<?xml version="1.0" encoding="UTF-8"?>
<!DOCTYPE svg PUBLIC "-//W3C//DTD SVG 1.1//EN" "http://www.w3.org/Graphics/SVG/1.1/DTD/svg11.dtd">
<svg version="1.1" xmlns="http://www.w3.org/2000/svg" xmlns:xlink="http://www.w3.org/1999/xlink" x="0" y="0"  viewBox="0, 0, 96, 96">
  <g id="Layer_1">
    <path d="M69.518,27.088 L68.146,27.088 C67.647,25.092 66.898,22.846 65.651,20.476 C61.535,12.742 54.175,8.501 45.068,8.501 C35.838,8.501 28.478,12.742 24.486,20.476 C23.238,22.971 22.49,25.466 21.991,27.461 C12.262,29.208 5.525,36.942 5.525,47.046 C5.525,53.533 8.643,59.521 13.759,63.138 C16.004,64.76 19.122,64.261 20.743,62.015 C22.366,59.77 21.867,56.652 19.621,55.03 C17.126,53.283 15.629,50.289 15.629,47.046 C15.629,41.058 19.995,37.067 26.482,37.067 C29.226,37.067 31.347,34.946 31.471,32.202 C31.471,30.83 32.22,18.355 45.068,18.355 C50.557,18.355 54.425,20.476 56.794,24.717 C58.79,28.335 59.04,32.202 59.04,32.202 C59.164,34.822 61.409,36.942 64.03,36.942 L69.643,36.942 C76.129,36.942 80.495,40.934 80.495,46.922 C80.495,51.912 77.253,55.654 72.387,56.652 C69.643,57.151 67.896,59.77 68.395,62.514 C68.894,64.884 70.89,66.506 73.261,66.506 C73.634,66.506 73.884,66.506 74.259,66.381 C83.864,64.51 90.475,56.527 90.475,46.797 C90.35,35.57 81.618,27.088 69.518,27.088 z" fill="#000000"/>
    <path d="M33.045,48.026 C30.944,47.475 28.843,48.69 28.29,50.791 L22.098,73.677 C21.546,75.779 22.763,77.879 24.863,78.433 C25.194,78.543 25.527,78.543 25.858,78.543 C27.516,78.543 29.176,77.437 29.617,75.668 L35.809,52.782 C36.362,50.682 35.145,48.579 33.045,48.026 z" fill="#000000"/>
    <path d="M43.77,56.983 C41.668,56.429 39.568,57.645 39.015,59.747 L32.824,82.634 C32.271,84.735 33.487,86.836 35.589,87.388 C35.92,87.499 36.25,87.499 36.582,87.499 C38.242,87.499 39.899,86.393 40.342,84.623 L46.533,61.737 C46.976,59.747 45.759,57.645 43.77,56.983 z" fill="#000000"/>
    <g>
      <path d="M58.477,67.504 C59.549,67.504 60.427,66.627 60.427,65.555 L60.427,63.606 C60.427,62.535 59.549,61.657 58.477,61.657 C57.405,61.657 56.529,62.535 56.529,63.606 L56.529,65.555 C56.529,66.676 57.405,67.504 58.477,67.504 z" fill="#000000"/>
      <path d="M58.477,71.694 C57.844,71.694 57.21,71.938 56.773,72.426 C56.333,72.863 56.041,73.497 56.041,74.129 C56.041,74.764 56.285,75.397 56.773,75.835 C57.21,76.274 57.844,76.567 58.477,76.567 C59.11,76.567 59.744,76.323 60.183,75.835 C60.621,75.397 60.914,74.764 60.914,74.129 C60.914,73.497 60.67,72.863 60.183,72.426 C59.744,71.938 59.11,71.694 58.477,71.694 z" fill="#000000"/>
      <path d="M58.477,80.757 C57.405,80.757 56.529,81.634 56.529,82.705 L56.529,84.655 C56.529,85.726 57.405,86.605 58.477,86.605 C59.549,86.605 60.427,85.726 60.427,84.655 L60.427,82.705 C60.427,81.586 59.549,80.757 58.477,80.757 z" fill="#000000"/>
      <path d="M65.884,71.792 C66.224,71.792 66.567,71.695 66.858,71.548 L68.563,70.574 C69.489,70.037 69.83,68.819 69.295,67.894 C68.758,66.967 67.54,66.627 66.615,67.162 L64.909,68.137 C63.982,68.672 63.643,69.89 64.178,70.817 C64.567,71.451 65.202,71.792 65.884,71.792 z" fill="#000000"/>
      <path d="M50.096,76.713 L48.391,77.688 C47.465,78.223 47.124,79.442 47.66,80.368 C48.001,81 48.683,81.342 49.366,81.342 C49.707,81.342 50.048,81.243 50.34,81.098 L52.046,80.124 C52.97,79.587 53.312,78.369 52.776,77.444 C52.241,76.518 51.023,76.177 50.096,76.713 z" fill="#000000"/>
      <path d="M68.563,77.688 L66.858,76.713 C65.932,76.177 64.714,76.518 64.178,77.444 C63.643,78.369 63.982,79.587 64.909,80.124 L66.615,81.098 C66.906,81.292 67.247,81.342 67.589,81.342 C68.27,81.342 68.904,81 69.295,80.368 C69.83,79.442 69.489,78.223 68.563,77.688 z" fill="#000000"/>
      <path d="M52.046,68.187 L50.34,67.211 C49.415,66.676 48.196,66.967 47.66,67.943 C47.124,68.916 47.416,70.086 48.391,70.622 L50.096,71.596 C50.389,71.792 50.73,71.84 51.072,71.84 C51.754,71.84 52.387,71.499 52.776,70.866 C53.312,69.89 52.97,68.722 52.046,68.187 z" fill="#000000"/>
    </g>
  </g>
</svg>
