<?xml version="1.0" encoding="UTF-8"?>
<!DOCTYPE svg PUBLIC "-//W3C//DTD SVG 1.1//EN" "http://www.w3.org/Graphics/SVG/1.1/DTD/svg11.dtd">
<svg version="1.1" xmlns="http://www.w3.org/2000/svg" xmlns:xlink="http://www.w3.org/1999/xlink" x="0" y="0"  viewBox="0, 0, 96, 96">
  <g id="Layer_1">
    <path d="M69.751,27.193 L68.367,27.193 C67.865,25.181 67.11,22.918 65.853,20.529 C61.703,12.735 54.286,8.46 45.109,8.46 C35.804,8.46 28.387,12.735 24.364,20.529 C23.107,23.043 22.353,25.559 21.849,27.57 C12.043,29.33 5.254,37.125 5.254,47.308 C5.254,54.601 8.9,61.013 15.186,64.659 C17.575,66.041 20.718,65.161 22.101,62.772 C23.484,60.384 22.603,57.241 20.215,55.858 C17.198,54.097 15.437,50.954 15.437,47.308 C15.437,41.274 19.838,37.251 26.376,37.251 C29.142,37.251 31.279,35.114 31.404,32.348 C31.279,30.964 32.033,18.392 44.982,18.392 C50.514,18.392 54.412,20.529 56.801,24.804 C58.812,28.45 59.064,32.348 59.064,32.348 C59.189,34.987 61.453,37.125 64.092,37.125 L69.751,37.125 C76.288,37.125 80.688,41.148 80.688,47.183 C80.688,52.086 77.293,57.241 69.751,57.241 L66.985,57.241 C64.219,57.241 61.955,59.504 61.955,62.27 C61.955,65.036 64.219,67.298 66.985,67.298 L69.751,67.298 C81.693,67.298 90.746,58.624 90.746,47.183 C90.746,35.616 81.945,27.193 69.751,27.193 z" fill="#000000"/>
    <path d="M46.618,67.675 C45.611,67.675 44.731,68.179 44.102,68.932 C42.971,70.441 39.074,75.848 39.074,79.619 C39.074,84.523 42.845,87.54 46.618,87.54 C50.389,87.54 54.16,84.523 54.16,79.619 C54.16,75.723 50.389,70.441 49.132,68.932 C48.503,68.053 47.623,67.675 46.618,67.675 z" fill="#000000"/>
    <path d="M36.559,53.217 C35.554,51.96 33.542,51.96 32.536,53.217 C31.656,54.349 28.765,58.498 28.765,61.39 C28.765,65.161 31.656,67.425 34.547,67.425 C37.44,67.425 40.331,65.161 40.331,61.39 C40.331,58.372 37.44,54.349 36.559,53.217 z" fill="#000000"/>
    <path d="M54.286,45.799 C53.657,45.799 53.155,46.051 52.778,46.554 C52.023,47.56 49.509,51.081 49.509,53.595 C49.509,56.738 51.898,58.624 54.286,58.624 L54.286,58.624 C56.675,58.624 59.064,56.738 59.064,53.595 C59.064,51.96 56.423,45.799 54.286,45.799 z" fill="#000000"/>
  </g>
</svg>
