<?xml version="1.0" encoding="UTF-8"?>
<!DOCTYPE svg PUBLIC "-//W3C//DTD SVG 1.1//EN" "http://www.w3.org/Graphics/SVG/1.1/DTD/svg11.dtd">
<svg version="1.1" xmlns="http://www.w3.org/2000/svg" xmlns:xlink="http://www.w3.org/1999/xlink" x="0" y="0"  viewBox="0, 0, 96, 96">
  <g id="Layer_1">
    <path d="M18.331,14.368 L67.815,14.368 C70.172,14.368 72.1,12.44 72.1,10.083 C72.1,7.727 70.172,5.799 67.815,5.799 L18.331,5.799 C15.974,5.799 14.046,7.727 14.046,10.083 C14.046,12.44 15.974,14.368 18.331,14.368 z M68.136,29.042 C68.136,31.398 66.209,33.326 63.852,33.326 L14.582,33.326 C12.226,33.326 10.298,31.398 10.298,29.042 C10.298,26.685 12.226,24.757 14.582,24.757 L63.852,24.757 C66.209,24.757 68.136,26.685 68.136,29.042 z M77.348,43.609 C79.704,43.609 81.632,45.536 81.632,47.893 C81.632,50.249 79.704,52.177 77.348,52.177 L33.647,52.177 C31.291,52.177 29.363,50.249 29.363,47.893 C29.363,45.536 31.291,43.609 33.647,43.609 L77.348,43.609 z M80.775,5.264 C83.453,5.264 85.595,7.406 85.702,10.083 C85.702,12.761 83.56,14.903 80.882,14.903 L80.668,14.903 C77.991,14.903 75.848,12.761 75.848,10.083 C75.848,7.406 77.991,5.264 80.668,5.264 L80.775,5.264 z M66.53,62.888 C68.886,62.888 70.814,64.816 70.814,67.173 C70.814,69.529 68.886,71.457 66.53,71.457 L41.252,71.457 C38.896,71.457 36.968,69.529 36.968,67.173 C36.968,64.816 38.896,62.888 41.252,62.888 L66.53,62.888 z M49.071,82.168 C51.427,82.168 53.355,84.096 53.355,86.452 C53.355,88.809 51.427,90.736 49.071,90.736 L37.075,90.736 C34.718,90.736 32.791,88.809 32.791,86.452 C32.791,84.096 34.718,82.168 37.075,82.168 L49.071,82.168 z" fill="#000000"/>
  </g>
</svg>
