<?xml version="1.0" encoding="UTF-8"?>
<!DOCTYPE svg PUBLIC "-//W3C//DTD SVG 1.1//EN" "http://www.w3.org/Graphics/SVG/1.1/DTD/svg11.dtd">
<svg version="1.1" xmlns="http://www.w3.org/2000/svg" xmlns:xlink="http://www.w3.org/1999/xlink" x="0" y="0"  viewBox="0, 0, 96, 96">
  <g id="Layer_1">
    <path d="M8.205,40.829 C8.205,36.506 9.584,32.688 12.342,29.328 C15.101,25.978 18.64,23.766 22.963,22.755 C24.022,17.651 26.595,13.421 30.781,10.112 C34.963,6.8 39.747,5.149 45.126,5.149 C50.275,5.149 54.918,6.755 58.918,9.926 C62.966,13.101 65.587,17.238 66.829,22.342 L68.115,22.342 C71.61,22.342 74.829,23.078 77.862,24.595 C80.899,26.112 83.29,28.134 85.082,30.755 C86.877,33.379 87.795,36.182 87.795,39.216 C87.795,44.368 85.818,48.778 81.862,52.368 C81.862,53.978 81.357,55.814 80.394,57.882 C79.379,59.955 78.093,61.837 76.39,63.542 C74.736,65.242 73.037,66.256 71.334,66.666 C70.784,69.52 69.45,71.91 67.379,73.888 C65.312,75.866 62.829,77.152 59.885,77.792 C61.264,79.174 61.955,80.781 61.955,82.666 C61.955,84.922 61.171,86.854 59.565,88.464 C57.955,90.07 56.022,90.854 53.725,90.854 C51.472,90.854 49.539,90.07 47.93,88.464 C46.32,86.854 45.494,84.922 45.494,82.666 C45.494,82.39 45.539,82.022 45.677,81.475 C45.814,80.922 45.862,80.509 45.862,80.234 L45.494,80.234 C42.781,80.234 40.483,79.267 38.55,77.334 C36.621,75.402 35.654,73.056 35.654,70.39 C35.654,69.334 36.205,67.722 37.354,65.52 C35.101,64.323 33.309,62.435 31.974,59.722 L26.227,59.722 C21.216,59.312 16.941,57.29 13.446,53.744 C9.952,50.16 8.205,45.84 8.205,40.829 z" fill="#000000"/>
  </g>
</svg>
