<?xml version="1.0" encoding="UTF-8"?>
<!DOCTYPE svg PUBLIC "-//W3C//DTD SVG 1.1//EN" "http://www.w3.org/Graphics/SVG/1.1/DTD/svg11.dtd">
<svg version="1.1" xmlns="http://www.w3.org/2000/svg" xmlns:xlink="http://www.w3.org/1999/xlink" x="0" y="0"  viewBox="0, 0, 96, 96">
  <g id="Layer_1">
    <path d="M4.604,48.087 C4.604,46.992 5.005,46.012 5.753,45.206 C6.502,44.4 7.423,43.999 8.518,43.999 C9.614,43.999 10.593,44.4 11.341,45.206 C12.09,46.012 12.494,46.934 12.494,48.087 C12.494,49.182 12.09,50.104 11.341,50.852 C10.593,51.6 9.614,52.001 8.576,52.001 C7.539,52.001 6.559,51.6 5.811,50.852 C4.947,50.046 4.604,49.124 4.604,48.087 z M16.008,48.087 C16.008,46.992 16.409,46.012 17.157,45.206 C17.905,44.4 18.827,43.999 19.922,43.999 L38.526,43.999 L25.395,30.867 C24.589,30.173 24.184,29.252 24.184,28.16 C24.184,27.065 24.589,26.143 25.395,25.337 C26.201,24.531 27.122,24.126 28.217,24.126 C29.309,24.126 30.231,24.531 31.037,25.337 L44.111,38.411 L44.111,19.922 C44.111,18.827 44.516,17.848 45.322,17.042 C46.128,16.236 47.049,15.834 48.202,15.834 C49.297,15.834 50.216,16.236 50.967,17.042 C51.716,17.848 52.117,18.769 52.117,19.922 L52.117,38.526 L65.307,25.279 C66.113,24.473 67.034,24.068 68.072,24.068 C69.109,24.068 70.088,24.473 70.894,25.279 C71.585,26.085 71.932,27.007 71.932,28.102 C71.932,29.197 71.585,30.115 70.894,30.809 L57.763,43.941 L76.367,43.941 C77.401,43.941 78.323,44.342 79.071,45.148 C79.822,45.954 80.224,46.876 80.224,48.029 C80.224,49.066 79.822,49.988 79.071,50.736 C78.323,51.484 77.401,51.889 76.367,51.889 L57.763,51.889 L70.952,65.075 C71.643,65.769 71.99,66.691 71.99,67.783 C71.99,68.878 71.643,69.799 70.952,70.605 C70.146,71.411 69.167,71.816 68.129,71.816 C67.092,71.816 66.113,71.411 65.364,70.605 L52.175,57.358 L52.175,76.02 C52.175,77.115 51.773,78.094 51.025,78.843 C50.274,79.591 49.352,79.992 48.26,79.992 C47.165,79.992 46.186,79.591 45.379,78.843 C44.573,78.094 44.169,77.115 44.169,76.02 L44.169,57.474 L31.095,70.548 C30.289,71.354 29.367,71.758 28.275,71.758 C27.18,71.758 26.258,71.354 25.452,70.548 C24.646,69.742 24.242,68.82 24.242,67.725 C24.242,66.633 24.646,65.769 25.452,65.021 L38.7,51.831 L20.038,51.831 C18.943,51.831 18.021,51.427 17.273,50.678 C16.351,50.046 16.008,49.124 16.008,48.087 z M16.065,75.962 C16.065,74.925 16.467,73.945 17.273,73.197 C17.963,72.391 18.885,71.99 19.98,71.99 C21.075,71.99 21.997,72.391 22.803,73.197 C23.609,74.003 24.01,74.925 24.01,75.962 C24.01,76.999 23.609,77.979 22.803,78.727 C21.997,79.533 21.075,79.935 19.98,79.935 C18.885,79.935 17.963,79.533 17.273,78.727 C16.467,77.979 16.065,77.057 16.065,75.962 z M16.065,20.038 C16.065,19.001 16.467,18.021 17.273,17.273 C17.963,16.467 18.885,16.065 19.98,16.065 C21.075,16.065 21.997,16.467 22.803,17.273 C23.609,18.079 24.01,19.001 24.01,20.038 C24.01,21.075 23.609,22.055 22.803,22.861 C21.997,23.667 21.075,24.068 19.98,24.068 C18.885,24.068 17.963,23.667 17.273,22.861 C16.467,22.055 16.065,21.075 16.065,20.038 z M43.999,87.482 C43.999,86.444 44.4,85.523 45.206,84.774 C46.012,84.026 46.934,83.621 48.087,83.621 C49.182,83.621 50.104,84.026 50.852,84.774 C51.6,85.523 52.001,86.444 52.001,87.482 C52.001,88.577 51.6,89.553 50.852,90.304 C50.104,91.053 49.182,91.454 48.087,91.454 C46.992,91.454 46.012,91.053 45.206,90.304 C44.4,89.553 43.999,88.634 43.999,87.482 z M43.999,8.518 C43.999,7.423 44.4,6.447 45.206,5.696 C46.012,4.947 46.934,4.546 48.087,4.546 C49.182,4.546 50.104,4.947 50.852,5.696 C51.6,6.447 52.001,7.423 52.001,8.518 C52.001,9.556 51.6,10.477 50.852,11.226 C50.104,11.974 49.182,12.379 48.087,12.379 C46.992,12.379 46.012,11.974 45.206,11.226 C44.4,10.477 43.999,9.556 43.999,8.518 z M72.044,75.962 C72.044,74.925 72.449,73.945 73.255,73.197 C73.945,72.391 74.867,71.99 75.962,71.99 C77.057,71.99 77.979,72.391 78.785,73.197 C79.591,74.003 79.992,74.925 79.992,75.962 C79.992,76.999 79.591,77.979 78.785,78.727 C77.979,79.533 77.057,79.935 75.962,79.935 C74.867,79.935 73.945,79.533 73.255,78.727 C72.449,77.979 72.044,77.057 72.044,75.962 z M72.044,20.038 C72.044,19.001 72.449,18.021 73.255,17.273 C73.945,16.467 74.867,16.065 75.962,16.065 C77.057,16.065 77.979,16.467 78.785,17.273 C79.591,18.079 79.992,19.001 79.992,20.038 C79.992,21.075 79.591,22.055 78.785,22.861 C77.979,23.667 77.057,24.068 75.962,24.068 C74.867,24.068 73.945,23.667 73.255,22.861 C72.449,22.055 72.044,21.075 72.044,20.038 z M83.564,48.087 C83.564,46.992 83.968,46.012 84.717,45.206 C85.465,44.4 86.444,43.999 87.539,43.999 C88.577,43.999 89.498,44.4 90.247,45.206 C90.995,46.012 91.396,46.934 91.396,48.087 C91.396,49.124 90.995,50.046 90.247,50.794 C89.498,51.542 88.577,51.944 87.539,51.944 C86.444,51.944 85.465,51.542 84.717,50.794 C83.968,50.046 83.564,49.124 83.564,48.087 z" fill="#000000"/>
  </g>
</svg>
