<?xml version="1.0" encoding="UTF-8"?>
<!DOCTYPE svg PUBLIC "-//W3C//DTD SVG 1.1//EN" "http://www.w3.org/Graphics/SVG/1.1/DTD/svg11.dtd">
<svg version="1.1" xmlns="http://www.w3.org/2000/svg" xmlns:xlink="http://www.w3.org/1999/xlink" x="0" y="0"  viewBox="0, 0, 96, 96">
  <g id="Layer_1">
    <path d="M70.187,26.133 L68.779,26.133 C68.269,24.087 67.501,21.785 66.222,19.355 C62.002,11.426 54.457,7.079 45.122,7.079 C35.659,7.079 28.114,11.426 24.022,19.355 C22.744,21.912 21.976,24.471 21.464,26.516 C11.489,28.306 4.585,36.235 4.585,46.594 C4.585,52.22 6.758,57.335 10.595,61.172 C12.64,63.09 15.838,63.09 17.883,61.043 C19.802,58.998 19.802,55.8 17.756,53.755 C15.838,51.837 14.815,49.279 14.815,46.465 C14.815,40.327 19.291,36.235 25.94,36.235 C28.754,36.235 30.928,34.061 31.055,31.247 C31.055,29.841 31.822,17.053 44.994,17.053 C50.62,17.053 54.585,19.227 57.015,23.575 C59.061,27.284 59.316,31.247 59.316,31.247 C59.444,33.933 61.746,36.108 64.432,36.108 L70.187,36.108 C76.836,36.108 81.312,40.2 81.312,46.337 C81.312,50.814 78.754,54.394 74.534,55.929 C71.849,56.824 70.442,59.765 71.338,62.451 C72.104,64.624 74.022,65.903 76.197,65.903 C76.708,65.903 77.348,65.775 77.859,65.647 C86.171,62.834 91.414,55.289 91.414,46.465 C91.542,34.7 82.591,26.133 70.187,26.133 z M45.634,53.882 C43.46,53.882 41.797,52.22 41.797,50.046 L41.797,46.465 C41.797,44.292 43.46,42.629 45.634,42.629 C47.808,42.629 49.47,44.292 49.47,46.465 L49.47,50.046 C49.47,52.22 47.808,53.882 45.634,53.882 z M45.634,60.66 C46.912,60.66 48.319,61.172 49.214,62.194 C50.238,63.09 50.749,64.369 50.749,65.775 C50.749,67.054 50.238,68.461 49.214,69.356 C48.319,70.379 47.04,70.89 45.634,70.89 C44.355,70.89 42.948,70.379 42.053,69.356 C41.03,68.461 40.518,67.054 40.518,65.775 C40.518,64.496 41.158,63.09 42.053,62.194 C42.948,61.172 44.226,60.66 45.634,60.66 z M45.634,77.668 C47.808,77.668 49.47,79.331 49.47,81.504 L49.47,85.084 C49.47,87.259 47.808,88.921 45.634,88.921 C43.46,88.921 41.797,87.259 41.797,85.084 L41.797,81.504 C41.797,79.331 43.46,77.668 45.634,77.668 z M60.467,52.731 C62.258,51.708 64.687,52.347 65.71,54.139 C66.734,55.929 66.094,58.359 64.304,59.381 L61.107,61.172 C60.467,61.555 59.828,61.683 59.189,61.683 C57.91,61.683 56.632,61.043 55.864,59.765 C54.841,57.975 55.481,55.545 57.271,54.522 L60.467,52.731 z M30.16,70.379 C31.95,69.228 34.252,69.867 35.403,71.786 C36.426,73.576 35.787,76.006 33.997,77.029 L30.799,78.819 C30.16,79.202 29.521,79.331 28.881,79.331 C27.603,79.331 26.324,78.69 25.556,77.412 C24.534,75.622 25.173,73.192 26.963,72.169 L30.16,70.379 z M64.304,72.169 C66.094,73.192 66.734,75.494 65.71,77.412 C64.943,78.692 63.665,79.331 62.385,79.331 C61.746,79.331 61.107,79.202 60.467,78.819 L57.271,77.029 C55.481,76.006 54.841,73.576 55.864,71.786 C56.887,69.996 59.316,69.356 61.107,70.379 L64.304,72.169 z M26.963,59.381 C25.173,58.359 24.534,56.057 25.556,54.139 C26.579,52.347 29.009,51.708 30.799,52.731 L33.997,54.522 C35.787,55.545 36.426,57.975 35.403,59.765 C34.636,61.043 33.357,61.683 32.079,61.683 C31.439,61.683 30.799,61.555 30.16,61.172 L26.963,59.381 z" fill="#000000"/>
  </g>
</svg>
