<?xml version="1.0" encoding="UTF-8"?>
<!DOCTYPE svg PUBLIC "-//W3C//DTD SVG 1.1//EN" "http://www.w3.org/Graphics/SVG/1.1/DTD/svg11.dtd">
<svg version="1.1" xmlns="http://www.w3.org/2000/svg" xmlns:xlink="http://www.w3.org/1999/xlink" x="0" y="0"  viewBox="0, 0, 96, 96">
  <g id="Layer_1">
    <path d="M48,25.554 C35.656,25.554 25.554,35.654 25.554,48 C25.554,60.344 35.656,70.445 48,70.445 C60.345,70.445 70.445,60.344 70.445,48 C70.445,35.654 60.345,25.554 48,25.554 z M48,62.283 C40.145,62.283 33.716,55.855 33.716,48 C33.716,40.144 40.145,33.716 48,33.716 C55.855,33.716 62.284,40.144 62.284,48 C62.284,55.855 55.855,62.283 48,62.283 z M48,18.106 C45.756,18.106 43.919,16.372 43.919,14.025 L43.919,5.761 C43.919,3.517 45.756,1.681 48,1.681 C50.244,1.681 52.081,3.517 52.081,5.761 L52.081,14.025 C52.081,16.269 50.244,18.106 48,18.106 z M90.238,43.919 C92.483,43.919 94.319,45.755 94.319,48 C94.319,50.244 92.483,52.081 90.238,52.081 L81.973,52.081 C79.73,52.081 77.894,50.244 77.894,48 C77.894,45.755 79.73,43.919 81.973,43.919 L90.238,43.919 z M48,77.894 C50.244,77.894 52.081,79.627 52.081,81.973 L52.081,90.237 C52.081,92.482 50.244,94.319 48,94.319 C45.756,94.319 43.919,92.482 43.919,90.237 L43.919,81.973 C43.919,79.729 45.756,77.894 48,77.894 z M18.106,48 C18.106,50.244 16.372,52.081 14.025,52.081 L5.762,52.081 C3.517,52.081 1.681,50.244 1.681,48 C1.681,45.755 3.517,43.919 5.762,43.919 L14.025,43.919 C16.27,43.919 18.106,45.755 18.106,48 z M71.977,28.105 C70.955,28.105 69.935,27.697 69.018,26.88 C67.386,25.248 67.386,22.697 69.018,21.065 L74.935,15.148 C76.567,13.515 79.117,13.515 80.751,15.148 C82.382,16.78 82.382,19.331 80.751,20.963 L74.833,26.88 C74.016,27.697 72.997,28.105 71.977,28.105 z M74.833,69.119 L80.648,75.037 C82.279,76.668 82.279,79.219 80.648,80.852 C79.832,81.668 78.812,82.076 77.792,82.076 C76.77,82.076 75.751,81.668 74.935,80.852 L69.018,74.935 C67.386,73.303 67.386,70.751 69.018,69.119 C70.65,67.487 73.201,67.487 74.833,69.119 z M21.169,69.119 C22.697,67.487 25.35,67.487 26.881,69.119 C28.513,70.751 28.513,73.303 26.881,74.935 L20.964,80.852 C20.147,81.668 19.128,82.076 18.106,82.076 C17.086,82.076 16.066,81.668 15.25,80.852 C13.617,79.219 13.617,76.668 15.25,75.037 L21.169,69.119 z M21.167,26.88 L15.148,20.963 C13.516,19.331 13.516,16.78 15.148,15.148 C16.78,13.515 19.331,13.515 20.963,15.148 L26.881,21.065 C28.513,22.697 28.513,25.248 26.881,26.88 C26.065,27.697 25.044,28.105 24.024,28.105 C23.004,28.105 21.882,27.697 21.167,26.88 z" fill="#000000"/>
  </g>
</svg>
