<?xml version="1.0" encoding="UTF-8"?>
<!DOCTYPE svg PUBLIC "-//W3C//DTD SVG 1.1//EN" "http://www.w3.org/Graphics/SVG/1.1/DTD/svg11.dtd">
<svg version="1.1" xmlns="http://www.w3.org/2000/svg" xmlns:xlink="http://www.w3.org/1999/xlink" x="0" y="0"  viewBox="0, 0, 96, 96">
  <g id="Layer_1">
    <g>
      <path d="M64.693,34.283 L63.45,34.283 C62.997,32.473 62.318,30.436 61.187,28.287 C57.453,21.273 50.779,17.427 42.521,17.427 C34.149,17.427 27.474,21.273 23.853,28.287 C22.722,30.55 22.044,32.812 21.592,34.622 C12.767,36.206 6.658,43.22 6.658,52.383 C6.658,58.267 9.486,63.697 14.125,66.977 C16.161,68.448 18.989,67.995 20.46,65.959 C21.93,63.923 21.478,61.095 19.442,59.624 C17.179,58.04 15.822,55.326 15.822,52.383 C15.822,46.953 19.781,43.333 25.664,43.333 C28.152,43.333 30.075,41.41 30.189,38.921 C30.189,37.677 30.868,26.364 42.521,26.364 C47.498,26.364 51.006,28.287 53.154,32.134 C54.965,35.415 55.191,38.921 55.191,38.921 C55.304,41.297 57.34,43.22 59.716,43.22 L64.807,43.22 C70.69,43.22 74.649,46.841 74.649,52.27 C74.649,56.796 71.708,60.19 67.296,61.095 C64.807,61.548 63.223,63.923 63.675,66.412 C64.128,68.562 65.938,70.033 68.087,70.033 C68.427,70.033 68.654,70.033 68.992,69.919 C77.704,68.222 83.699,60.982 83.699,52.158 C83.586,41.976 75.667,34.283 64.693,34.283 z" fill="#000000"/>
      <path d="M32.904,53.288 C30.755,52.723 28.605,53.968 28.039,56.117 L21.704,79.535 C21.139,81.684 22.383,83.834 24.533,84.4 C24.872,84.513 25.211,84.513 25.551,84.513 C27.248,84.513 28.945,83.382 29.397,81.572 L35.732,58.154 C36.299,56.004 35.054,53.855 32.904,53.288 z" fill="#000000"/>
      <path d="M58.246,62.679 L53.267,62.679 L59.489,53.968 C59.829,53.402 59.942,52.723 59.603,52.158 C59.264,51.592 58.698,51.252 58.132,51.252 L45.688,51.252 C45.009,51.252 44.33,51.705 44.104,52.383 L37.203,70.258 C36.977,70.824 37.09,71.389 37.429,71.842 C37.769,72.294 38.222,72.521 38.787,72.521 L38.787,72.521 L42.407,72.521 L37.655,84.965 C37.317,85.758 37.655,86.549 38.335,87.001 C38.56,87.115 38.9,87.228 39.24,87.228 C39.692,87.228 40.145,87.001 40.484,86.663 L59.264,65.394 C59.716,64.941 59.829,64.149 59.489,63.584 C59.489,63.131 58.924,62.679 58.246,62.679 z" fill="#000000"/>
    </g>
    <path d="M88.873,30.86 C88.384,30.261 87.566,29.98 86.861,30.121 C82.192,30.931 77.406,29.019 74.655,25.114 C71.911,21.279 71.631,16.129 73.888,11.957 C74.254,11.273 74.243,10.411 73.824,9.805 C73.399,9.127 72.646,8.769 71.854,8.772 C68.564,8.946 65.362,10.047 62.607,12.038 C58.836,14.704 56.279,18.761 55.495,23.295 C55.32,24.463 56.078,25.613 57.246,25.788 C58.412,25.963 59.49,25.211 59.737,24.037 C60.341,20.599 62.273,17.536 65.101,15.537 C66.179,14.786 67.342,14.171 68.525,13.768 C67.328,18.487 68.251,23.575 71.085,27.616 C73.992,31.65 78.549,34.158 83.333,34.56 C82.568,35.569 81.575,36.455 80.575,37.271 C79.633,37.937 78.541,38.546 77.499,38.935 C76.386,39.329 75.791,40.609 76.258,41.716 C76.632,42.613 77.549,43.173 78.475,43.083 C78.689,43.063 78.832,43.048 79.039,42.956 C80.493,42.386 81.864,41.677 83.141,40.763 C85.834,38.849 87.95,36.199 89.229,33.056 C89.446,32.316 89.363,31.462 88.873,30.86 z" fill="#000000"/>
  </g>
</svg>
