<?xml version="1.0" encoding="UTF-8"?>
<!DOCTYPE svg PUBLIC "-//W3C//DTD SVG 1.1//EN" "http://www.w3.org/Graphics/SVG/1.1/DTD/svg11.dtd">
<svg version="1.1" xmlns="http://www.w3.org/2000/svg" xmlns:xlink="http://www.w3.org/1999/xlink" x="0" y="0"  viewBox="0, 0, 96, 96">
  <g id="Layer_2">
    <path d="M15.824,12.194 L64.563,12.194 C66.884,12.194 68.782,10.295 68.782,7.974 C68.782,5.653 66.884,3.755 64.563,3.755 L15.824,3.755 C13.503,3.755 11.604,5.653 11.604,7.974 C11.604,10.295 13.503,12.194 15.824,12.194 z M38.14,26.647 C38.14,28.968 36.242,30.867 33.921,30.867 L12.132,30.867 C9.811,30.867 7.912,28.968 7.912,26.647 C7.912,24.326 9.811,22.427 12.132,22.427 L33.921,22.427 C36.242,22.427 38.14,24.326 38.14,26.647 z M66.434,40.994 C68.755,40.994 70.654,42.893 70.654,45.214 C70.654,47.535 68.755,49.434 66.434,49.434 L36.815,49.434 C34.495,49.434 32.596,47.535 32.596,45.214 C32.596,42.893 34.495,40.994 36.815,40.994 L66.434,40.994 z M77.327,3.227 C79.965,3.227 82.075,5.337 82.18,7.974 C82.18,10.612 80.07,12.722 77.433,12.722 L77.222,12.722 C74.585,12.722 72.475,10.612 72.475,7.974 C72.475,5.337 74.585,3.227 77.222,3.227 L77.327,3.227 z M52.824,59.983 C55.145,59.983 57.044,61.882 57.044,64.203 C57.044,66.524 55.145,68.423 52.824,68.423 L35.235,68.423 C32.914,68.423 31.015,66.524 31.015,64.203 C31.015,61.882 32.914,59.983 35.235,59.983 L52.824,59.983 z M39.718,78.972 C42.039,78.972 43.937,80.871 43.937,83.192 C43.937,85.513 42.039,87.412 39.718,87.412 L31.121,87.412 C28.8,87.412 26.901,85.513 26.901,83.192 C26.901,80.871 28.8,78.972 31.121,78.972 L39.718,78.972 z M70.365,29.917 C80.598,29.917 87.982,37.091 88.088,46.585 C88.088,54.814 82.497,61.566 74.374,63.148 C74.057,63.253 73.846,63.253 73.53,63.253 C71.525,63.253 69.837,61.882 69.415,59.878 C68.993,57.557 70.47,55.341 72.791,54.919 C76.905,54.075 79.648,50.911 79.648,46.691 C79.648,41.627 75.956,38.251 70.47,38.251 L65.723,38.251 C63.508,38.251 61.609,36.458 61.503,34.242 C61.503,34.242 61.292,30.972 59.604,27.913 C57.6,24.326 54.33,22.533 49.688,22.533 C38.822,22.533 38.189,33.082 38.189,34.242 C38.084,36.563 36.29,38.357 33.969,38.357 C28.484,38.357 24.791,41.733 24.791,46.796 C24.791,49.539 26.057,52.071 28.167,53.548 C30.066,54.919 30.488,57.557 29.116,59.456 C27.745,61.355 25.108,61.777 23.209,60.405 C18.884,57.346 16.246,52.282 16.246,46.796 C16.246,38.251 21.943,31.711 30.171,30.234 C30.593,28.546 31.226,26.436 32.281,24.326 C35.657,17.785 41.881,14.199 49.688,14.199 C57.389,14.199 63.613,17.785 67.095,24.326 C68.149,26.33 68.782,28.229 69.204,29.917 L70.365,29.917 z M71.281,74.009 C71.8,74.009 72.232,74.355 72.232,74.702 C72.491,75.133 72.404,75.738 72.059,76.084 L57.704,92.341 C57.445,92.6 57.099,92.773 56.753,92.773 C56.493,92.773 56.234,92.686 56.061,92.6 C55.543,92.255 55.283,91.649 55.543,91.044 L59.174,81.531 L56.407,81.531 L56.407,81.531 C55.974,81.531 55.629,81.358 55.37,81.015 C55.11,80.667 55.024,80.235 55.197,79.802 L60.472,66.14 C60.645,65.621 61.164,65.275 61.682,65.275 L71.194,65.275 C71.627,65.275 72.059,65.534 72.319,65.967 C72.577,66.399 72.491,66.918 72.232,67.35 L67.475,74.009 L71.281,74.009 z" fill="#000000"/>
  </g>
</svg>
