<?xml version="1.0" encoding="UTF-8"?>
<!DOCTYPE svg PUBLIC "-//W3C//DTD SVG 1.1//EN" "http://www.w3.org/Graphics/SVG/1.1/DTD/svg11.dtd">
<svg version="1.1" xmlns="http://www.w3.org/2000/svg" xmlns:xlink="http://www.w3.org/1999/xlink" x="0" y="0"  viewBox="0, 0, 96, 96">
  <g id="Layer_1">
    <g>
      <path d="M70.175,27.497 L68.759,27.497 C68.245,25.44 67.474,23.127 66.189,20.683 C61.947,12.714 54.363,8.344 44.98,8.344 C35.466,8.344 27.883,12.714 23.769,20.683 C22.483,23.254 21.712,25.825 21.198,27.882 C11.172,29.682 4.23,37.652 4.23,48.064 C4.23,54.748 7.444,60.919 12.714,64.646 C15.028,66.317 18.242,65.803 19.912,63.49 C21.583,61.175 21.069,57.962 18.755,56.291 C16.185,54.491 14.643,51.406 14.643,48.064 C14.643,41.894 19.142,37.781 25.825,37.781 C28.654,37.781 30.839,35.595 30.967,32.767 C30.967,31.353 31.739,18.498 44.98,18.498 C50.635,18.498 54.621,20.683 57.062,25.054 C59.119,28.782 59.377,32.767 59.377,32.767 C59.504,35.466 61.818,37.652 64.518,37.652 L70.303,37.652 C76.988,37.652 81.486,41.765 81.486,47.936 C81.486,53.077 78.144,56.933 73.131,57.962 C70.303,58.477 68.504,61.175 69.018,64.004 C69.531,66.446 71.588,68.117 74.03,68.117 C74.416,68.117 74.673,68.117 75.058,67.989 C84.957,66.061 91.771,57.833 91.771,47.807 C91.641,36.237 82.643,27.497 70.175,27.497 z" fill="#000000"/>
      <path d="M34.053,49.092 C31.609,48.449 29.167,49.864 28.525,52.306 L21.326,78.915 C20.683,81.357 22.097,83.8 24.54,84.442 C24.925,84.571 25.311,84.571 25.696,84.571 C27.625,84.571 29.553,83.286 30.067,81.229 L37.266,54.62 C37.908,52.178 36.495,49.735 34.053,49.092 z" fill="#000000"/>
      <path d="M62.846,59.762 L57.191,59.762 L64.26,49.864 C64.646,49.221 64.776,48.449 64.389,47.807 C64.004,47.164 63.362,46.778 62.718,46.778 L48.579,46.778 C47.808,46.778 47.035,47.293 46.778,48.064 L38.938,68.374 C38.681,69.017 38.808,69.66 39.194,70.174 C39.579,70.688 40.095,70.945 40.737,70.945 L40.737,70.945 L44.85,70.945 L39.451,85.086 C39.066,85.985 39.451,86.885 40.222,87.399 C40.479,87.528 40.865,87.656 41.252,87.656 C41.765,87.656 42.279,87.399 42.666,87.013 L64.004,62.846 C64.518,62.332 64.646,61.433 64.26,60.79 C64.26,60.275 63.618,59.762 62.846,59.762 z" fill="#000000"/>
    </g>
    <path d="M57.368,78.397 C57.368,78.698 57.468,78.965 57.735,79.149 C57.952,79.367 58.22,79.483 58.538,79.483 L63.953,79.483 L60.109,83.31 C59.874,83.527 59.757,83.777 59.757,84.095 C59.757,84.415 59.874,84.681 60.109,84.916 C60.342,85.15 60.611,85.266 60.928,85.266 C61.246,85.266 61.514,85.15 61.747,84.916 L65.541,81.121 L65.541,86.503 C65.541,86.821 65.658,87.105 65.892,87.322 C66.126,87.539 66.41,87.656 66.727,87.656 C67.045,87.656 67.313,87.539 67.53,87.322 C67.748,87.105 67.865,86.821 67.865,86.503 L67.865,81.087 L71.692,84.933 C71.909,85.166 72.193,85.283 72.494,85.283 C72.794,85.283 73.078,85.166 73.312,84.933 C73.513,84.698 73.613,84.43 73.613,84.112 C73.613,83.794 73.513,83.527 73.312,83.327 L69.486,79.5 L74.884,79.5 C75.186,79.5 75.453,79.383 75.67,79.165 C75.887,78.948 76.005,78.681 76.005,78.38 C76.005,78.046 75.887,77.777 75.67,77.544 C75.453,77.31 75.186,77.192 74.884,77.192 L69.486,77.192 L73.295,73.382 C73.496,73.182 73.596,72.915 73.596,72.597 C73.596,72.28 73.496,72.012 73.295,71.778 C73.062,71.544 72.777,71.427 72.477,71.427 C72.176,71.427 71.909,71.544 71.675,71.778 L67.848,75.622 L67.848,70.222 C67.848,69.888 67.731,69.621 67.514,69.387 C67.297,69.153 67.028,69.037 66.711,69.037 C66.376,69.037 66.109,69.153 65.875,69.387 C65.641,69.621 65.524,69.905 65.524,70.222 L65.524,75.588 L61.73,71.795 C61.497,71.561 61.229,71.444 60.911,71.444 C60.594,71.444 60.326,71.561 60.092,71.795 C59.858,72.028 59.74,72.296 59.74,72.614 C59.74,72.932 59.858,73.198 60.092,73.399 L63.903,77.209 L58.504,77.209 C58.187,77.209 57.92,77.326 57.702,77.561 C57.485,77.794 57.368,78.08 57.368,78.397 z" fill="#000000"/>
  </g>
</svg>
