<?xml version="1.0" encoding="UTF-8"?>
<!DOCTYPE svg PUBLIC "-//W3C//DTD SVG 1.1//EN" "http://www.w3.org/Graphics/SVG/1.1/DTD/svg11.dtd">
<svg version="1.1" xmlns="http://www.w3.org/2000/svg" xmlns:xlink="http://www.w3.org/1999/xlink" x="0" y="0"  viewBox="0, 0, 96, 96">
  <g id="Layer_1">
    <path d="M69.155,28.439 L67.807,28.439 C67.316,26.477 66.58,24.269 65.354,21.939 C61.306,14.336 54.07,10.165 45.118,10.165 C36.042,10.165 28.807,14.336 24.882,21.939 C23.656,24.391 22.92,26.845 22.429,28.807 C12.864,30.524 6.241,38.128 6.241,48.061 C6.241,54.438 9.307,60.325 14.336,63.882 C16.543,65.476 19.609,64.986 21.203,62.778 C22.797,60.571 22.307,57.505 20.1,55.91 C17.647,54.194 16.175,51.25 16.175,48.061 C16.175,42.175 20.467,38.25 26.845,38.25 C29.543,38.25 31.627,36.166 31.751,33.467 C31.751,32.118 32.486,19.854 45.118,19.854 C50.514,19.854 54.316,21.939 56.646,26.109 C58.609,29.665 58.853,33.467 58.853,33.467 C58.977,36.042 61.184,38.128 63.759,38.128 L69.278,38.128 C75.655,38.128 79.948,42.052 79.948,47.939 C79.948,52.844 76.759,56.524 71.976,57.505 C69.278,57.996 67.561,60.571 68.051,63.268 C68.542,65.599 70.504,67.193 72.834,67.193 C73.203,67.193 73.447,67.193 73.816,67.07 C83.258,65.23 89.759,57.382 89.759,47.816 C89.637,36.779 81.051,28.439 69.155,28.439 z M34.694,49.042 C37.023,49.655 38.373,51.986 37.76,54.316 L30.892,79.702 C30.401,81.664 28.562,82.891 26.722,82.891 C26.355,82.891 25.986,82.891 25.618,82.768 C23.288,82.155 21.939,79.825 22.553,77.495 L29.42,52.108 C30.033,49.779 32.364,48.429 34.694,49.042 z M62.165,59.221 C62.901,59.221 63.514,59.712 63.514,60.203 C63.882,60.815 63.759,61.674 63.268,62.165 L42.911,85.221 C42.543,85.589 42.052,85.835 41.562,85.835 C41.193,85.835 40.825,85.711 40.581,85.589 C39.844,85.098 39.476,84.239 39.844,83.382 L44.996,69.891 L41.071,69.891 L41.071,69.891 C40.457,69.891 39.967,69.645 39.599,69.155 C39.231,68.664 39.109,68.051 39.354,67.438 L46.835,48.061 C47.08,47.326 47.816,46.835 48.552,46.835 L62.042,46.835 C62.655,46.835 63.268,47.202 63.636,47.816 C64.005,48.429 63.882,49.165 63.514,49.779 L56.769,59.221 L62.165,59.221 z" fill="#000000"/>
  </g>
</svg>
