<?xml version="1.0" encoding="UTF-8"?>
<!DOCTYPE svg PUBLIC "-//W3C//DTD SVG 1.1//EN" "http://www.w3.org/Graphics/SVG/1.1/DTD/svg11.dtd">
<svg version="1.1" xmlns="http://www.w3.org/2000/svg" xmlns:xlink="http://www.w3.org/1999/xlink" x="0" y="0"  viewBox="0, 0, 96, 96">
  <g id="Layer_1">
    <path d="M91.311,17.901 C91.311,5.079 52.377,4.767 48,4.767 C43.623,4.767 4.689,5.235 4.689,17.901 C4.689,22.122 8.754,24.936 14.541,26.814 C12.351,28.38 11.412,30.255 11.412,32.442 C11.412,36.354 15.165,39.009 20.325,40.884 C19.386,41.823 18.918,43.074 18.918,44.64 C18.918,47.922 21.732,50.112 25.641,51.675 C25.017,52.614 24.702,53.709 24.702,54.801 C24.702,58.551 28.143,61.053 32.676,62.46 C32.52,62.931 32.52,63.243 32.52,63.555 C32.52,67.623 36.429,70.281 41.901,71.844 C41.901,72.156 41.901,72.312 41.901,72.468 C41.901,76.377 45.498,79.035 50.346,80.601 C50.19,81.228 50.19,81.696 50.19,82.164 C50.19,88.416 58.788,91.23 66.762,91.23 C74.736,91.23 83.337,88.416 83.337,82.164 C83.337,80.445 82.242,78.882 80.835,77.472 C82.398,76.065 83.337,74.343 83.337,72.312 C83.337,71.064 83.022,69.657 81.774,68.25 C83.337,66.843 84.273,65.274 84.273,63.243 C84.273,61.524 83.493,59.334 80.679,57.459 C81.303,56.52 81.615,55.428 81.615,54.333 C81.615,52.302 80.523,50.424 78.333,48.858 C79.896,47.61 80.835,46.047 80.835,44.172 C80.835,42.447 80.052,41.043 78.801,39.948 C83.181,38.229 86.307,35.568 86.307,32.13 C86.307,29.787 85.056,27.75 82.554,26.187 C87.714,24.624 91.311,21.813 91.311,17.901 z M27.519,44.64 C28.299,44.328 29.706,43.854 31.428,43.386 C39.402,44.484 47.217,44.64 48.939,44.64 C50.814,44.64 59.259,44.64 67.545,43.23 C67.545,43.23 67.701,43.23 67.701,43.23 C69.732,43.698 71.142,44.172 72.078,44.484 C68.64,45.891 60.978,47.454 49.719,47.454 C38.619,47.61 30.957,45.891 27.519,44.64 z M32.835,54.645 C32.991,54.489 33.303,54.333 33.615,54.177 C33.927,54.021 34.242,53.865 34.554,53.709 C40.494,54.645 46.749,54.801 49.875,54.801 C53.784,54.801 62.229,54.645 69.264,52.926 C69.576,53.082 69.891,53.238 70.203,53.397 C71.766,53.865 72.861,54.333 73.485,54.645 C70.827,56.052 63.792,57.771 53.16,57.771 C42.684,57.927 35.649,56.052 32.835,54.645 z M66.918,84.198 C62.229,84.198 59.415,83.103 58.164,82.32 C58.164,82.32 58.164,82.32 58.164,82.32 C58.164,82.32 58.164,82.32 58.32,82.164 C59.727,82.32 61.29,82.32 62.853,82.32 C66.606,82.32 70.203,81.852 73.485,81.066 C74.112,81.54 74.892,81.852 75.519,82.32 C73.956,83.259 71.142,84.198 66.918,84.198 z M62.697,75.282 C57.849,75.282 54.255,74.499 51.909,73.719 C54.099,73.875 56.286,74.031 58.476,74.031 C63.948,74.031 69.732,73.407 74.58,72.156 C75.048,72.312 75.519,72.624 75.675,72.78 C74.112,73.719 69.576,75.282 62.697,75.282 z M58.476,66.687 C50.814,66.687 45.342,65.436 42.372,64.341 C47.217,64.962 51.441,64.962 53.16,64.962 C56.13,64.962 66.294,64.806 73.641,62.304 C74.892,62.778 75.831,63.243 76.458,63.555 C74.112,64.962 68.013,66.687 58.476,66.687 z M48.939,37.443 C32.052,37.443 21.888,34.473 19.074,32.598 C20.013,31.974 22.359,30.879 26.58,29.787 C26.58,29.787 26.736,29.787 26.736,29.787 C36.273,31.194 45.81,31.194 47.844,31.194 C50.034,31.194 60.351,31.035 70.359,29.469 C70.671,29.631 70.827,29.787 71.142,29.787 C75.363,30.72 77.55,31.818 78.489,32.442 C75.987,34.473 65.823,37.443 48.939,37.443 z M48,23.841 C27.987,23.841 15.009,20.244 12.195,17.901 C15.009,15.558 27.831,11.961 48,11.961 C68.169,11.961 80.991,15.558 83.805,17.901 C80.991,20.244 68.169,23.841 48,23.841 z" fill="#000000"/>
  </g>
</svg>
