<?xml version="1.0" encoding="UTF-8"?>
<!DOCTYPE svg PUBLIC "-//W3C//DTD SVG 1.1//EN" "http://www.w3.org/Graphics/SVG/1.1/DTD/svg11.dtd">
<svg version="1.1" xmlns="http://www.w3.org/2000/svg" xmlns:xlink="http://www.w3.org/1999/xlink" x="0" y="0"  viewBox="0, 0, 96, 96">
  <g id="Layer_1">
    <path d="M52.791,30.723 C52.791,23.358 30.438,23.181 27.924,23.181 C25.41,23.181 3.063,23.451 3.063,30.723 C3.063,33.141 5.394,34.761 8.715,35.838 C7.458,36.735 6.921,37.812 6.921,39.072 C6.921,41.313 9.075,42.834 12.039,43.917 C11.499,44.454 11.229,45.171 11.229,46.074 C11.229,47.952 12.846,49.209 15.09,50.106 C14.73,50.646 14.553,51.279 14.553,51.906 C14.553,54.06 16.527,55.497 19.131,56.301 C19.041,56.574 19.041,56.751 19.041,56.928 C19.041,59.268 21.285,60.792 24.423,61.686 C24.423,61.866 24.423,61.959 24.423,62.049 C24.423,64.293 26.49,65.82 29.271,66.717 C29.181,67.074 29.181,67.344 29.181,67.614 C29.181,71.205 34.122,72.822 38.697,72.822 C43.275,72.822 48.207,71.205 48.207,67.614 C48.207,66.627 47.586,65.73 46.776,64.917 C47.676,64.116 48.207,63.126 48.207,61.959 C48.207,61.239 48.03,60.429 47.316,59.625 C48.207,58.815 48.75,57.918 48.75,56.751 C48.75,55.767 48.303,54.51 46.686,53.427 C47.046,52.893 47.223,52.263 47.223,51.636 C47.223,50.469 46.596,49.392 45.342,48.492 C46.236,47.775 46.776,46.875 46.776,45.801 C46.776,44.817 46.329,44.004 45.609,43.374 C48.123,42.39 49.917,40.86 49.917,38.886 C49.917,37.542 49.197,36.375 47.763,35.478 C50.724,34.578 52.791,32.964 52.791,30.723 z M16.167,46.074 C16.617,45.891 17.424,45.621 18.411,45.348 C22.989,45.978 27.477,46.074 28.464,46.074 C29.541,46.074 34.389,46.074 39.147,45.261 C39.147,45.261 39.234,45.261 39.234,45.261 C40.404,45.531 41.211,45.801 41.748,45.978 C39.774,46.791 35.376,47.688 28.911,47.688 C22.539,47.775 18.141,46.791 16.167,46.074 z M19.218,51.813 C19.308,51.726 19.488,51.636 19.668,51.549 C19.848,51.456 20.028,51.366 20.205,51.279 C23.619,51.813 27.207,51.906 29.004,51.906 C31.248,51.906 36.096,51.813 40.134,50.826 C40.314,50.916 40.491,51.009 40.671,51.096 C41.571,51.366 42.198,51.636 42.558,51.813 C41.031,52.623 36.99,53.607 30.888,53.607 C24.876,53.697 20.835,52.623 19.218,51.813 z M38.787,68.781 C36.096,68.781 34.479,68.148 33.759,67.701 C33.759,67.701 33.759,67.701 33.759,67.701 C33.759,67.701 33.759,67.701 33.852,67.614 C34.656,67.701 35.556,67.701 36.453,67.701 C38.61,67.701 40.671,67.434 42.558,66.987 C42.918,67.257 43.365,67.434 43.722,67.701 C42.828,68.241 41.211,68.781 38.787,68.781 z M36.366,63.663 C33.582,63.663 31.515,63.216 30.168,62.769 C31.425,62.856 32.682,62.946 33.939,62.946 C37.083,62.946 40.404,62.586 43.185,61.866 C43.455,61.959 43.722,62.136 43.815,62.229 C42.918,62.769 40.314,63.663 36.366,63.663 z M33.939,58.728 C29.541,58.728 26.397,58.011 24.693,57.378 C27.477,57.741 29.898,57.741 30.888,57.741 C32.595,57.741 38.427,57.648 42.648,56.211 C43.365,56.481 43.905,56.751 44.262,56.928 C42.918,57.741 39.414,58.728 33.939,58.728 z M28.464,41.943 C18.771,41.943 12.936,40.233 11.319,39.156 C11.859,38.802 13.203,38.172 15.627,37.542 C15.627,37.542 15.717,37.542 15.717,37.542 C21.192,38.349 26.667,38.349 27.837,38.349 C29.094,38.349 35.016,38.259 40.761,37.359 C40.941,37.452 41.031,37.542 41.211,37.542 C43.635,38.082 44.892,38.709 45.429,39.072 C43.992,40.233 38.16,41.943 28.464,41.943 z M27.924,34.131 C16.434,34.131 8.985,32.067 7.368,30.723 C8.985,29.376 16.347,27.312 27.924,27.312 C39.504,27.312 46.866,29.376 48.48,30.723 C46.866,32.067 39.504,34.131 27.924,34.131 z M76.782,35.949 C78.933,35.949 80.895,36.126 82.635,36.513 C83.481,36.711 84.243,36.927 84.897,37.125 C84.306,37.644 83.85,38.235 83.505,38.865 C83.265,39.408 83.094,40.017 82.98,40.692 L82.806,40.629 C82.635,40.56 82.305,40.476 81.828,40.368 C81.348,40.257 80.52,40.125 79.347,39.996 C78.15,39.864 76.953,39.885 75.714,40.041 C73.302,40.344 71.013,41.043 68.88,42.105 C66.204,43.479 63.792,45.456 61.614,48.051 C61.419,48.285 61.35,48.546 61.371,48.855 C61.395,49.158 61.527,49.395 61.743,49.593 C61.938,49.749 62.157,49.812 62.418,49.812 C62.745,49.812 63.027,49.677 63.246,49.419 C65.208,47.091 67.377,45.285 69.795,44.022 C71.667,43.065 73.689,42.435 75.843,42.174 C77.739,41.934 79.629,42.042 81.501,42.477 C81.369,42.498 81.24,42.564 81.087,42.63 C79.719,43.263 78.783,44.154 78.303,45.264 C77.958,46.044 77.886,46.938 78.105,47.94 L78.282,48.483 C75.564,49.005 73.302,49.635 71.514,50.376 C68.901,51.441 66.813,52.857 65.229,54.645 C63.66,56.337 62.505,58.599 61.743,61.365 C61.2,63.411 60.876,66.021 60.765,69.177 L54.909,69.177 C54.417,69.312 54.063,66.324 53.739,64.563 C53.301,62.145 53.082,60.168 53.082,58.62 C53.082,55.338 53.67,52.251 54.867,49.374 C55.959,46.635 57.585,44.262 59.721,42.282 C61.764,40.278 64.245,38.733 67.161,37.623 C70.146,36.513 73.344,35.949 76.782,35.949 z M76.77,32.859 C72.918,32.859 69.375,33.492 66.084,34.731 C62.865,35.928 60.036,37.692 57.597,39.996 C55.182,42.282 53.313,45 51.963,48.18 C50.637,51.42 49.983,54.927 49.983,58.647 C49.983,60.579 50.223,62.76 50.679,65.151 C50.982,66.72 51.51,69.822 51.72,71.448 L63.732,71.49 C63.798,68.355 64.239,63.951 64.824,61.866 C65.409,59.802 66.324,58.056 67.545,56.709 C68.805,55.296 70.503,54.138 72.657,53.25 C74.808,52.356 77.574,51.66 80.949,51.159 L83.688,50.766 L81.927,48.678 C81.168,47.721 80.907,47.001 81.147,46.503 C81.273,46.11 81.687,45.762 82.407,45.414 C83.166,45.09 84.036,44.892 84.972,44.829 L87.192,44.718 L86.301,42.651 C85.908,41.739 85.887,40.932 86.232,40.236 C86.718,39.387 87.585,38.823 88.845,38.538 L92.937,37.692 L89.241,35.712 C87.324,34.686 85.344,33.948 83.295,33.471 C81.249,33.057 79.074,32.859 76.77,32.859 z" fill="#000000"/>
  </g>
</svg>
