<?xml version="1.0" encoding="UTF-8"?>
<!DOCTYPE svg PUBLIC "-//W3C//DTD SVG 1.1//EN" "http://www.w3.org/Graphics/SVG/1.1/DTD/svg11.dtd">
<svg version="1.1" xmlns="http://www.w3.org/2000/svg" xmlns:xlink="http://www.w3.org/1999/xlink" x="0" y="0"  viewBox="0, 0, 96, 96">
  <g id="Layer_1">
    <path d="M57.331,36.556 C57.331,32.201 53.724,28.594 49.369,28.594 C47.503,28.594 45.887,30.21 45.887,32.079 C45.887,33.942 47.378,35.559 49.369,35.559 C49.991,35.559 50.363,36.056 50.363,36.556 C50.363,37.175 49.866,37.55 49.369,37.55 L7.075,37.55 C5.208,37.55 3.592,39.044 3.592,41.032 C3.592,42.902 5.083,44.514 7.075,44.514 L49.369,44.514 C53.724,44.514 57.331,40.907 57.331,36.556 z M64.421,56.459 C68.775,56.459 72.383,60.066 72.383,64.421 C72.383,68.775 68.897,72.383 64.421,72.383 C62.43,72.383 60.939,70.767 60.939,68.897 C60.939,67.031 62.555,65.415 64.421,65.415 C64.918,65.415 65.415,65.043 65.415,64.421 C65.415,63.799 65.043,63.424 64.421,63.424 C64.421,63.424 64.421,63.424 64.421,63.424 L32.701,63.424 C30.71,63.424 29.216,61.807 29.216,59.944 C29.216,58.075 30.835,56.459 32.701,56.459 L64.421,56.459 z M77.356,23.617 C85.69,23.617 92.408,30.335 92.408,38.669 C92.408,47.003 85.69,53.724 77.356,53.724 L21.132,53.724 C19.141,53.724 17.65,52.108 17.65,50.238 C17.65,48.247 19.266,46.756 21.132,46.756 L77.356,46.756 C81.836,46.756 85.443,43.148 85.443,38.669 C85.443,34.189 81.836,30.582 77.356,30.582 C72.88,30.582 69.272,34.189 69.272,38.669 C69.272,40.66 67.653,42.151 65.79,42.151 C63.799,42.151 62.305,40.535 62.305,38.669 C62.305,30.335 69.022,23.617 77.356,23.617 z" fill="#000000"/>
  </g>
</svg>
