<?xml version="1.0" standalone="no"?>
<!DOCTYPE svg PUBLIC "-//W3C//DTD SVG 20010904//EN"
 "http://www.w3.org/TR/2001/REC-SVG-20010904/DTD/svg10.dtd">
<svg version="1.0" xmlns="http://www.w3.org/2000/svg"
 width="700.000000pt" height="700.000000pt" viewBox="0 0 700.000000 700.000000"
 preserveAspectRatio="xMidYMid meet">
<metadata>
Created by potrace 1.11, written by Peter Selinger 2001-2013
</metadata>
<g transform="translate(0.000000,700.000000) scale(0.100000,-0.100000)"
fill="#000000" stroke="none">
<path d="M3200 6393 c-162 -318 -306 -590 -319 -605 -45 -55 -103 -70 -181
-48 -19 5 -143 68 -275 139 -142 76 -241 125 -243 117 -1 -6 70 -412 158 -901
151 -835 172 -979 155 -1037 -29 -95 -141 -103 -224 -17 -18 19 -197 226 -398
462 -201 235 -369 427 -372 427 -3 0 -33 -98 -65 -217 -64 -236 -71 -256 -109
-292 -47 -44 -78 -40 -569 68 -252 56 -465 101 -473 101 -11 0 -15 -6 -11 -17
58 -200 280 -1075 283 -1120 4 -48 2 -68 -11 -88 -11 -17 -84 -59 -218 -126
-195 -97 -200 -101 -182 -118 10 -10 350 -299 754 -641 880 -746 876 -742 901
-792 35 -69 29 -119 -51 -391 -39 -137 -70 -249 -69 -251 2 -1 366 41 809 95
615 75 813 96 840 89 20 -6 49 -23 65 -40 l29 -30 -33 -492 c-18 -271 -35
-526 -38 -565 l-6 -73 142 0 141 0 -5 98 c-10 168 -35 857 -35 947 0 102 12
127 73 149 40 15 79 11 847 -83 443 -53 807 -96 809 -95 1 2 -30 114 -69 251
-80 272 -86 322 -51 391 25 50 21 46 901 792 404 342 744 631 754 641 18 17
13 21 -182 118 -134 67 -207 109 -218 126 -13 20 -15 40 -11 88 3 45 225 920
283 1120 4 11 0 17 -11 17 -8 0 -221 -45 -473 -101 -491 -108 -522 -112 -569
-68 -38 36 -45 56 -109 292 -32 119 -62 217 -65 217 -3 0 -171 -192 -372 -427
-201 -236 -380 -443 -398 -462 -83 -86 -195 -78 -224 17 -17 58 4 202 155
1037 88 489 159 895 158 901 -2 8 -101 -41 -243 -117 -132 -71 -256 -134 -275
-139 -78 -22 -136 -7 -181 48 -13 15 -157 287 -319 605 -162 317 -297 576
-300 576 -3 0 -138 -259 -300 -576z m384 -1163 c184 -30 341 -184 376 -369 6
-34 10 -365 10 -895 l0 -841 35 -24 c51 -34 158 -151 201 -218 90 -140 127
-276 126 -458 0 -147 -23 -241 -86 -370 -82 -165 -207 -290 -371 -371 -103
-50 -175 -71 -293 -83 -211 -22 -421 38 -595 170 -138 105 -252 277 -298 454
-30 112 -30 298 0 410 43 167 157 345 281 442 l59 45 4 872 c3 789 5 876 20
920 25 74 62 131 122 189 65 65 136 104 218 122 76 17 115 18 191 5z"/>
<path d="M3437 4950 c-41 -13 -94 -56 -115 -93 -16 -30 -17 -101 -22 -967 l-5
-934 -64 -36 c-116 -66 -208 -174 -252 -295 -15 -43 -23 -92 -26 -175 -5 -105
-3 -122 21 -193 34 -101 77 -167 159 -243 105 -99 222 -144 370 -144 159 0
279 51 398 171 114 113 169 242 169 394 0 68 -33 193 -67 258 -38 72 -154 186
-230 225 -35 18 -64 34 -65 35 -2 1 -5 426 -8 944 l-5 941 -31 39 c-17 21 -45
46 -62 56 -36 21 -124 30 -165 17z"/>
</g>
</svg>
