<?xml version="1.0" encoding="UTF-8"?>
<!DOCTYPE svg PUBLIC "-//W3C//DTD SVG 1.1//EN" "http://www.w3.org/Graphics/SVG/1.1/DTD/svg11.dtd">
<svg version="1.1" xmlns="http://www.w3.org/2000/svg" xmlns:xlink="http://www.w3.org/1999/xlink" x="0" y="0" width="256" height="256" viewBox="0, 0, 256, 256">
  <g id="Calque_1">
    <path d="M130.385,1.778 L151.917,43.746 C154.359,48.307 158.734,47.883 163.109,45.336 L178.691,36.901 L167.077,101.362 C164.635,113.139 172.47,113.139 176.338,108.046 L203.529,76.22 L207.944,92.382 C208.453,94.505 210.691,96.734 214.05,96.203 L248.434,88.645 L239.403,122.974 C237.469,130.612 235.962,133.775 241.354,135.789 L253.61,141.812 L194.42,192.079 C192.077,193.98 190.893,197.4 191.727,200.497 L196.908,218.272 C176.527,215.816 158.256,213.617 137.876,211.164 C136.065,211.14 133.342,212.889 133.354,215.071 L134.914,255.407 L125.005,255.407 L127.705,214.93 C127.718,212.75 124.715,211.14 122.904,211.164 C102.524,213.617 84.253,215.816 63.872,218.272 L69.053,200.497 C69.888,197.4 68.703,193.98 66.361,192.079 L7.17,141.812 L19.426,135.789 C24.819,133.775 23.311,130.612 21.377,122.974 L12.346,88.645 L46.731,96.203 C50.089,96.734 52.327,94.505 52.836,92.382 L57.251,76.22 L84.442,108.046 C88.31,113.139 96.145,113.139 93.703,101.362 L82.089,36.901 L97.671,45.336 C102.046,47.883 106.422,48.307 108.863,43.746 L130.385,1.778 z M130.39,64.842 C125.551,64.842 121.438,66.596 118.112,69.923 C114.785,73.249 113.152,77.362 113.152,82.201 L113.152,142.202 C108.857,145.166 105.531,148.856 103.172,153.331 C100.813,157.807 99.603,162.586 99.603,167.727 C99.603,173.292 100.934,178.433 103.716,183.151 C106.499,187.868 110.249,191.619 114.966,194.34 C119.684,197.062 124.826,198.453 130.39,198.453 C136.015,198.453 141.156,197.062 145.874,194.34 C150.592,191.619 154.342,187.868 157.064,183.151 C159.786,178.433 161.177,173.231 161.177,167.666 C161.177,162.525 160.028,157.686 157.669,153.271 C155.31,148.856 152.044,145.106 147.749,142.142 L147.749,82.141 C147.749,77.302 146.056,73.249 142.729,69.862 C139.402,66.536 135.289,64.842 130.39,64.842 z M130.39,75.366 C132.447,75.366 134.14,76.032 135.531,77.302 C136.923,78.633 137.588,80.266 137.588,82.201 L137.588,147.283 C137.588,148.19 137.89,148.795 138.495,149.037 L140.189,149.884 C143.576,151.638 146.237,154.118 148.173,157.324 C150.108,160.529 151.076,164.037 151.076,167.787 C151.076,173.292 149.02,178.07 144.967,182.122 C140.915,186.175 136.076,188.171 130.451,188.171 C124.886,188.171 120.108,186.175 116.176,182.183 C112.245,178.191 110.249,173.352 110.249,167.727 C110.249,163.856 111.156,160.408 113.031,157.203 C114.906,153.997 117.507,151.517 120.834,149.763 L122.467,148.916 C123.011,148.674 123.313,148.069 123.313,147.162 L123.313,82.201 C123.313,80.205 123.979,78.572 125.37,77.302 C126.761,76.032 128.455,75.366 130.39,75.366 z" fill="#FFFFFF"/>
    <g>
      <path d="M2.39,0.593 L2.39,0.593" fill="#FFFFFF"/>
      <path d="M2.39,0.593 L2.39,0.593" fill-opacity="0" stroke="#000000" stroke-width="0.064"/>
    </g>
  </g>
</svg>
