<?xml version="1.0" encoding="UTF-8"?>
<!DOCTYPE svg PUBLIC "-//W3C//DTD SVG 1.1//EN" "http://www.w3.org/Graphics/SVG/1.1/DTD/svg11.dtd">
<svg version="1.1" xmlns="http://www.w3.org/2000/svg" xmlns:xlink="http://www.w3.org/1999/xlink" x="0" y="0" width="195" height="240" viewBox="0, 0, 195, 240">
  <g id="Calque_1">
    <path d="M97.914,2 L114.56,34.445 C116.447,37.971 119.83,37.644 123.213,35.674 L135.259,29.153 L126.28,78.986 C124.392,88.091 130.449,88.091 133.44,84.154 L154.46,59.549 L157.874,72.045 C158.267,73.685 159.997,75.408 162.593,74.998 L189.175,69.155 L182.194,95.694 C180.699,101.599 179.533,104.044 183.702,105.602 L193.177,110.257 L147.418,149.118 C145.607,150.588 144.692,153.232 145.337,155.626 L149.342,169.367 C133.586,167.468 119.461,165.768 103.706,163.872 C102.305,163.854 100.2,165.205 100.21,166.892 L101.416,198.076 L93.755,198.076 L95.843,166.784 C95.853,165.098 93.531,163.854 92.131,163.872 C76.376,165.768 62.251,167.468 46.495,169.367 L50.5,155.626 C51.145,153.232 50.229,150.588 48.419,149.118 L2.66,110.257 L12.134,105.602 C16.304,104.044 15.138,101.599 13.643,95.694 L6.661,69.155 L33.243,74.998 C35.839,75.408 37.569,73.685 37.963,72.045 L41.376,59.549 L62.397,84.154 C65.387,88.091 71.444,88.091 69.556,78.986 L60.578,29.153 L72.624,35.674 C76.006,37.644 79.389,37.971 81.276,34.445 L97.914,2 z M97.918,50.753 C94.177,50.753 90.998,52.109 88.426,54.681 C85.854,57.253 84.592,60.433 84.592,64.174 L84.592,110.559 C81.272,112.85 78.7,115.703 76.877,119.163 C75.053,122.623 74.117,126.317 74.117,130.292 C74.117,134.594 75.146,138.568 77.297,142.215 C79.448,145.863 82.347,148.762 85.994,150.866 C89.642,152.971 93.616,154.046 97.918,154.046 C102.267,154.046 106.241,152.971 109.889,150.866 C113.536,148.762 116.435,145.863 118.539,142.215 C120.644,138.568 121.719,134.547 121.719,130.245 C121.719,126.271 120.831,122.53 119.007,119.116 C117.183,115.703 114.658,112.804 111.338,110.512 L111.338,64.127 C111.338,60.386 110.029,57.253 107.457,54.635 C104.885,52.063 101.706,50.753 97.918,50.753 z M97.918,58.89 C99.508,58.89 100.817,59.404 101.893,60.386 C102.968,61.415 103.483,62.677 103.483,64.174 L103.483,114.487 C103.483,115.189 103.716,115.656 104.184,115.843 L105.494,116.497 C108.112,117.853 110.169,119.771 111.666,122.249 C113.162,124.728 113.91,127.44 113.91,130.339 C113.91,134.594 112.32,138.287 109.187,141.421 C106.054,144.553 102.314,146.096 97.965,146.096 C93.663,146.096 89.969,144.553 86.93,141.467 C83.89,138.381 82.347,134.64 82.347,130.292 C82.347,127.299 83.049,124.634 84.498,122.156 C85.948,119.677 87.959,117.76 90.53,116.404 L91.792,115.749 C92.214,115.563 92.447,115.095 92.447,114.393 L92.447,64.174 C92.447,62.631 92.962,61.368 94.037,60.386 C95.113,59.404 96.422,58.89 97.918,58.89 z" fill="#000000"/>
    <g>
      <path d="M97.918,169.615 L97.918,169.615 z" fill="#000000"/>
      <g>
        <path d="M97.918,169.615 L97.918,169.615 z" fill="#000000"/>
        <path d="M97.918,169.615 L97.918,169.615 z" fill-opacity="0" stroke="#000000" stroke-width="0.064"/>
      </g>
    </g>
    <path d="M14.608,229.666 L14.695,229.666 L21.856,205.335 L26.558,205.335 L33.676,229.666 L33.762,229.666 L40.492,205.335 L45.022,205.335 L36.049,235.878 L31.605,235.878 L24.185,211.332 L24.099,211.332 L16.679,235.878 L12.236,235.878 L3.263,205.335 L7.879,205.335 z" fill="#000000"/>
    <path d="M62.364,223.842 Q62.321,222.634 61.954,221.577 Q61.587,220.521 60.875,219.744 Q60.164,218.967 59.107,218.515 Q58.05,218.062 56.626,218.062 Q55.332,218.062 54.189,218.515 Q53.046,218.967 52.204,219.744 Q51.363,220.521 50.824,221.577 Q50.285,222.634 50.198,223.842 z M66.462,225.482 Q66.462,225.827 66.462,226.172 Q66.462,226.517 66.419,226.862 L50.198,226.862 Q50.242,228.156 50.781,229.299 Q51.32,230.443 52.226,231.284 Q53.132,232.125 54.318,232.6 Q55.505,233.074 56.842,233.074 Q58.913,233.074 60.422,232.168 Q61.932,231.262 62.795,229.968 L65.642,232.254 Q64.003,234.411 61.781,235.425 Q59.56,236.439 56.842,236.439 Q54.512,236.439 52.528,235.662 Q50.544,234.886 49.12,233.484 Q47.696,232.082 46.877,230.097 Q46.057,228.113 46.057,225.697 Q46.057,223.325 46.855,221.319 Q47.653,219.313 49.077,217.889 Q50.5,216.465 52.442,215.667 Q54.383,214.869 56.626,214.869 Q58.869,214.869 60.703,215.603 Q62.536,216.336 63.809,217.716 Q65.082,219.097 65.772,221.06 Q66.462,223.023 66.462,225.482 z" fill="#000000"/>
    <path d="M84.581,222.634 Q84.581,220.348 83.2,219.248 Q81.82,218.148 79.533,218.148 Q77.808,218.148 76.276,218.816 Q74.745,219.485 73.709,220.52 L71.552,217.932 Q73.062,216.509 75.241,215.689 Q77.419,214.869 79.922,214.869 Q82.122,214.869 83.739,215.495 Q85.357,216.12 86.393,217.199 Q87.428,218.277 87.946,219.744 Q88.463,221.211 88.463,222.893 L88.463,231.823 Q88.463,232.858 88.528,234.002 Q88.593,235.145 88.765,235.878 L85.098,235.878 Q84.753,234.411 84.753,232.945 L84.624,232.945 Q83.502,234.584 81.798,235.49 Q80.094,236.396 77.765,236.396 Q76.557,236.396 75.241,236.072 Q73.925,235.749 72.847,235.015 Q71.768,234.282 71.056,233.074 Q70.345,231.866 70.345,230.097 Q70.345,227.768 71.596,226.409 Q72.847,225.05 74.874,224.338 Q76.902,223.627 79.447,223.411 Q81.992,223.195 84.581,223.195 z M83.588,226.129 Q82.079,226.129 80.461,226.258 Q78.843,226.387 77.527,226.776 Q76.212,227.164 75.349,227.941 Q74.486,228.717 74.486,230.011 Q74.486,230.917 74.853,231.521 Q75.219,232.125 75.823,232.513 Q76.427,232.902 77.161,233.053 Q77.894,233.204 78.671,233.204 Q81.518,233.204 83.049,231.5 Q84.581,229.796 84.581,227.207 L84.581,226.129 z" fill="#000000"/>
    <path d="M104.813,218.752 L99.378,218.752 L99.378,229.407 Q99.378,231.262 100.068,232.06 Q100.758,232.858 102.268,232.858 Q102.829,232.858 103.476,232.729 Q104.123,232.6 104.641,232.341 L104.77,235.662 Q104.037,235.921 103.152,236.072 Q102.268,236.223 101.319,236.223 Q98.428,236.223 96.897,234.627 Q95.366,233.031 95.366,229.839 L95.366,218.752 L91.44,218.752 L91.44,215.43 L95.366,215.43 L95.366,209.563 L99.378,209.563 L99.378,215.43 L104.813,215.43 z" fill="#000000"/>
    <path d="M113.225,218.536 Q113.959,217.026 115.727,215.948 Q117.496,214.869 119.696,214.869 Q121.681,214.869 123.104,215.538 Q124.528,216.207 125.477,217.328 Q126.426,218.45 126.879,219.96 Q127.332,221.47 127.332,223.195 L127.332,235.878 L123.277,235.878 L123.277,224.576 Q123.277,223.325 123.083,222.203 Q122.889,221.081 122.371,220.219 Q121.853,219.356 120.969,218.838 Q120.085,218.32 118.661,218.32 Q116.245,218.32 114.692,220.154 Q113.139,221.987 113.139,225.05 L113.139,235.878 L109.084,235.878 L109.084,203.265 L113.139,203.265 L113.139,218.536 z" fill="#000000"/>
    <path d="M149.161,223.842 Q149.117,222.634 148.751,221.577 Q148.384,220.521 147.672,219.744 Q146.96,218.967 145.904,218.515 Q144.847,218.062 143.423,218.062 Q142.129,218.062 140.986,218.515 Q139.842,218.967 139.001,219.744 Q138.16,220.521 137.621,221.577 Q137.082,222.634 136.995,223.842 z M153.259,225.482 Q153.259,225.827 153.259,226.172 Q153.259,226.517 153.216,226.862 L136.995,226.862 Q137.038,228.156 137.578,229.299 Q138.117,230.443 139.023,231.284 Q139.929,232.125 141.115,232.6 Q142.301,233.074 143.639,233.074 Q145.709,233.074 147.219,232.168 Q148.729,231.262 149.592,229.968 L152.439,232.254 Q150.8,234.411 148.578,235.425 Q146.357,236.439 143.639,236.439 Q141.309,236.439 139.325,235.662 Q137.34,234.886 135.917,233.484 Q134.493,232.082 133.673,230.097 Q132.854,228.113 132.854,225.697 Q132.854,223.325 133.652,221.319 Q134.45,219.313 135.874,217.889 Q137.297,216.465 139.238,215.667 Q141.18,214.869 143.423,214.869 Q145.666,214.869 147.5,215.603 Q149.333,216.336 150.606,217.716 Q151.878,219.097 152.569,221.06 Q153.259,223.023 153.259,225.482 z" fill="#000000"/>
    <path d="M163.138,218.536 Q163.871,217.026 165.64,215.948 Q167.409,214.869 169.609,214.869 Q171.593,214.869 173.017,215.538 Q174.44,216.207 175.389,217.328 Q176.339,218.45 176.791,219.96 Q177.244,221.47 177.244,223.195 L177.244,235.878 L173.189,235.878 L173.189,224.576 Q173.189,223.325 172.995,222.203 Q172.801,221.081 172.283,220.219 Q171.766,219.356 170.881,218.838 Q169.997,218.32 168.573,218.32 Q166.158,218.32 164.605,220.154 Q163.052,221.987 163.052,225.05 L163.052,235.878 L158.996,235.878 L158.996,203.265 L163.052,203.265 L163.052,218.536 z" fill="#000000"/>
    <path d="M189.927,226.948 L185.657,226.948 L185.657,205.335 L189.927,205.335 z M190.704,233.29 Q190.704,234.411 189.884,235.274 Q189.065,236.137 187.814,236.137 Q186.606,236.137 185.764,235.296 Q184.923,234.455 184.923,233.333 Q184.923,232.168 185.743,231.327 Q186.563,230.486 187.814,230.486 Q189.065,230.486 189.884,231.305 Q190.704,232.125 190.704,233.29 z" fill="#000000"/>
  </g>
</svg>
