<?xml version="1.0" encoding="UTF-8"?>
<!DOCTYPE svg PUBLIC "-//W3C//DTD SVG 1.1//EN" "http://www.w3.org/Graphics/SVG/1.1/DTD/svg11.dtd">
<svg version="1.1" xmlns="http://www.w3.org/2000/svg" xmlns:xlink="http://www.w3.org/1999/xlink" x="0" y="0" width="256" height="256" viewBox="0, 0, 256, 256">
  <g id="Calque_1">
    <path d="M127.995,1.185 L149.527,43.153 C151.968,47.714 156.344,47.291 160.719,44.743 L176.301,36.308 L164.687,100.769 C162.245,112.546 170.08,112.546 173.948,107.454 L201.139,75.627 L205.554,91.79 C206.063,93.912 208.301,96.141 211.659,95.61 L246.044,88.052 L237.013,122.381 C235.079,130.02 233.571,133.182 238.964,135.197 L251.22,141.219 L192.029,191.487 C189.687,193.388 188.503,196.808 189.337,199.905 L194.518,217.679 C174.137,215.223 155.866,213.024 135.486,210.571 C133.675,210.548 130.952,212.296 130.964,214.478 L132.524,254.815 L122.615,254.815 L125.315,214.338 C125.328,212.157 122.325,210.548 120.514,210.571 C100.134,213.024 81.863,215.223 61.482,217.679 L66.663,199.905 C67.498,196.808 66.313,193.388 63.971,191.487 L4.78,141.219 L17.036,135.197 C22.429,133.182 20.921,130.02 18.987,122.381 L9.956,88.052 L44.341,95.61 C47.699,96.141 49.937,93.912 50.446,91.79 L54.861,75.627 L82.052,107.454 C85.92,112.546 93.755,112.546 91.313,100.769 L79.699,36.308 L95.281,44.743 C99.656,47.291 104.032,47.714 106.473,43.153 L127.995,1.185 z M128,64.249 C123.161,64.249 119.048,66.003 115.722,69.33 C112.395,72.657 110.762,76.77 110.762,81.609 L110.762,141.61 C106.467,144.573 103.141,148.263 100.782,152.739 C98.423,157.215 97.213,161.993 97.213,167.134 C97.213,172.699 98.544,177.84 101.326,182.558 C104.108,187.276 107.858,191.026 112.576,193.748 C117.294,196.47 122.435,197.861 128,197.861 C133.625,197.861 138.766,196.47 143.484,193.748 C148.202,191.026 151.952,187.276 154.674,182.558 C157.396,177.84 158.787,172.638 158.787,167.074 C158.787,161.933 157.638,157.094 155.279,152.678 C152.92,148.263 149.654,144.513 145.359,141.549 L145.359,81.548 C145.359,76.709 143.666,72.657 140.339,69.27 C137.012,65.943 132.899,64.249 128,64.249 z M128,74.774 C130.056,74.774 131.75,75.439 133.141,76.709 C134.532,78.04 135.198,79.673 135.198,81.609 L135.198,146.69 C135.198,147.598 135.5,148.203 136.105,148.444 L137.799,149.291 C141.186,151.045 143.847,153.525 145.783,156.731 C147.718,159.937 148.686,163.445 148.686,167.195 C148.686,172.699 146.629,177.477 142.577,181.53 C138.524,185.582 133.686,187.578 128.06,187.578 C122.496,187.578 117.718,185.582 113.786,181.59 C109.854,177.598 107.858,172.759 107.858,167.134 C107.858,163.263 108.766,159.816 110.641,156.61 C112.516,153.404 115.117,150.924 118.443,149.17 L120.076,148.323 C120.621,148.082 120.923,147.477 120.923,146.569 L120.923,81.609 C120.923,79.613 121.589,77.979 122.98,76.709 C124.371,75.439 126.064,74.774 128,74.774 z" fill="#2C3E50"/>
    <g>
      <path d="M0,0 L0,0" fill="#2C3E50"/>
      <path d="M0,0 L0,0" fill-opacity="0" stroke="#000000" stroke-width="0.064"/>
    </g>
  </g>
</svg>
